  0
SECTION
  2
HEADER
  9
$ACADVER
  1
AC1014
  9
$HANDSEED
  5
FFFF
  9
$MEASUREMENT
 70
     1
  0
ENDSEC
  0
SECTION
  2
TABLES
  0
TABLE
  2
VPORT
  5
8
330
0
100
AcDbSymbolTable
 70
     4
  0
VPORT
  5
2E
330
8
100
AcDbSymbolTableRecord
100
AcDbViewportTableRecord
  2
*ACTIVE
 70
     0
 10
0.0
 20
0.0
 11
1.0
 21
1.0
 12
210.0
 22
148.5
 13
0.0
 23
0.0
 14
10.0
 24
10.0
 15
10.0
 25
10.0
 16
0.0
 26
0.0
 36
1.0
 17
0.0
 27
0.0
 37
0.0
 40
341.0
 41
1.24
 42
50.0
 43
0.0
 44
0.0
 50
0.0
 51
0.0
 71
     0
 72
   100
 73
     1
 74
     3
 75
     0
 76
     0
 77
     0
 78
     0
  0
ENDTAB
  0
TABLE
  2
LTYPE
  5
5
330
0
100
AcDbSymbolTable
 70
     1
  0
LTYPE
  5
14
330
5
100
AcDbSymbolTableRecord
100
AcDbLinetypeTableRecord
  2
BYBLOCK
 70
     0
  3

 72
    65
 73
     0
 40
0.0
  0
LTYPE
  5
15
330
5
100
AcDbSymbolTableRecord
100
AcDbLinetypeTableRecord
  2
BYLAYER
 70
     0
  3

 72
    65
 73
     0
 40
0.0
  0
LTYPE
  5
16
330
5
100
AcDbSymbolTableRecord
100
AcDbLinetypeTableRecord
  2
CONTINUOUS
 70
     0
  3
Solid line
 72
    65
 73
     0
 40
0.0
  0
ENDTAB
  0
TABLE
  2
LAYER
  5
2
100
AcDbSymbolTable
 70
2
  0
LAYER
  5
50
100
AcDbSymbolTableRecord
100
AcDbLayerTableRecord
  2
0
 70
0
  6
CONTINUOUS
  0
LAYER
  5
51
100
AcDbSymbolTableRecord
100
AcDbLayerTableRecord
  2
Layer_1
 70
0
  6
CONTINUOUS
  0
ENDTAB
  0
TABLE
  2
STYLE
  5
3
330
0
100
AcDbSymbolTable
 70
     1
  0
STYLE
  5
11
330
3
100
AcDbSymbolTableRecord
100
AcDbTextStyleTableRecord
  2
STANDARD
 70
     0
 40
0.0
 41
1.0
 50
0.0
 71
     0
 42
2.5
  3
txt
  4

  0
ENDTAB
  0
TABLE
  2
VIEW
  5
6
330
0
100
AcDbSymbolTable
 70
     0
  0
ENDTAB
  0
TABLE
  2
UCS
  5
7
330
0
100
AcDbSymbolTable
 70
     0
  0
ENDTAB
  0
TABLE
  2
APPID
  5
9
330
0
100
AcDbSymbolTable
 70
     2
  0
APPID
  5
12
330
9
100
AcDbSymbolTableRecord
100
AcDbRegAppTableRecord
  2
ACAD
 70
     0
  0
ENDTAB
  0
TABLE
  2
DIMSTYLE
  5
A
330
0
100
AcDbSymbolTable
 70
     1
  0
DIMSTYLE
105
27
330
A
100
AcDbSymbolTableRecord
100
AcDbDimStyleTableRecord
  2
ISO-25
 70
     0
  3

  4

  5

  6

  7

 40
1.0
 41
2.5
 42
0.625
 43
3.75
 44
1.25
 45
0.0
 46
0.0
 47
0.0
 48
0.0
140
2.5
141
2.5
142
0.0
143
0.03937007874016
144
1.0
145
0.0
146
1.0
147
0.625
 71
     0
 72
     0
 73
     0
 74
     0
 75
     0
 76
     0
 77
     1
 78
     8
170
     0
171
     3
172
     1
173
     0
174
     0
175
     0
176
     0
177
     0
178
     0
270
     2
271
     2
272
     2
273
     2
274
     3
340
11
275
     0
280
     0
281
     0
282
     0
283
     0
284
     8
285
     0
286
     0
287
     3
288
     0
  0
ENDTAB
  0
TABLE
  2
BLOCK_RECORD
  5
1
330
0
100
AcDbSymbolTable
 70
     1
  0
BLOCK_RECORD
  5
1F
330
1
100
AcDbSymbolTableRecord
100
AcDbBlockTableRecord
  2
*MODEL_SPACE
  0
BLOCK_RECORD
  5
1B
330
1
100
AcDbSymbolTableRecord
100
AcDbBlockTableRecord
  2
*PAPER_SPACE
  0
ENDTAB
  0
ENDSEC
  0
SECTION
  2
BLOCKS
  0
BLOCK
  5
20
330
1F
100
AcDbEntity
  8
0
100
AcDbBlockBegin
  2
*MODEL_SPACE
 70
     0
 10
0.0
 20
0.0
 30
0.0
  3
*MODEL_SPACE
  1

  0
ENDBLK
  5
21
330
1F
100
AcDbEntity
  8
0
100
AcDbBlockEnd
  0
BLOCK
  5
1C
330
1B
100
AcDbEntity
 67
     1
  8
0
100
AcDbBlockBegin
  2
*PAPER_SPACE
  1

  0
ENDBLK
  5
1D
330
1B
100
AcDbEntity
 67
     1
  8
0
100
AcDbBlockEnd
  0
ENDSEC
  0
SECTION
  2
ENTITIES
  0
LWPOLYLINE
  5
100
100
AcDbEntity
  8
Layer_1
 62
7
100
AcDbPolyline
 90
29
 70
0
 10
-59.267973
 20
4.486940
 30
0.0
 10
-59.975984
 20
4.359629
 30
0.0
 10
-60.409726
 20
4.049834
 30
0.0
 10
-60.679228
 20
3.624553
 30
0.0
 10
-60.894533
 20
3.150730
 30
0.0
 10
-61.027640
 20
2.626841
 30
0.0
 10
-61.012852
 20
2.069791
 30
0.0
 10
-60.938904
 20
1.499420
 30
0.0
 10
-60.894536
 20
0.935709
 30
0.0
 10
-61.021358
 20
-0.073376
 30
0.0
 10
-61.232725
 20
-1.117458
 30
0.0
 10
-61.275000
 20
-2.091491
 30
0.0
 10
-60.894536
 20
-2.890434
 30
0.0
 10
-60.505507
 20
-3.122449
 30
0.0
 10
-60.020240
 20
-3.200540
 30
0.0
 10
-59.535746
 20
-3.123606
 30
0.0
 10
-59.149048
 20
-2.890434
 30
0.0
 10
-58.864345
 20
-2.182226
 30
0.0
 10
-58.982884
 20
-1.321561
 30
0.0
 10
-59.201293
 20
-0.406258
 30
0.0
 10
-59.216194
 20
0.465866
 30
0.0
 10
-58.767277
 20
0.921288
 30
0.0
 10
-58.040019
 20
0.989106
 30
0.0
 10
-57.343455
 20
1.420567
 30
0.0
 10
-56.986624
 20
2.966919
 30
0.0
 10
-57.244931
 20
4.143560
 30
0.0
 10
-57.925033
 20
4.563506
 30
0.0
 10
-58.706264
 20
4.566329
 30
0.0
 10
-59.267973
 20
4.486940
 30
0.0
  0
LWPOLYLINE
  5
101
100
AcDbEntity
  8
Layer_1
 62
7
100
AcDbPolyline
 90
17
 70
0
 10
-58.947857
 20
3.419434
 30
0.0
 10
-58.634280
 20
3.361381
 30
0.0
 10
-58.378155
 20
3.203054
 30
0.0
 10
-58.205441
 20
2.968302
 30
0.0
 10
-58.142101
 20
2.680858
 30
0.0
 10
-58.205441
 20
2.393472
 30
0.0
 10
-58.378155
 20
2.158832
 30
0.0
 10
-58.634280
 20
2.000618
 30
0.0
 10
-58.947857
 20
1.942622
 30
0.0
 10
-59.261378
 20
2.000618
 30
0.0
 10
-59.517379
 20
2.158832
 30
0.0
 10
-59.689969
 20
2.393472
 30
0.0
 10
-59.753252
 20
2.680858
 30
0.0
 10
-59.689969
 20
2.968302
 30
0.0
 10
-59.517379
 20
3.203054
 30
0.0
 10
-59.261378
 20
3.361381
 30
0.0
 10
-58.947857
 20
3.419434
 30
0.0
  0
LWPOLYLINE
  5
102
100
AcDbEntity
  8
Layer_1
 62
7
100
AcDbPolyline
 90
33
 70
0
 10
-53.310426
 20
4.224529
 30
0.0
 10
-54.289051
 20
4.179092
 30
0.0
 10
-55.017162
 20
3.972025
 30
0.0
 10
-55.551951
 20
3.585889
 30
0.0
 10
-55.950606
 20
3.003156
 30
0.0
 10
-56.394054
 20
1.708434
 30
0.0
 10
-56.566954
 20
0.180652
 30
0.0
 10
-56.382409
 20
-1.285436
 30
0.0
 10
-55.753528
 20
-2.395049
 30
0.0
 10
-55.293398
 20
-2.647469
 30
0.0
 10
-54.728011
 20
-2.709191
 30
0.0
 10
-54.163186
 20
-2.594129
 30
0.0
 10
-53.704741
 20
-2.316168
 30
0.0
 10
-53.616493
 20
-1.724546
 30
0.0
 10
-53.937947
 20
-0.958990
 30
0.0
 10
-54.221620
 20
-0.261252
 30
0.0
 10
-54.020020
 20
0.126945
 30
0.0
 10
-53.388412
 20
-0.106763
 30
0.0
 10
-52.895319
 20
-0.901191
 30
0.0
 10
-52.412883
 20
-1.821856
 30
0.0
 10
-51.813243
 20
-2.434278
 30
0.0
 10
-51.383743
 20
-2.560403
 30
0.0
 10
-50.905842
 20
-2.584392
 30
0.0
 10
-50.477832
 20
-2.474269
 30
0.0
 10
-50.198014
 20
-2.198199
 30
0.0
 10
-50.308329
 20
-1.315775
 30
0.0
 10
-51.084122
 20
-0.474047
 30
0.0
 10
-51.899515
 20
0.382328
 30
0.0
 10
-52.128651
 20
1.308750
 30
0.0
 10
-51.783649
 20
2.284280
 30
0.0
 10
-51.569281
 20
3.210900
 30
0.0
 10
-51.930043
 20
3.915383
 30
0.0
 10
-53.310426
 20
4.224529
 30
0.0
  0
LWPOLYLINE
  5
103
100
AcDbEntity
  8
Layer_1
 62
7
100
AcDbPolyline
 90
17
 70
0
 10
-53.862055
 20
2.845422
 30
0.0
 10
-53.662710
 20
2.803653
 30
0.0
 10
-53.499972
 20
2.689692
 30
0.0
 10
-53.390278
 20
2.520669
 30
0.0
 10
-53.350061
 20
2.313631
 30
0.0
 10
-53.390278
 20
2.106593
 30
0.0
 10
-53.499972
 20
1.937570
 30
0.0
 10
-53.662710
 20
1.823608
 30
0.0
 10
-53.862055
 20
1.781840
 30
0.0
 10
-54.061467
 20
1.823608
 30
0.0
 10
-54.224346
 20
1.937570
 30
0.0
 10
-54.334184
 20
2.106593
 30
0.0
 10
-54.374466
 20
2.313631
 30
0.0
 10
-54.334184
 20
2.520669
 30
0.0
 10
-54.224346
 20
2.689692
 30
0.0
 10
-54.061467
 20
2.803653
 30
0.0
 10
-53.862055
 20
2.845422
 30
0.0
  0
LWPOLYLINE
  5
104
100
AcDbEntity
  8
Layer_1
 62
7
100
AcDbPolyline
 90
49
 70
0
 10
-44.914924
 20
3.323422
 30
0.0
 10
-45.780068
 20
3.976061
 30
0.0
 10
-46.922354
 20
4.281228
 30
0.0
 10
-48.095956
 20
4.207652
 30
0.0
 10
-49.055043
 20
3.724093
 30
0.0
 10
-49.824516
 20
2.507207
 30
0.0
 10
-50.076995
 20
0.950441
 30
0.0
 10
-49.818496
 20
-0.610643
 30
0.0
 10
-49.055043
 20
-1.840596
 30
0.0
 10
-48.047368
 20
-2.385792
 30
0.0
 10
-46.791982
 20
-2.539208
 30
0.0
 10
-45.599708
 20
-2.276544
 30
0.0
 10
-44.781388
 20
-1.573472
 30
0.0
 10
-44.727893
 20
-1.231137
 30
0.0
 10
-44.873520
 20
-0.869158
 30
0.0
 10
-45.140019
 20
-0.536560
 30
0.0
 10
-45.449140
 20
-0.282475
 30
0.0
 10
-45.970038
 20
-0.173452
 30
0.0
 10
-46.567942
 20
-0.273020
 30
0.0
 10
-47.140656
 20
-0.343943
 30
0.0
 10
-47.585980
 20
-0.148927
 30
0.0
 10
-47.690388
 20
0.067960
 30
0.0
 10
-47.704527
 20
0.328790
 30
0.0
 10
-47.637136
 20
0.584484
 30
0.0
 10
-47.496936
 20
0.785934
 30
0.0
 10
-47.269651
 20
0.841955
 30
0.0
 10
-46.990387
 20
0.770581
 30
0.0
 10
-46.719552
 20
0.706883
 30
0.0
 10
-46.517543
 20
0.785934
 30
0.0
 10
-46.439878
 20
1.014647
 30
0.0
 10
-46.479099
 20
1.279653
 30
0.0
 10
-46.604321
 20
1.531537
 30
0.0
 10
-46.784666
 20
1.720823
 30
0.0
 10
-46.995430
 20
1.758048
 30
0.0
 10
-47.239696
 20
1.686618
 30
0.0
 10
-47.479037
 20
1.621170
 30
0.0
 10
-47.675018
 20
1.676288
 30
0.0
 10
-47.766478
 20
1.824568
 30
0.0
 10
-47.797951
 20
2.012330
 30
0.0
 10
-47.767957
 20
2.198992
 30
0.0
 10
-47.675018
 20
2.344054
 30
0.0
 10
-47.094459
 20
2.463547
 30
0.0
 10
-46.398205
 20
2.205427
 30
0.0
 10
-45.694854
 20
1.938670
 30
0.0
 10
-45.093001
 20
2.032425
 30
0.0
 10
-44.882170
 20
2.298109
 30
0.0
 10
-44.773969
 20
2.649560
 30
0.0
 10
-44.780770
 20
3.015207
 30
0.0
 10
-44.914924
 20
3.323422
 30
0.0
  0
LWPOLYLINE
  5
105
100
AcDbEntity
  8
Layer_1
 62
7
100
AcDbPolyline
 90
37
 70
0
 10
-40.897449
 20
4.020511
 30
0.0
 10
-41.667111
 20
4.065695
 30
0.0
 10
-42.457576
 20
3.971432
 30
0.0
 10
-43.177223
 20
3.704676
 30
0.0
 10
-43.734423
 20
3.232434
 30
0.0
 10
-43.870623
 20
2.945837
 30
0.0
 10
-43.906886
 20
2.614000
 30
0.0
 10
-43.856916
 20
2.276180
 30
0.0
 10
-43.734423
 20
1.971578
 30
0.0
 10
-43.164371
 20
1.358422
 30
0.0
 10
-42.440011
 20
0.868794
 30
0.0
 10
-41.820346
 20
0.352666
 30
0.0
 10
-41.564368
 20
-0.340105
 30
0.0
 10
-41.937587
 20
-0.909093
 30
0.0
 10
-42.765870
 20
-1.013938
 30
0.0
 10
-43.654125
 20
-1.110176
 30
0.0
 10
-44.207252
 20
-1.653426
 30
0.0
 10
-44.215973
 20
-2.028443
 30
0.0
 10
-44.075082
 20
-2.409979
 30
0.0
 10
-43.822956
 20
-2.728438
 30
0.0
 10
-43.497985
 20
-2.914282
 30
0.0
 10
-42.156741
 20
-2.945975
 30
0.0
 10
-40.778359
 20
-2.450167
 30
0.0
 10
-39.656535
 20
-1.556003
 30
0.0
 10
-39.084950
 20
-0.392542
 30
0.0
 10
-39.382333
 20
0.356025
 30
0.0
 10
-40.193759
 20
0.959896
 30
0.0
 10
-40.986239
 20
1.559928
 30
0.0
 10
-41.226780
 20
2.296923
 30
0.0
 10
-40.848418
 20
2.616596
 30
0.0
 10
-40.194521
 20
2.639456
 30
0.0
 10
-39.560698
 20
2.665703
 30
0.0
 10
-39.242551
 20
2.996044
 30
0.0
 10
-39.381949
 20
3.415398
 30
0.0
 10
-39.803493
 20
3.715852
 30
0.0
 10
-40.358289
 20
3.912504
 30
0.0
 10
-40.897449
 20
4.020511
 30
0.0
  0
LWPOLYLINE
  5
106
100
AcDbEntity
  8
Layer_1
 62
7
100
AcDbPolyline
 90
41
 70
0
 10
-20.258606
 20
-2.205057
 30
0.0
 10
-21.000466
 20
-0.886289
 30
0.0
 10
-21.235549
 20
0.731691
 30
0.0
 10
-20.962460
 20
2.339172
 30
0.0
 10
-20.179805
 20
3.626472
 30
0.0
 10
-19.696287
 20
3.907255
 30
0.0
 10
-19.099242
 20
3.987801
 30
0.0
 10
-18.490849
 20
3.887697
 30
0.0
 10
-17.973287
 20
3.626472
 30
0.0
 10
-17.559193
 20
2.695760
 30
0.0
 10
-17.561733
 20
1.424716
 30
0.0
 10
-17.513930
 20
0.308922
 30
0.0
 10
-16.948839
 20
-0.156124
 30
0.0
 10
-16.392201
 20
0.374821
 30
0.0
 10
-16.419743
 20
1.567887
 30
0.0
 10
-16.495119
 20
2.903701
 30
0.0
 10
-16.081981
 20
3.862890
 30
0.0
 10
-15.758862
 20
3.997115
 30
0.0
 10
-15.383034
 20
4.011508
 30
0.0
 10
-15.021765
 20
3.912222
 30
0.0
 10
-14.742321
 20
3.705184
 30
0.0
 10
-14.010823
 20
2.232040
 30
0.0
 10
-13.836472
 20
0.463777
 30
0.0
 10
-14.213546
 20
-1.259895
 30
0.0
 10
-15.136323
 20
-2.599152
 30
0.0
 10
-15.796555
 20
-2.918120
 30
0.0
 10
-16.587092
 20
-2.951253
 30
0.0
 10
-17.381188
 20
-2.749238
 30
0.0
 10
-18.052098
 20
-2.362735
 30
0.0
 10
-18.411334
 20
-1.532663
 30
0.0
 10
-18.436277
 20
-0.411422
 30
0.0
 10
-18.505538
 20
0.541896
 30
0.0
 10
-18.997730
 20
0.868230
 30
0.0
 10
-19.305834
 20
0.406091
 30
0.0
 10
-19.028201
 20
-0.495383
 30
0.0
 10
-18.695931
 20
-1.503086
 30
0.0
 10
-18.840129
 20
-2.283938
 30
0.0
 10
-19.157983
 20
-2.461174
 30
0.0
 10
-19.554123
 20
-2.499584
 30
0.0
 10
-19.947887
 20
-2.410459
 30
0.0
 10
-20.258606
 20
-2.205057
 30
0.0
  0
LWPOLYLINE
  5
107
100
AcDbEntity
  8
Layer_1
 62
7
100
AcDbPolyline
 90
33
 70
0
 10
-12.446882
 20
2.777350
 30
0.0
 10
-11.113481
 20
3.505879
 30
0.0
 10
-9.535542
 20
3.865063
 30
0.0
 10
-7.994527
 20
3.745626
 30
0.0
 10
-6.771895
 20
3.038265
 30
0.0
 10
-6.513955
 20
2.519597
 30
0.0
 10
-6.497995
 20
1.884681
 30
0.0
 10
-6.684213
 20
1.255806
 30
0.0
 10
-7.032804
 20
0.755228
 30
0.0
 10
-7.502871
 20
0.601614
 30
0.0
 10
-8.081173
 20
0.694804
 30
0.0
 10
-8.657129
 20
0.785595
 30
0.0
 10
-9.120160
 20
0.624785
 30
0.0
 10
-9.352425
 20
-0.079106
 30
0.0
 10
-9.201252
 20
-0.958566
 30
0.0
 10
-9.058452
 20
-1.829137
 30
0.0
 10
-9.315836
 20
-2.506273
 30
0.0
 10
-9.799358
 20
-2.755447
 30
0.0
 10
-10.387119
 20
-2.813952
 30
0.0
 10
-10.961077
 20
-2.685992
 30
0.0
 10
-11.403191
 20
-2.375802
 30
0.0
 10
-11.529508
 20
-1.686107
 30
0.0
 10
-11.226733
 20
-0.863683
 30
0.0
 10
-10.930650
 20
-0.047186
 30
0.0
 10
-11.077047
 20
0.624785
 30
0.0
 10
-11.528350
 20
0.748257
 30
0.0
 10
-12.105244
 20
0.577626
 30
0.0
 10
-12.673570
 20
0.414275
 30
0.0
 10
-13.099169
 20
0.559535
 30
0.0
 10
-13.281436
 20
1.096294
 30
0.0
 10
-13.177188
 20
1.718594
 30
0.0
 10
-12.870858
 20
2.315832
 30
0.0
 10
-12.446882
 20
2.777350
 30
0.0
  0
LWPOLYLINE
  5
108
100
AcDbEntity
  8
Layer_1
 62
7
100
AcDbPolyline
 90
49
 70
0
 10
-1.344016
 20
2.692994
 30
0.0
 10
-2.209156
 20
3.345633
 30
0.0
 10
-3.351438
 20
3.650800
 30
0.0
 10
-4.525039
 20
3.577224
 30
0.0
 10
-5.484136
 20
3.093665
 30
0.0
 10
-6.253623
 20
1.876779
 30
0.0
 10
-6.506100
 20
0.320041
 30
0.0
 10
-6.247595
 20
-1.241071
 30
0.0
 10
-5.484136
 20
-2.471024
 30
0.0
 10
-4.476462
 20
-3.016220
 30
0.0
 10
-3.221069
 20
-3.169636
 30
0.0
 10
-2.028790
 20
-2.906972
 30
0.0
 10
-1.210456
 20
-2.203900
 30
0.0
 10
-1.156961
 20
-1.861565
 30
0.0
 10
-1.302590
 20
-1.499586
 30
0.0
 10
-1.569096
 20
-1.166988
 30
0.0
 10
-1.878233
 20
-0.912903
 30
0.0
 10
-2.399130
 20
-0.803880
 30
0.0
 10
-2.997031
 20
-0.903477
 30
0.0
 10
-3.569737
 20
-0.974371
 30
0.0
 10
-4.015047
 20
-0.779355
 30
0.0
 10
-4.119455
 20
-0.562468
 30
0.0
 10
-4.133609
 20
-0.301638
 30
0.0
 10
-4.066227
 20
-0.045944
 30
0.0
 10
-3.926032
 20
0.155506
 30
0.0
 10
-3.698743
 20
0.211527
 30
0.0
 10
-3.419474
 20
0.140125
 30
0.0
 10
-3.148636
 20
0.076427
 30
0.0
 10
-2.946640
 20
0.155506
 30
0.0
 10
-2.868992
 20
0.384219
 30
0.0
 10
-2.908207
 20
0.649225
 30
0.0
 10
-3.033411
 20
0.901109
 30
0.0
 10
-3.213735
 20
1.090395
 30
0.0
 10
-3.424495
 20
1.127620
 30
0.0
 10
-3.668769
 20
1.056190
 30
0.0
 10
-3.908114
 20
0.990742
 30
0.0
 10
-4.104087
 20
1.045860
 30
0.0
 10
-4.195546
 20
1.194168
 30
0.0
 10
-4.227026
 20
1.381902
 30
0.0
 10
-4.197036
 20
1.568564
 30
0.0
 10
-4.104087
 20
1.713626
 30
0.0
 10
-3.523526
 20
1.833091
 30
0.0
 10
-2.827280
 20
1.574971
 30
0.0
 10
-2.123934
 20
1.308242
 30
0.0
 10
-1.522071
 20
1.401997
 30
0.0
 10
-1.311240
 20
1.667681
 30
0.0
 10
-1.203044
 20
2.019132
 30
0.0
 10
-1.209847
 20
2.384779
 30
0.0
 10
-1.344016
 20
2.692994
 30
0.0
  0
LWPOLYLINE
  5
109
100
AcDbEntity
  8
Layer_1
 62
7
100
AcDbPolyline
 90
33
 70
0
 10
2.711584
 20
3.515277
 30
0.0
 10
1.732947
 20
3.469867
 30
0.0
 10
1.004837
 20
3.262801
 30
0.0
 10
0.470055
 20
2.876664
 30
0.0
 10
0.071404
 20
2.293932
 30
0.0
 10
-0.372048
 20
0.999209
 30
0.0
 10
-0.544950
 20
-0.528601
 30
0.0
 10
-0.360411
 20
-1.994689
 30
0.0
 10
0.268457
 20
-3.104302
 30
0.0
 10
0.728584
 20
-3.356722
 30
0.0
 10
1.293978
 20
-3.418444
 30
0.0
 10
1.858808
 20
-3.303382
 30
0.0
 10
2.317244
 20
-3.025421
 30
0.0
 10
2.405499
 20
-2.433770
 30
0.0
 10
2.084044
 20
-1.668214
 30
0.0
 10
1.800376
 20
-0.970476
 30
0.0
 10
2.001990
 20
-0.582308
 30
0.0
 10
2.633601
 20
-0.816044
 30
0.0
 10
3.126684
 20
-1.610443
 30
0.0
 10
3.609108
 20
-2.531109
 30
0.0
 10
4.208742
 20
-3.143503
 30
0.0
 10
4.638258
 20
-3.269628
 30
0.0
 10
5.116169
 20
-3.293617
 30
0.0
 10
5.544180
 20
-3.183465
 30
0.0
 10
5.823996
 20
-2.907396
 30
0.0
 10
5.713665
 20
-2.024971
 30
0.0
 10
4.937873
 20
-1.183244
 30
0.0
 10
4.122477
 20
-0.326868
 30
0.0
 10
3.893332
 20
0.599498
 30
0.0
 10
4.238340
 20
1.575055
 30
0.0
 10
4.452716
 20
2.501676
 30
0.0
 10
4.091963
 20
3.206130
 30
0.0
 10
2.711584
 20
3.515277
 30
0.0
  0
LWPOLYLINE
  5
10a
100
AcDbEntity
  8
Layer_1
 62
7
100
AcDbPolyline
 90
17
 70
0
 10
2.159955
 20
2.136198
 30
0.0
 10
2.359301
 20
2.094429
 30
0.0
 10
2.522039
 20
1.980468
 30
0.0
 10
2.631733
 20
1.811445
 30
0.0
 10
2.671950
 20
1.604406
 30
0.0
 10
2.631733
 20
1.397368
 30
0.0
 10
2.522039
 20
1.228317
 30
0.0
 10
2.359301
 20
1.114356
 30
0.0
 10
2.159955
 20
1.072587
 30
0.0
 10
1.960543
 20
1.114356
 30
0.0
 10
1.797663
 20
1.228317
 30
0.0
 10
1.687825
 20
1.397368
 30
0.0
 10
1.647544
 20
1.604406
 30
0.0
 10
1.687825
 20
1.811445
 30
0.0
 10
1.797663
 20
1.980468
 30
0.0
 10
1.960543
 20
2.094429
 30
0.0
 10
2.159955
 20
2.136198
 30
0.0
  0
LWPOLYLINE
  5
10b
100
AcDbEntity
  8
Layer_1
 62
7
100
AcDbPolyline
 90
33
 70
0
 10
13.538856
 20
2.383340
 30
0.0
 10
14.872257
 20
3.111868
 30
0.0
 10
16.450196
 20
3.471052
 30
0.0
 10
17.991211
 20
3.351616
 30
0.0
 10
19.213843
 20
2.644254
 30
0.0
 10
19.471792
 20
2.125586
 30
0.0
 10
19.487749
 20
1.490671
 30
0.0
 10
19.301526
 20
0.861767
 30
0.0
 10
18.952932
 20
0.361189
 30
0.0
 10
18.482865
 20
0.207576
 30
0.0
 10
17.904564
 20
0.300766
 30
0.0
 10
17.328608
 20
0.391585
 30
0.0
 10
16.865577
 20
0.230746
 30
0.0
 10
16.633325
 20
-0.473144
 30
0.0
 10
16.784494
 20
-1.352605
 30
0.0
 10
16.927279
 20
-2.223148
 30
0.0
 10
16.669875
 20
-2.900284
 30
0.0
 10
16.186353
 20
-3.149458
 30
0.0
 10
15.598598
 20
-3.207962
 30
0.0
 10
15.024643
 20
-3.080031
 30
0.0
 10
14.582519
 20
-2.769840
 30
0.0
 10
14.456192
 20
-2.080146
 30
0.0
 10
14.758971
 20
-1.257722
 30
0.0
 10
15.055067
 20
-0.441197
 30
0.0
 10
14.908689
 20
0.230746
 30
0.0
 10
14.457376
 20
0.354218
 30
0.0
 10
13.880477
 20
0.183615
 30
0.0
 10
13.312154
 20
0.020237
 30
0.0
 10
12.886567
 20
0.165525
 30
0.0
 10
12.704312
 20
0.702283
 30
0.0
 10
12.808552
 20
1.324583
 30
0.0
 10
13.114872
 20
1.921822
 30
0.0
 10
13.538856
 20
2.383340
 30
0.0
  0
LWPOLYLINE
  5
10c
100
AcDbEntity
  8
Layer_1
 62
7
100
AcDbPolyline
 90
17
 70
0
 10
22.353544
 20
3.460328
 30
0.0
 10
21.249245
 20
3.203901
 30
0.0
 10
20.347426
 20
2.504639
 30
0.0
 10
19.739383
 20
1.467557
 30
0.0
 10
19.516415
 20
0.197585
 30
0.0
 10
19.739383
 20
-1.072274
 30
0.0
 10
20.347426
 20
-2.109215
 30
0.0
 10
21.249245
 20
-2.808279
 30
0.0
 10
22.353544
 20
-3.064622
 30
0.0
 10
23.457762
 20
-2.808279
 30
0.0
 10
24.359402
 20
-2.109215
 30
0.0
 10
24.967266
 20
-1.072274
 30
0.0
 10
25.190153
 20
0.197585
 30
0.0
 10
24.967266
 20
1.467557
 30
0.0
 10
24.359402
 20
2.504639
 30
0.0
 10
23.457762
 20
3.203901
 30
0.0
 10
22.353544
 20
3.460328
 30
0.0
  0
LWPOLYLINE
  5
10d
100
AcDbEntity
  8
Layer_1
 62
7
100
AcDbPolyline
 90
17
 70
0
 10
22.258916
 20
0.859537
 30
0.0
 10
22.553395
 20
0.779697
 30
0.0
 10
22.793886
 20
0.561962
 30
0.0
 10
22.956038
 20
0.238959
 30
0.0
 10
23.015500
 20
-0.156660
 30
0.0
 10
22.956038
 20
-0.552392
 30
0.0
 10
22.793886
 20
-0.875565
 30
0.0
 10
22.553395
 20
-1.093497
 30
0.0
 10
22.258916
 20
-1.173394
 30
0.0
 10
21.964422
 20
-1.093497
 30
0.0
 10
21.723923
 20
-0.875565
 30
0.0
 10
21.561769
 20
-0.552392
 30
0.0
 10
21.502306
 20
-0.156660
 30
0.0
 10
21.561769
 20
0.238959
 30
0.0
 10
21.723923
 20
0.561962
 30
0.0
 10
21.964422
 20
0.779697
 30
0.0
 10
22.258916
 20
0.859537
 30
0.0
  0
LWPOLYLINE
  5
10e
100
AcDbEntity
  8
Layer_1
 62
7
100
AcDbPolyline
 90
33
 70
0
 10
32.164700
 20
3.515277
 30
0.0
 10
31.186064
 20
3.469867
 30
0.0
 10
30.457953
 20
3.262801
 30
0.0
 10
29.923170
 20
2.876664
 30
0.0
 10
29.524520
 20
2.293932
 30
0.0
 10
29.081070
 20
0.999209
 30
0.0
 10
28.908169
 20
-0.528601
 30
0.0
 10
29.092717
 20
-1.994689
 30
0.0
 10
29.721598
 20
-3.104302
 30
0.0
 10
30.181717
 20
-3.356722
 30
0.0
 10
30.747106
 20
-3.418444
 30
0.0
 10
31.311937
 20
-3.303382
 30
0.0
 10
31.770385
 20
-3.025421
 30
0.0
 10
31.858641
 20
-2.433770
 30
0.0
 10
31.537182
 20
-1.668214
 30
0.0
 10
31.253506
 20
-0.970476
 30
0.0
 10
31.455106
 20
-0.582308
 30
0.0
 10
32.086717
 20
-0.816016
 30
0.0
 10
32.579798
 20
-1.610443
 30
0.0
 10
33.062223
 20
-2.531109
 30
0.0
 10
33.661858
 20
-3.143503
 30
0.0
 10
34.091375
 20
-3.269628
 30
0.0
 10
34.569284
 20
-3.293617
 30
0.0
 10
34.997294
 20
-3.183465
 30
0.0
 10
35.277112
 20
-2.907396
 30
0.0
 10
35.166783
 20
-2.024971
 30
0.0
 10
34.390993
 20
-1.183244
 30
0.0
 10
33.575605
 20
-0.326868
 30
0.0
 10
33.346475
 20
0.599498
 30
0.0
 10
33.691489
 20
1.575055
 30
0.0
 10
33.905853
 20
2.501676
 30
0.0
 10
33.545086
 20
3.206130
 30
0.0
 10
32.164700
 20
3.515277
 30
0.0
  0
LWPOLYLINE
  5
10f
100
AcDbEntity
  8
Layer_1
 62
7
100
AcDbPolyline
 90
17
 70
0
 10
31.613071
 20
2.136198
 30
0.0
 10
31.812416
 20
2.094429
 30
0.0
 10
31.975154
 20
1.980468
 30
0.0
 10
32.084848
 20
1.811445
 30
0.0
 10
32.125065
 20
1.604406
 30
0.0
 10
32.084848
 20
1.397368
 30
0.0
 10
31.975154
 20
1.228317
 30
0.0
 10
31.812416
 20
1.114356
 30
0.0
 10
31.613071
 20
1.072587
 30
0.0
 10
31.413659
 20
1.114356
 30
0.0
 10
31.250777
 20
1.228317
 30
0.0
 10
31.140939
 20
1.397368
 30
0.0
 10
31.100657
 20
1.604406
 30
0.0
 10
31.140939
 20
1.811445
 30
0.0
 10
31.250777
 20
1.980468
 30
0.0
 10
31.413659
 20
2.094429
 30
0.0
 10
31.613071
 20
2.136198
 30
0.0
  0
LWPOLYLINE
  5
110
100
AcDbEntity
  8
Layer_1
 62
7
100
AcDbPolyline
 90
49
 70
0
 10
40.560202
 20
2.614198
 30
0.0
 10
39.695058
 20
3.266836
 30
0.0
 10
38.552769
 20
3.572003
 30
0.0
 10
37.379168
 20
3.498428
 30
0.0
 10
36.420084
 20
3.014868
 30
0.0
 10
35.650596
 20
1.797954
 30
0.0
 10
35.398120
 20
0.241217
 30
0.0
 10
35.656624
 20
-1.319896
 30
0.0
 10
36.420084
 20
-2.549820
 30
0.0
 10
37.427761
 20
-3.095017
 30
0.0
 10
38.683150
 20
-3.248433
 30
0.0
 10
39.875418
 20
-2.985769
 30
0.0
 10
40.693735
 20
-2.282697
 30
0.0
 10
40.747225
 20
-1.940361
 30
0.0
 10
40.601601
 20
-1.578383
 30
0.0
 10
40.335107
 20
-1.245812
 30
0.0
 10
40.025986
 20
-0.991728
 30
0.0
 10
39.505080
 20
-0.882705
 30
0.0
 10
38.907178
 20
-0.982273
 30
0.0
 10
38.334467
 20
-1.053167
 30
0.0
 10
37.889146
 20
-0.858152
 30
0.0
 10
37.784735
 20
-0.641264
 30
0.0
 10
37.770596
 20
-0.380434
 30
0.0
 10
37.837988
 20
-0.124741
 30
0.0
 10
37.978199
 20
0.076709
 30
0.0
 10
38.205478
 20
0.132702
 30
0.0
 10
38.484737
 20
0.061328
 30
0.0
 10
38.755568
 20
-0.002369
 30
0.0
 10
38.957563
 20
0.076709
 30
0.0
 10
39.035208
 20
0.305394
 30
0.0
 10
38.995993
 20
0.570429
 30
0.0
 10
38.870791
 20
0.822312
 30
0.0
 10
38.690468
 20
1.011570
 30
0.0
 10
38.479699
 20
1.048796
 30
0.0
 10
38.235427
 20
0.977365
 30
0.0
 10
37.996086
 20
0.911918
 30
0.0
 10
37.800116
 20
0.967064
 30
0.0
 10
37.708665
 20
1.115372
 30
0.0
 10
37.677192
 20
1.303106
 30
0.0
 10
37.707181
 20
1.489768
 30
0.0
 10
37.800116
 20
1.634802
 30
0.0
 10
38.380698
 20
1.754295
 30
0.0
 10
39.076949
 20
1.496146
 30
0.0
 10
39.780286
 20
1.229446
 30
0.0
 10
40.382134
 20
1.323200
 30
0.0
 10
40.592965
 20
1.588884
 30
0.0
 10
40.701169
 20
1.940336
 30
0.0
 10
40.694367
 20
2.305983
 30
0.0
 10
40.560202
 20
2.614198
 30
0.0
  0
LWPOLYLINE
  5
111
100
AcDbEntity
  8
Layer_1
 62
7
100
AcDbPolyline
 90
37
 70
0
 10
44.577649
 20
3.311258
 30
0.0
 10
43.807992
 20
3.356470
 30
0.0
 10
43.017536
 20
3.262180
 30
0.0
 10
42.297898
 20
2.995423
 30
0.0
 10
41.740701
 20
2.523209
 30
0.0
 10
41.604486
 20
2.236584
 30
0.0
 10
41.568229
 20
1.904776
 30
0.0
 10
41.618205
 20
1.566956
 30
0.0
 10
41.740701
 20
1.262353
 30
0.0
 10
42.414975
 20
0.739480
 30
0.0
 10
43.368584
 20
0.448565
 30
0.0
 10
44.217488
 20
0.131094
 30
0.0
 10
44.577649
 20
-0.471366
 30
0.0
 10
44.100214
 20
-1.130637
 30
0.0
 10
43.042688
 20
-1.434167
 30
0.0
 10
41.925198
 20
-1.729118
 30
0.0
 10
41.267874
 20
-2.362650
 30
0.0
 10
41.259153
 20
-2.737667
 30
0.0
 10
41.400044
 20
-3.119203
 30
0.0
 10
41.652170
 20
-3.437691
 30
0.0
 10
41.977141
 20
-3.623534
 30
0.0
 10
43.318368
 20
-3.655256
 30
0.0
 10
44.696744
 20
-3.159448
 30
0.0
 10
45.818577
 20
-2.265255
 30
0.0
 10
46.390176
 20
-1.101794
 30
0.0
 10
46.058066
 20
-0.367113
 30
0.0
 10
45.170217
 20
0.206193
 30
0.0
 10
44.301314
 20
0.775661
 30
0.0
 10
44.026032
 20
1.498771
 30
0.0
 10
44.439129
 20
1.832357
 30
0.0
 10
45.169447
 20
1.885754
 30
0.0
 10
45.879693
 20
1.942650
 30
0.0
 10
46.232575
 20
2.286820
 30
0.0
 10
46.093182
 20
2.706174
 30
0.0
 10
45.671633
 20
3.006599
 30
0.0
 10
45.116826
 20
3.203252
 30
0.0
 10
44.577649
 20
3.311258
 30
0.0
  0
LWPOLYLINE
  5
112
100
AcDbEntity
  8
Layer_1
 62
7
100
AcDbPolyline
 90
33
 70
0
 10
47.582334
 20
2.383340
 30
0.0
 10
48.915735
 20
3.111868
 30
0.0
 10
50.493668
 20
3.471052
 30
0.0
 10
52.034680
 20
3.351616
 30
0.0
 10
53.257315
 20
2.644254
 30
0.0
 10
53.515263
 20
2.125586
 30
0.0
 10
53.531208
 20
1.490671
 30
0.0
 10
53.344984
 20
0.861767
 30
0.0
 10
52.996386
 20
0.361189
 30
0.0
 10
52.526325
 20
0.207576
 30
0.0
 10
51.948026
 20
0.300794
 30
0.0
 10
51.372067
 20
0.391585
 30
0.0
 10
50.909031
 20
0.230746
 30
0.0
 10
50.676773
 20
-0.473144
 30
0.0
 10
50.827943
 20
-1.352605
 30
0.0
 10
50.970733
 20
-2.223148
 30
0.0
 10
50.713344
 20
-2.900284
 30
0.0
 10
50.229815
 20
-3.149486
 30
0.0
 10
49.642054
 20
-3.207962
 30
0.0
 10
49.068101
 20
-3.080031
 30
0.0
 10
48.625989
 20
-2.769840
 30
0.0
 10
48.499666
 20
-2.080146
 30
0.0
 10
48.802442
 20
-1.257722
 30
0.0
 10
49.098527
 20
-0.441197
 30
0.0
 10
48.952133
 20
0.230746
 30
0.0
 10
48.500826
 20
0.354218
 30
0.0
 10
47.923930
 20
0.183587
 30
0.0
 10
47.355608
 20
0.020237
 30
0.0
 10
46.930011
 20
0.165525
 30
0.0
 10
46.747755
 20
0.702283
 30
0.0
 10
46.852005
 20
1.324583
 30
0.0
 10
47.158334
 20
1.921822
 30
0.0
 10
47.582334
 20
2.383340
 30
0.0
  0
LWPOLYLINE
  5
113
100
AcDbEntity
  8
Layer_1
 62
7
100
AcDbPolyline
 90
33
 70
0
 10
57.020542
 20
2.895686
 30
0.0
 10
56.553094
 20
3.065076
 30
0.0
 10
56.023569
 20
3.057174
 30
0.0
 10
55.507004
 20
2.899129
 30
0.0
 10
55.078441
 20
2.618036
 30
0.0
 10
54.144297
 20
1.430078
 30
0.0
 10
53.511128
 20
-0.054580
 30
0.0
 10
53.361071
 20
-1.566925
 30
0.0
 10
53.876265
 20
-2.838054
 30
0.0
 10
54.191515
 20
-3.028525
 30
0.0
 10
54.599134
 20
-3.056748
 30
0.0
 10
55.015277
 20
-2.952466
 30
0.0
 10
55.356102
 20
-2.745541
 30
0.0
 10
55.551733
 20
-2.326300
 30
0.0
 10
55.539287
 20
-1.795440
 30
0.0
 10
55.516173
 20
-1.254110
 30
0.0
 10
55.679783
 20
-0.803429
 30
0.0
 10
55.862748
 20
-0.644312
 30
0.0
 10
56.089880
 20
-0.529899
 30
0.0
 10
56.331592
 20
-0.482966
 30
0.0
 10
56.558282
 20
-0.526287
 30
0.0
 10
56.981494
 20
-1.023393
 30
0.0
 10
57.139180
 20
-1.773991
 30
0.0
 10
57.283821
 20
-2.548127
 30
0.0
 10
57.667903
 20
-3.115760
 30
0.0
 10
57.928914
 20
-3.237878
 30
0.0
 10
58.230581
 20
-3.295056
 30
0.0
 10
58.516811
 20
-3.262572
 30
0.0
 10
58.731508
 20
-3.115760
 30
0.0
 10
59.239554
 20
-1.634602
 30
0.0
 10
59.002120
 20
0.088026
 30
0.0
 10
58.201639
 20
1.711594
 30
0.0
 10
57.020542
 20
2.895686
 30
0.0
  0
LWPOLYLINE
  5
114
100
AcDbEntity
  8
Layer_1
 62
7
100
AcDbPolyline
 90
17
 70
0
 10
55.587231
 20
1.600963
 30
0.0
 10
55.715851
 20
1.679026
 30
0.0
 10
55.877751
 20
1.699346
 30
0.0
 10
56.044727
 20
1.670418
 30
0.0
 10
56.188576
 20
1.601104
 30
0.0
 10
56.454675
 20
1.340980
 30
0.0
 10
56.655775
 20
0.997544
 30
0.0
 10
56.738842
 20
0.632207
 30
0.0
 10
56.650836
 20
0.306382
 30
0.0
 10
56.457096
 20
0.155224
 30
0.0
 10
56.188497
 20
0.101376
 30
0.0
 10
55.908304
 20
0.138403
 30
0.0
 10
55.679786
 20
0.259843
 30
0.0
 10
55.481056
 20
0.549008
 30
0.0
 10
55.393268
 20
0.919312
 30
0.0
 10
55.425600
 20
1.295204
 30
0.0
 10
55.587231
 20
1.600963
 30
0.0
  0
LWPOLYLINE
  5
115
100
AcDbEntity
  8
Layer_1
 62
7
100
AcDbPolyline
 90
49
 70
0
 10
-21.754334
 20
3.323422
 30
0.0
 10
-22.619473
 20
3.976061
 30
0.0
 10
-23.761755
 20
4.281228
 30
0.0
 10
-24.935357
 20
4.207652
 30
0.0
 10
-25.894454
 20
3.724093
 30
0.0
 10
-26.663935
 20
2.507207
 30
0.0
 10
-26.916412
 20
0.950469
 30
0.0
 10
-26.657910
 20
-0.610643
 30
0.0
 10
-25.894454
 20
-1.840596
 30
0.0
 10
-24.886780
 20
-2.385792
 30
0.0
 10
-23.631387
 20
-2.539208
 30
0.0
 10
-22.439108
 20
-2.276544
 30
0.0
 10
-21.620773
 20
-1.573472
 30
0.0
 10
-21.567282
 20
-1.231137
 30
0.0
 10
-21.712917
 20
-0.869158
 30
0.0
 10
-21.979424
 20
-0.536560
 30
0.0
 10
-22.288550
 20
-0.282475
 30
0.0
 10
-22.809448
 20
-0.173452
 30
0.0
 10
-23.407352
 20
-0.273020
 30
0.0
 10
-23.980065
 20
-0.343943
 30
0.0
 10
-24.425390
 20
-0.148927
 30
0.0
 10
-24.529797
 20
0.067960
 30
0.0
 10
-24.543942
 20
0.328790
 30
0.0
 10
-24.476550
 20
0.584484
 30
0.0
 10
-24.336350
 20
0.785934
 30
0.0
 10
-24.109061
 20
0.841955
 30
0.0
 10
-23.829792
 20
0.770581
 30
0.0
 10
-23.558954
 20
0.706883
 30
0.0
 10
-23.356958
 20
0.785934
 30
0.0
 10
-23.279300
 20
1.014647
 30
0.0
 10
-23.318518
 20
1.279682
 30
0.0
 10
-23.443736
 20
1.531565
 30
0.0
 10
-23.624079
 20
1.720823
 30
0.0
 10
-23.834844
 20
1.758048
 30
0.0
 10
-24.079107
 20
1.686618
 30
0.0
 10
-24.318439
 20
1.621170
 30
0.0
 10
-24.514405
 20
1.676288
 30
0.0
 10
-24.605870
 20
1.824596
 30
0.0
 10
-24.637349
 20
2.012330
 30
0.0
 10
-24.607356
 20
2.198992
 30
0.0
 10
-24.514405
 20
2.344054
 30
0.0
 10
-23.933839
 20
2.463519
 30
0.0
 10
-23.237596
 20
2.205399
 30
0.0
 10
-22.534261
 20
1.938670
 30
0.0
 10
-21.932415
 20
2.032425
 30
0.0
 10
-21.721576
 20
2.298109
 30
0.0
 10
-21.613372
 20
2.649560
 30
0.0
 10
-21.620168
 20
3.015207
 30
0.0
 10
-21.754334
 20
3.323422
 30
0.0
  0
LWPOLYLINE
  5
116
100
AcDbEntity
  8
Layer_1
 62
7
100
AcDbPolyline
 90
33
 70
0
 10
63.056000
 20
3.357656
 30
0.0
 10
62.077366
 20
3.312218
 30
0.0
 10
61.349255
 20
3.105180
 30
0.0
 10
60.814466
 20
2.719043
 30
0.0
 10
60.415811
 20
2.136339
 30
0.0
 10
59.972349
 20
0.841616
 30
0.0
 10
59.799451
 20
-0.686194
 30
0.0
 10
59.984002
 20
-2.152282
 30
0.0
 10
60.612884
 20
-3.261895
 30
0.0
 10
61.073022
 20
-3.514314
 30
0.0
 10
61.638411
 20
-3.576036
 30
0.0
 10
62.203234
 20
-3.460974
 30
0.0
 10
62.661673
 20
-3.183042
 30
0.0
 10
62.749941
 20
-2.591391
 30
0.0
 10
62.428481
 20
-1.825835
 30
0.0
 10
62.144797
 20
-1.128069
 30
0.0
 10
62.346394
 20
-0.739901
 30
0.0
 10
62.978013
 20
-0.973637
 30
0.0
 10
63.471103
 20
-1.768064
 30
0.0
 10
63.953531
 20
-2.688702
 30
0.0
 10
64.553160
 20
-3.301096
 30
0.0
 10
64.982674
 20
-3.427221
 30
0.0
 10
65.460581
 20
-3.451210
 30
0.0
 10
65.888591
 20
-3.341058
 30
0.0
 10
66.168403
 20
-3.064988
 30
0.0
 10
66.058062
 20
-2.182564
 30
0.0
 10
65.282273
 20
-1.340865
 30
0.0
 10
64.466888
 20
-0.484461
 30
0.0
 10
64.237760
 20
0.441905
 30
0.0
 10
64.582771
 20
1.417462
 30
0.0
 10
64.797144
 20
2.344083
 30
0.0
 10
64.436382
 20
3.048538
 30
0.0
 10
63.056000
 20
3.357656
 30
0.0
  0
LWPOLYLINE
  5
117
100
AcDbEntity
  8
Layer_1
 62
7
100
AcDbPolyline
 90
17
 70
0
 10
62.504371
 20
1.978605
 30
0.0
 10
62.703716
 20
1.936808
 30
0.0
 10
62.866451
 20
1.822846
 30
0.0
 10
62.976139
 20
1.653824
 30
0.0
 10
63.016353
 20
1.446785
 30
0.0
 10
62.976139
 20
1.239747
 30
0.0
 10
62.866451
 20
1.070724
 30
0.0
 10
62.703716
 20
0.956763
 30
0.0
 10
62.504371
 20
0.914966
 30
0.0
 10
62.304961
 20
0.956763
 30
0.0
 10
62.142082
 20
1.070724
 30
0.0
 10
62.032244
 20
1.239747
 30
0.0
 10
61.991962
 20
1.446785
 30
0.0
 10
62.032244
 20
1.653824
 30
0.0
 10
62.142082
 20
1.822846
 30
0.0
 10
62.304961
 20
1.936808
 30
0.0
 10
62.504371
 20
1.978605
 30
0.0
  0
LWPOLYLINE
  5
118
100
AcDbEntity
  8
Layer_1
 62
7
100
AcDbPolyline
 90
33
 70
0
 10
66.932731
 20
2.225719
 30
0.0
 10
68.266132
 20
2.954247
 30
0.0
 10
69.844068
 20
3.313431
 30
0.0
 10
71.385083
 20
3.193995
 30
0.0
 10
72.607718
 20
2.486661
 30
0.0
 10
72.865666
 20
1.967993
 30
0.0
 10
72.881640
 20
1.333078
 30
0.0
 10
72.695412
 20
0.704174
 30
0.0
 10
72.346814
 20
0.203596
 30
0.0
 10
71.876745
 20
0.049983
 30
0.0
 10
71.298449
 20
0.143173
 30
0.0
 10
70.722496
 20
0.233964
 30
0.0
 10
70.259462
 20
0.073125
 30
0.0
 10
70.027213
 20
-0.630737
 30
0.0
 10
70.178382
 20
-1.510226
 30
0.0
 10
70.321167
 20
-2.380769
 30
0.0
 10
70.063772
 20
-3.057905
 30
0.0
 10
69.580255
 20
-3.307079
 30
0.0
 10
68.992499
 20
-3.365583
 30
0.0
 10
68.418541
 20
-3.237624
 30
0.0
 10
67.976423
 20
-2.927433
 30
0.0
 10
67.850100
 20
-2.237767
 30
0.0
 10
68.152876
 20
-1.415343
 30
0.0
 10
68.448961
 20
-0.598818
 30
0.0
 10
68.302570
 20
0.073125
 30
0.0
 10
67.851257
 20
0.196597
 30
0.0
 10
67.274361
 20
0.025994
 30
0.0
 10
66.706039
 20
-0.137356
 30
0.0
 10
66.280448
 20
0.007904
 30
0.0
 10
66.098189
 20
0.544662
 30
0.0
 10
66.202436
 20
1.166962
 30
0.0
 10
66.508765
 20
1.764201
 30
0.0
 10
66.932731
 20
2.225719
 30
0.0
  0
LWPOLYLINE
  5
119
100
AcDbEntity
  8
Layer_1
 62
7
100
AcDbPolyline
 90
33
 70
0
 10
-23.647183
 20
7.487893
 30
0.0
 10
-24.929721
 20
8.013334
 30
0.0
 10
-26.360882
 20
8.263383
 30
0.0
 10
-27.735467
 20
8.125687
 30
0.0
 10
-28.848276
 20
7.487893
 30
0.0
 10
-30.432595
 20
4.757026
 30
0.0
 10
-30.900576
 20
1.368384
 30
0.0
 10
-30.303004
 20
-2.033861
 30
0.0
 10
-28.690674
 20
-4.805594
 30
0.0
 10
-27.349172
 20
-5.708112
 30
0.0
 10
-25.655515
 20
-6.127636
 30
0.0
 10
-23.942750
 20
-6.004333
 30
0.0
 10
-22.543924
 20
-5.278401
 30
0.0
 10
-22.375893
 20
-5.006254
 30
0.0
 10
-22.327113
 20
-4.661745
 30
0.0
 10
-22.386739
 20
-4.310350
 30
0.0
 10
-22.543924
 20
-4.017545
 30
0.0
 10
-23.503240
 20
-3.572142
 30
0.0
 10
-24.750433
 20
-3.623506
 30
0.0
 10
-25.997632
 20
-3.674871
 30
0.0
 10
-26.956961
 20
-3.229496
 30
0.0
 10
-28.041010
 20
-1.196480
 30
0.0
 10
-28.431281
 20
1.235542
 30
0.0
 10
-28.084394
 20
3.641571
 30
0.0
 10
-26.956961
 20
5.596581
 30
0.0
 10
-25.932584
 20
5.884871
 30
0.0
 10
-24.624098
 20
5.584050
 30
0.0
 10
-23.378784
 20
5.328921
 30
0.0
 10
-22.543924
 20
5.754202
 30
0.0
 10
-22.497356
 20
6.234488
 30
0.0
 10
-22.750811
 20
6.724792
 30
0.0
 10
-23.176637
 20
7.163196
 30
0.0
 10
-23.647183
 20
7.487893
 30
0.0
  0
LWPOLYLINE
  5
11a
100
AcDbEntity
  8
Layer_1
 62
7
100
AcDbPolyline
 90
33
 70
0
 10
2.673457
 20
6.384630
 30
0.0
 10
3.955995
 20
6.910071
 30
0.0
 10
5.387156
 20
7.160120
 30
0.0
 10
6.761741
 20
7.022424
 30
0.0
 10
7.874550
 20
6.384630
 30
0.0
 10
9.458864
 20
3.653763
 30
0.0
 10
9.926842
 20
0.265149
 30
0.0
 10
9.329267
 20
-3.137124
 30
0.0
 10
7.716923
 20
-5.908857
 30
0.0
 10
6.375427
 20
-6.811376
 30
0.0
 10
4.681778
 20
-7.230899
 30
0.0
 10
2.969021
 20
-7.107624
 30
0.0
 10
1.570198
 20
-6.381692
 30
0.0
 10
1.402160
 20
-6.109517
 30
0.0
 10
1.353381
 20
-5.765008
 30
0.0
 10
1.413011
 20
-5.413614
 30
0.0
 10
1.570198
 20
-5.120808
 30
0.0
 10
2.529510
 20
-4.675433
 30
0.0
 10
3.776703
 20
-4.726769
 30
0.0
 10
5.023903
 20
-4.778134
 30
0.0
 10
5.983234
 20
-4.332759
 30
0.0
 10
7.067279
 20
-2.299743
 30
0.0
 10
7.457545
 20
0.132279
 30
0.0
 10
7.110655
 20
2.538308
 30
0.0
 10
5.983234
 20
4.493318
 30
0.0
 10
4.958860
 20
4.781608
 30
0.0
 10
3.650374
 20
4.480815
 30
0.0
 10
2.405059
 20
4.225658
 30
0.0
 10
1.570198
 20
4.650939
 30
0.0
 10
1.523630
 20
5.131225
 30
0.0
 10
1.777085
 20
5.621529
 30
0.0
 10
2.202912
 20
6.059933
 30
0.0
 10
2.673457
 20
6.384630
 30
0.0
  0
LWPOLYLINE
  5
11b
100
AcDbEntity
  8
Layer_1
 62
7
100
AcDbPolyline
 90
37
 70
0
 10
-35.473157
 20
4.020511
 30
0.0
 10
-36.242814
 20
4.065695
 30
0.0
 10
-37.033273
 20
3.971432
 30
0.0
 10
-37.752909
 20
3.704676
 30
0.0
 10
-38.310106
 20
3.232434
 30
0.0
 10
-38.446312
 20
2.945837
 30
0.0
 10
-38.482572
 20
2.614000
 30
0.0
 10
-38.432599
 20
2.276180
 30
0.0
 10
-38.310106
 20
1.971578
 30
0.0
 10
-37.740054
 20
1.358422
 30
0.0
 10
-37.015697
 20
0.868794
 30
0.0
 10
-36.396038
 20
0.352666
 30
0.0
 10
-36.140077
 20
-0.340105
 30
0.0
 10
-36.513304
 20
-0.909093
 30
0.0
 10
-37.341579
 20
-1.013938
 30
0.0
 10
-38.229817
 20
-1.110176
 30
0.0
 10
-38.782935
 20
-1.653426
 30
0.0
 10
-38.791656
 20
-2.028443
 30
0.0
 10
-38.650768
 20
-2.409979
 30
0.0
 10
-38.398650
 20
-2.728438
 30
0.0
 10
-38.073694
 20
-2.914282
 30
0.0
 10
-36.732453
 20
-2.945975
 30
0.0
 10
-35.354068
 20
-2.450196
 30
0.0
 10
-34.232232
 20
-1.556003
 30
0.0
 10
-33.660630
 20
-0.392542
 30
0.0
 10
-33.958005
 20
0.356025
 30
0.0
 10
-34.769433
 20
0.959896
 30
0.0
 10
-35.561916
 20
1.559928
 30
0.0
 10
-35.802460
 20
2.296923
 30
0.0
 10
-35.424099
 20
2.616596
 30
0.0
 10
-34.770207
 20
2.639456
 30
0.0
 10
-34.136389
 20
2.665703
 30
0.0
 10
-33.818257
 20
2.996044
 30
0.0
 10
-33.957658
 20
3.415398
 30
0.0
 10
-34.379199
 20
3.715852
 30
0.0
 10
-34.933989
 20
3.912504
 30
0.0
 10
-35.473157
 20
4.020511
 30
0.0
  0
ENDSEC
  0
SECTION
  2
OBJECTS
  0
DICTIONARY
  5
C
330
0
100
AcDbDictionary
  3
ACAD_GROUP
350
D
  3
ACAD_MLINESTYLE
350
17
  0
DICTIONARY
  5
D
330
C
100
AcDbDictionary
  0
DICTIONARY
  5
1A
330
C
100
AcDbDictionary
  0
DICTIONARY
  5
17
330
C
100
AcDbDictionary
  3
STANDARD
350
18
  0
DICTIONARY
  5
19
330
C
100
AcDbDictionary
  0
ENDSEC
  0
EOF
