<?xml version="1.0" encoding="UTF-8" standalone="no"?>
<!-- Created with Inkscape (http://www.inkscape.org/) -->

<svg
   xmlns:dc="http://purl.org/dc/elements/1.1/"
   xmlns:cc="http://creativecommons.org/ns#"
   xmlns:rdf="http://www.w3.org/1999/02/22-rdf-syntax-ns#"
   xmlns:svg="http://www.w3.org/2000/svg"
   xmlns="http://www.w3.org/2000/svg"
   xmlns:sodipodi="http://sodipodi.sourceforge.net/DTD/sodipodi-0.dtd"
   xmlns:inkscape="http://www.inkscape.org/namespaces/inkscape"
   width="744.09448819"
   height="1052.3622047"
   id="svg3857"
   version="1.1"
   inkscape:version="0.48.4 r9939"
   sodipodi:docname="enter_to_restart.svg">
  <defs
     id="defs3859" />
  <sodipodi:namedview
     id="base"
     pagecolor="#ffffff"
     bordercolor="#666666"
     borderopacity="1.0"
     inkscape:pageopacity="0.0"
     inkscape:pageshadow="2"
     inkscape:zoom="0.31017271"
     inkscape:cx="-3004.3466"
     inkscape:cy="353.33632"
     inkscape:document-units="px"
     inkscape:current-layer="layer1"
     showgrid="false"
     inkscape:window-width="1366"
     inkscape:window-height="721"
     inkscape:window-x="-4"
     inkscape:window-y="24"
     inkscape:window-maximized="1" />
  <metadata
     id="metadata3862">
    <rdf:RDF>
      <cc:Work
         rdf:about="">
        <dc:format>image/svg+xml</dc:format>
        <dc:type
           rdf:resource="http://purl.org/dc/dcmitype/StillImage" />
        <dc:title></dc:title>
      </cc:Work>
    </rdf:RDF>
  </metadata>
  <g
     inkscape:label="Layer 1"
     inkscape:groupmode="layer"
     id="layer1">
    <path
       id="path3000"
       d="m 908.45663,-913.87363 c -33.89251,-22.00004 -90.37886,-10.32633 -120,17.15625 -84.35523,78.26506 -149.13029,249.72457 -74.28125,337.125 19.86429,23.1953 68.76359,14.7387 91.4375,-5.7188 30.10823,-27.165 -6.59166,-89.38413 20,-119.99994 12.44138,-14.32414 37.03696,-25.03723 54.28125,-17.125 52.7374,24.1976 20.12263,128.05724 68.5625,159.99994 18.28795,12.0596 52.51807,17.4822 65.71877,0 77.5725,-102.732 2.2577,-301.3486 -105.71877,-371.43745 z m -88.5625,80.00001 c 8.45099,-9.05424 27.03257,-7.1351 37.15625,0 23.14458,16.31214 44.31594,56.47158 28.5625,80 -11.13992,16.63793 -45.03956,16.18303 -60,2.875 -20.6895,-18.40431 -24.61305,-62.63198 -5.71875,-82.875 z"
       style="fill:#000000;stroke:#000000;stroke-width:1px;stroke-linecap:butt;stroke-linejoin:miter;stroke-opacity:1"
       inkscape:connector-curvature="0"
       sodipodi:nodetypes="ssssssssssssss" />
    <path
       style="fill:#000000;fill-opacity:1;fill-rule:nonzero;stroke:none"
       d="m 514.18877,-451.01648 c -94.67739,0 -171.4375,88.2773 -171.4375,197.1562 0,108.879 76.76011,197.125002 171.4375,197.125002 94.67739,0 171.40625,-88.246002 171.40625,-197.125002 0,-108.8789 -76.72886,-197.1562 -171.40625,-197.1562 z m -5.71875,157.1562 c 25.2473,0 45.71875,27.4802 45.71875,61.4063 0,33.9261 -20.47145,61.4375 -45.71875,61.4375 -25.2473,0 -45.71875,-27.5114 -45.71875,-61.4375 0,-33.9261 20.47145,-61.4063 45.71875,-61.4063 z"
       id="path3038"
       inkscape:connector-curvature="0" />
    <path
       style="fill:#000000;stroke:#000000;stroke-width:1px;stroke-linecap:butt;stroke-linejoin:miter;stroke-opacity:1"
       d="m 1365.6084,-445.29718 c 0,0 -157.2178,-33.7665 -211.4286,11.4286 -88.0034,73.3678 -150.0341,243.6069 -80,334.285702 56.4801,73.129197 208.5057,67.5754 277.1429,5.7143 17.0377,-15.355602 19.2934,-50.086702 5.7143,-68.571402 -33.5142,-45.6216 -130.333,7.0465 -165.7143,-37.1429 -7.7383,-9.6647 0,-25.7143 0,-37.1428 0,-11.4286 96.9902,36.285 125.7143,5.7143 24.27,-25.8303 16.8587,-84.3587 -11.4286,-105.7143 -26.9913,-20.3772 -74.1444,38.9431 -100,17.1428 -8.0092,-6.753 -7.6463,-24.2672 0,-31.4285 42.4933,-39.7981 171.4286,22.8571 174.2858,11.4285 2.8571,-11.4285 11.3911,-107.1022 -14.2858,-105.7143 z"
       id="path3045"
       inkscape:connector-curvature="0"
       sodipodi:nodetypes="sssssssssssss" />
    <path
       style="fill:#000000;stroke:#000000;stroke-width:1px;stroke-linecap:butt;stroke-linejoin:miter;stroke-opacity:1"
       d="m 1631.3361,-482.43168 c -108.5714,-2.8571 -157.6406,22.158 -191.4464,88.5626 -53.1539,104.41 -70.7918,310.890302 14.2902,391.4373986 35.9884,34.0702004 112.7925,28.5808004 148.5625,-5.7187 42.7613,-41.0033966 -80.2337,-162.3826986 -22.8616,-177.1562986 71.8841,-18.5105 92.2569,155.413299 160.0178,185.71879864 36.0186,16.10900036 100.4035,18.61330036 117.125,-17.12499964 41.6726,-89.065599 -166.3526,-159.560399 -139.9955,-254.294599 25.3465,-91.1021 111.3826,-206.238 -85.692,-211.4242 z m -40,100 c 20.5135,0 37.125,17.2601 37.125,38.5626 0,21.3024 -16.6115,38.5624 -37.125,38.5624 -20.5134,0 -37.1562,-17.26 -37.1562,-38.5624 0,-21.3025 16.6428,-38.5626 37.1562,-38.5626 z"
       id="path3047"
       inkscape:connector-curvature="0"
       sodipodi:nodetypes="ssssssssssssss" />
    <path
       style="fill:#000000;stroke:#000000;stroke-width:1px;stroke-linecap:butt;stroke-linejoin:miter;stroke-opacity:1"
       d="m 1928.4656,-2.4400814 c 33.2371,43.1846004 122.3543,50.7430004 162.8571,14.2857004 40.3541,-36.3234 40.9107,-124.130099 2.8572,-162.857099 -32.7076,-33.2865 -104.2986,-30.0531 -140,0 -38.4505,32.3672 -56.369,108.742202 -25.7143,148.5713986 z"
       id="path3060"
       inkscape:connector-curvature="0"
       sodipodi:nodetypes="sssss" />
    <path
       style="fill:#000000;stroke:#000000;stroke-width:1px;stroke-linecap:butt;stroke-linejoin:miter;stroke-opacity:1"
       d="m 1871.3227,-471.01148 c -46.6787,81.9422 19.8541,211.6785 97.1429,265.7143 35.9046,25.1024 98.9459,29.3964 131.4286,0 78.0634,-70.6464 108.9722,-243.0693 31.4285,-314.2857 -64.9357,-59.6371 -216.3599,-28.0366 -260,48.5714 z"
       id="path3062"
       inkscape:connector-curvature="0"
       sodipodi:nodetypes="sssss" />
    <path
       style="fill:#000000;stroke:#000000;stroke-width:0.85179138px;stroke-linecap:butt;stroke-linejoin:miter;stroke-opacity:1"
       d="m -3851.5173,424.25379 c -85.2571,1.33583 -96.2034,50.89074 -117.9465,96.89127 -22.879,48.40386 0,107.07727 0,160.61591 0,92.48148 -65.3942,212.05014 0,277.44442 29.8331,29.83304 97.0379,30.13006 126.5709,0 56.798,-57.94623 -23.0424,-164.29314 -4.8712,-243.37277 19.987,-86.9815 153.5551,46.25289 161.6731,-181.35872 5.7511,-161.24717 -132.0648,-110.74282 -165.4263,-110.22011 z m 23.2113,77.40654 c 32.2582,0 58.4276,23.98641 58.4276,53.55639 0,29.56997 -26.1694,53.52976 -58.4276,53.52976 -32.2581,0 -58.4009,-23.95979 -58.4009,-53.52976 0,-29.56998 26.1428,-53.55639 58.4009,-53.55639 z"
       id="path4085"
       inkscape:connector-curvature="0"
       sodipodi:nodetypes="sssssssssssss" />
    <path
       sodipodi:nodetypes="ssssssssssssss"
       inkscape:connector-curvature="0"
       id="path4090"
       d="m -3419.5211,443.2826 c -108.5714,-2.8571 -157.6406,22.158 -191.4464,88.56261 -53.1539,104.41 -70.7918,310.8903 14.2902,391.43739 35.9884,34.0702 112.7925,28.5808 148.5625,-5.7187 42.7613,-41.00339 -80.2337,-162.38269 -22.8616,-177.15629 71.8841,-18.5105 92.2569,155.41329 160.0178,185.71879 36.0186,16.109 100.4035,18.6133 117.125,-17.125 41.6726,-89.06559 -166.3526,-159.56039 -139.9955,-254.29459 25.3465,-91.1021 111.3826,-206.23801 -85.692,-211.42421 z m -40,100.00001 c 20.5135,0 37.125,17.2601 37.125,38.5626 0,21.3024 -16.6115,38.5624 -37.125,38.5624 -20.5134,0 -37.1562,-17.26 -37.1562,-38.5624 0,-21.3025 16.6428,-38.5626 37.1562,-38.5626 z"
       style="fill:#000000;stroke:#000000;stroke-width:1px;stroke-linecap:butt;stroke-linejoin:miter;stroke-opacity:1" />
    <path
       sodipodi:nodetypes="sssssssssssss"
       style="fill:#000000;stroke:#000000;stroke-width:1.12982118px;stroke-linecap:butt;stroke-linejoin:miter;stroke-opacity:1"
       d="m -2810.7448,508.62206 c -62.3241,-78.88894 -225.7739,-96.63265 -300.2097,-29.05255 -99.5829,90.41111 -98.0291,311.41405 0,403.50762 75.4333,70.86589 258.8703,70.68015 309.8938,-19.36841 17.3194,-30.56597 -18.9949,-74.42148 -48.4208,-93.61375 -43.3453,-28.27064 -121.344,29.67152 -154.947,-9.68418 -14.7391,-17.26235 -10.3379,-52.51869 6.4561,-67.78927 17.5145,-15.92569 56.7619,18.89886 71.0173,0 14.1521,-18.7617 -0.2589,-54.11031 -19.3683,-67.78927 -17.521,-12.54198 -48.9491,18.07899 -64.5612,3.22805 -11.6944,-11.1243 -12.0774,-37.71354 0,-48.4209 47.0379,-41.70225 137.4443,60.97962 187.2275,22.59642 24.9462,-19.23372 32.4394,-68.89655 12.9123,-93.61376 z"
       id="path4092"
       inkscape:connector-curvature="0" />
    <path
       style="fill:#000000;stroke:#000000;stroke-width:1px;stroke-linecap:butt;stroke-linejoin:miter;stroke-opacity:1"
       d="m -2519.4286,458.07647 c -70.4547,-10.04938 -162.6488,0.4841 -205.7143,57.14286 -18.4419,24.26299 -14.9076,64.84737 0,91.42857 39.3097,70.09137 158.5355,87.27311 157.3541,167.62642 -1.3546,92.13013 -167.096,6.41971 -191.6398,95.23072 -9.3143,33.70341 17.7252,82.11429 51.4286,91.42857 118.4146,32.72511 300.8011,-61.51311 320,-182.85714 13.2753,-83.90525 -175.9117,-112.60685 -155.3085,-195.01945 13.7354,-54.94173 137.9083,5.62209 143.8799,-50.69483 4.9606,-46.78188 -73.4272,-67.64277 -120,-74.28572 z"
       id="path4094"
       inkscape:connector-curvature="0"
       sodipodi:nodetypes="ssssssssss" />
    <path
       inkscape:connector-curvature="0"
       id="path4096"
       d="m -257.14286,-684.78067 -205.71428,57.14285 0,91.42857 205.71428,125.71429 -240,137.14285 51.42857,91.42857 320,-182.85714 -171.42857,-188.57143 160,-57.14285 z"
       style="fill:none;stroke:#000000;stroke-width:1px;stroke-linecap:butt;stroke-linejoin:miter;stroke-opacity:1" />
    <path
       inkscape:connector-curvature="0"
       id="path4100"
       d="m 1988.6838,-1022.8065 c -62.3241,-78.889 -225.7739,-96.6327 -300.2096,-29.0526 -99.5829,90.41115 -98.0292,311.41409 0,403.50766 75.4333,70.86589 258.8702,70.68015 309.8937,-19.36841 17.3194,-30.56597 -18.9948,-74.42148 -48.4208,-93.61375 -43.3453,-28.27064 -121.3439,29.67152 -154.947,-9.68418 -14.7391,-17.26235 -10.3378,-52.51869 6.4562,-67.78927 17.5145,-15.92569 56.7618,18.89886 71.0173,0 14.152,-18.7617 -0.259,-54.11031 -19.3683,-67.78927 -17.5211,-12.54198 -48.9492,18.07899 -64.5613,3.22805 -11.6943,-11.1243 -12.0773,-37.71354 0,-48.4209 47.038,-41.70225 137.4443,60.97962 187.2275,22.59642 24.9463,-19.23372 32.4395,-68.89655 12.9123,-93.61375 z"
       style="fill:#000000;stroke:#000000;stroke-width:1.12982118px;stroke-linecap:butt;stroke-linejoin:miter;stroke-opacity:1"
       sodipodi:nodetypes="sssssssssssss" />
    <path
       style="fill:#000000;stroke:#000000;stroke-width:1px;stroke-linecap:butt;stroke-linejoin:miter;stroke-opacity:1"
       d="m -1022.8571,909.50504 c -96.1794,-103.0569 -94.6344,-323.85538 5.7143,-422.85714 37.96627,-37.4567 117.64417,-32.41036 159.99997,0 75.2258,57.56226 -20.4046,276.75089 74.2857,274.28571 99.3431,-2.58631 -17.9872,-233.63642 62.8571,-291.42857 26.524,-18.96089 76.2477,-13.60002 97.1429,11.42857 97.8473,117.20306 86.8413,357.19004 -28.5714,457.14286 -53.4493,46.28957 -156.6037,27.50885 -211.4286,-17.14286 -63.0935,-51.386 11.6634,-247.83929 -68.5714,-234.28571 -75.21997,12.70646 65.5198,174.77896 11.4285,228.57142 -24.3482,24.21368 -79.4282,19.38997 -102.85707,-5.71428 z"
       id="path4102"
       inkscape:connector-curvature="0"
       sodipodi:nodetypes="sssssssssss" />
    <path
       inkscape:connector-curvature="0"
       id="path4104"
       d="m -1428.5714,-239.06639 5.7143,-422.85714 160,0 74.2857,274.28571 62.8571,-291.42857 97.1429,11.42857 -28.5714,457.14286 -211.4286,-17.14286 -68.5714,-234.28571 11.4285,228.57142 z"
       style="fill:none;stroke:#000000;stroke-width:1px;stroke-linecap:butt;stroke-linejoin:miter;stroke-opacity:1" />
    <path
       style="fill:#000000;stroke:#000000;stroke-width:0.82774335px;stroke-linecap:butt;stroke-linejoin:miter;stroke-opacity:1"
       d="m -456.41047,548.22009 c 108.02531,-84.76796 317.7601,-119.25268 411.5066,-18.91984 37.9194998,40.58366 21.3502,127.29614 -18.9198,165.54867 -36.6515,34.81536 -115.61364,-26.28531 -151.35879,9.45992 -53.61782,53.61783 42.66815,176.86935 -14.18984,227.03818 -37.90535,33.44589 -118.79069,29.20217 -151.35883,-9.45993 -47.00076,-55.79523 73.23798,-164.06936 23.64987,-217.57825 -33.23969,-35.86784 -116.70453,43.407 -146.62886,4.72997 -34.19259,-44.19369 3.34118,-126.32429 47.29965,-160.81872 z"
       id="path4106"
       inkscape:connector-curvature="0"
       sodipodi:nodetypes="sssssssss" />
    <path
       inkscape:connector-curvature="0"
       id="path4108"
       d="m 22.857172,-959.06639 497.142798,-22.85714 -22.8571,200 -182.8572,11.42857 -17.1428,274.28571 -182.8572,-11.42857 28.5715,-262.85714 -177.142898,5.71429 z"
       style="fill:none;stroke:#000000;stroke-width:1px;stroke-linecap:butt;stroke-linejoin:miter;stroke-opacity:1" />
    <path
       sodipodi:nodetypes="sssssssssssss"
       style="fill:#000000;stroke:#000000;stroke-width:1.12982118px;stroke-linecap:butt;stroke-linejoin:miter;stroke-opacity:1"
       d="m 348.68383,554.33635 c -62.3241,-78.88894 -225.7739,-96.63265 -300.2096,-29.05255 -99.5829,90.41111 -98.0292,311.41405 0,403.50762 75.4333,70.86589 258.8702,70.68015 309.8937,-19.36841 17.3194,-30.56597 -18.9948,-74.42148 -48.4208,-93.61375 -43.3453,-28.27064 -121.3439,29.67152 -154.947,-9.68418 -14.7391,-17.26235 -10.3378,-52.51869 6.4562,-67.78927 17.5145,-15.92569 56.7618,18.89886 71.0173,0 14.152,-18.7617 -0.259,-54.11031 -19.3683,-67.78927 -17.5211,-12.54198 -48.9492,18.07899 -64.5613,3.22805 -11.6943,-11.1243 -12.0773,-37.71354 0,-48.4209 47.038,-41.70225 137.4443,60.97962 187.2275,22.59642 24.9463,-19.23372 32.4395,-68.89655 12.9123,-93.61376 z"
       id="path4112"
       inkscape:connector-curvature="0" />
    <path
       sodipodi:nodetypes="ssssssssssssss"
       inkscape:connector-curvature="0"
       id="path4114"
       d="m 642.76463,494.71118 c -108.5714,-2.8571 -157.6406,22.158 -191.4464,88.5626 -53.1539,104.41 -70.7918,310.8903 14.2902,391.4374 35.9884,34.07022 112.7925,28.58082 148.5625,-5.7187 42.7613,-41.0034 -80.2337,-162.3827 -22.8616,-177.1563 71.8841,-18.5105 92.2569,155.4133 160.0178,185.7188 36.0186,16.109 100.4035,18.6133 117.125,-17.125 41.6726,-89.0656 -166.3526,-159.5604 -139.9955,-254.2946 25.3465,-91.1021 111.3826,-206.238 -85.692,-211.4242 z m -40,100 c 20.5135,0 37.125,17.2601 37.125,38.5626 0,21.3024 -16.6115,38.5624 -37.125,38.5624 -20.5134,0 -37.1562,-17.26 -37.1562,-38.5624 0,-21.3025 16.6428,-38.5626 37.1562,-38.5626 z"
       style="fill:#000000;stroke:#000000;stroke-width:1px;stroke-linecap:butt;stroke-linejoin:miter;stroke-opacity:1" />
    <path
       sodipodi:nodetypes="sssssssss"
       inkscape:connector-curvature="0"
       id="path4116"
       d="m 1427.8752,576.79152 c 108.0253,-84.76796 317.7601,-119.25268 411.5066,-18.91984 37.9195,40.58366 21.3502,127.29614 -18.9198,165.54867 -36.6515,34.81536 -115.6136,-26.28531 -151.3588,9.45992 -53.6178,53.61783 42.6682,176.86935 -14.1898,227.03818 -37.9054,33.44589 -118.7907,29.20217 -151.3588,-9.45993 -47.0008,-55.79523 73.2379,-164.06936 23.6498,-217.57825 -33.2397,-35.86784 -116.7045,43.407 -146.6288,4.72997 -34.1926,-44.19369 3.3411,-126.32429 47.2996,-160.81872 z"
       style="fill:#000000;stroke:#000000;stroke-width:0.82774335px;stroke-linecap:butt;stroke-linejoin:miter;stroke-opacity:1" />
    <path
       inkscape:connector-curvature="0"
       id="path4118"
       d="m 2067.049,498.69562 c -113.6136,0 -205.7263,105.93345 -205.7263,236.58898 0,130.65566 92.1127,236.55155 205.7263,236.55155 113.6137,0 205.6888,-105.89589 205.6888,-236.55155 0,-130.65553 -92.0751,-236.58898 -205.6888,-236.58898 z m -6.8626,188.58867 c 30.297,0 54.863,32.97646 54.863,73.68804 0,40.71159 -24.566,73.72548 -54.863,73.72548 -30.2969,0 -54.8628,-33.01389 -54.8628,-73.72548 0,-40.71158 24.5659,-73.68804 54.8628,-73.68804 z"
       style="fill:#000000;fill-opacity:1;fill-rule:nonzero;stroke:none" />
    <path
       style="fill:#000000;stroke:#000000;stroke-width:1px;stroke-linecap:butt;stroke-linejoin:miter;stroke-opacity:1"
       d="m 2778.4789,494.71117 c -108.5714,-2.8571 -157.6406,22.158 -191.4464,88.56261 -53.1539,104.41 -70.7918,310.8903 14.2902,391.43739 35.9884,34.07023 112.7925,28.58083 148.5625,-5.7187 42.7613,-41.00339 -80.2337,-162.38269 -22.8616,-177.15629 71.8841,-18.5105 92.2569,155.41329 160.0178,185.71879 36.0186,16.109 100.4035,18.6133 117.125,-17.125 41.6726,-89.06559 -166.3526,-159.56039 -139.9955,-254.29459 25.3465,-91.1021 111.3826,-206.23801 -85.692,-211.42421 z m -40,100.00001 c 20.5135,0 37.125,17.2601 37.125,38.5626 0,21.3024 -16.6115,38.5624 -37.125,38.5624 -20.5134,0 -37.1562,-17.26 -37.1562,-38.5624 0,-21.3025 16.6428,-38.5626 37.1562,-38.5626 z"
       id="path4120"
       inkscape:connector-curvature="0"
       sodipodi:nodetypes="ssssssssssssss" />
    <path
       inkscape:connector-curvature="0"
       id="path4122"
       d="m 3387.2552,560.05063 c -62.3241,-78.88894 -225.7739,-96.63265 -300.2097,-29.05255 -99.5829,90.41111 -98.0291,311.41405 0,403.50762 75.4333,70.8659 258.8703,70.6801 309.8938,-19.36841 17.3194,-30.56597 -18.9949,-74.42148 -48.4208,-93.61375 -43.3453,-28.27064 -121.344,29.67152 -154.947,-9.68418 -14.7391,-17.26235 -10.3379,-52.51869 6.4561,-67.78927 17.5145,-15.92569 56.7619,18.89886 71.0173,0 14.1521,-18.7617 -0.2589,-54.11031 -19.3683,-67.78927 -17.521,-12.54198 -48.9491,18.07899 -64.5612,3.22805 -11.6944,-11.1243 -12.0774,-37.71354 0,-48.4209 47.0379,-41.70225 137.4443,60.97962 187.2275,22.59642 24.9462,-19.23372 32.4394,-68.89655 12.9123,-93.61376 z"
       style="fill:#000000;stroke:#000000;stroke-width:1.12982118px;stroke-linecap:butt;stroke-linejoin:miter;stroke-opacity:1"
       sodipodi:nodetypes="sssssssssssss" />
    <path
       sodipodi:nodetypes="ssssssssss"
       inkscape:connector-curvature="0"
       id="path4124"
       d="m 3678.5714,509.50504 c -70.4547,-10.04938 -162.6488,0.4841 -205.7143,57.14286 -18.4419,24.26299 -14.9076,64.84737 0,91.42857 39.3097,70.09137 206.8957,45.36098 205.7143,125.71429 -1.3546,92.13013 -215.4562,48.33184 -240,137.14285 -9.3143,33.70341 17.7252,82.11429 51.4286,91.42859 118.4146,32.7251 300.8011,-61.51313 320,-182.85716 13.2753,-83.90525 -192.0318,-106.15883 -171.4286,-188.57143 13.7354,-54.94173 154.0283,-0.82593 160,-57.14285 4.9606,-46.78188 -73.4272,-67.64277 -120,-74.28572 z"
       style="fill:#000000;stroke:#000000;stroke-width:1px;stroke-linecap:butt;stroke-linejoin:miter;stroke-opacity:1" />
    <path
       style="fill:#000000;stroke:#000000;stroke-width:0.82774335px;stroke-linecap:butt;stroke-linejoin:miter;stroke-opacity:1"
       d="m 3896.4466,576.79152 c 108.0253,-84.76796 317.7601,-119.25268 411.5066,-18.91984 37.9195,40.58366 21.3502,127.29614 -18.9198,165.54867 -36.6515,34.81536 -115.6136,-26.28531 -151.3588,9.45992 -53.6178,53.61783 42.6682,176.86935 -14.1898,227.03818 -37.9054,33.44589 -118.7907,29.20217 -151.3588,-9.45993 -47.0008,-55.79523 73.2379,-164.06936 23.6498,-217.57825 -33.2397,-35.86784 -116.7045,43.407 -146.6288,4.72997 -34.1926,-44.19369 3.3411,-126.32429 47.2996,-160.81872 z"
       id="path4126"
       inkscape:connector-curvature="0"
       sodipodi:nodetypes="sssssssss" />
    <path
       sodipodi:nodetypes="ssssssssssssss"
       inkscape:connector-curvature="0"
       style="fill:#000000;stroke:#000000;stroke-width:1px;stroke-linecap:butt;stroke-linejoin:miter;stroke-opacity:1"
       d="m 908.45663,-913.87363 c -33.89251,-22.00004 -90.37886,-10.32633 -120,17.15625 -84.35523,78.26506 -149.13029,249.72457 -74.28125,337.125 19.86429,23.1953 68.76359,14.7387 91.4375,-5.7188 30.10823,-27.165 -6.59166,-89.38413 20,-119.99994 12.44138,-14.32414 37.03696,-25.03723 54.28125,-17.125 52.7374,24.1976 20.12263,128.05724 68.5625,159.99994 18.28795,12.0596 52.51807,17.4822 65.71877,0 77.5725,-102.732 2.2577,-301.3486 -105.71877,-371.43745 z m -88.5625,80.00001 c 8.45099,-9.05424 27.03257,-7.1351 37.15625,0 23.14458,16.31214 44.31594,56.47158 28.5625,80 -11.13992,16.63793 -45.03956,16.18303 -60,2.875 -20.6895,-18.40431 -24.61305,-62.63198 -5.71875,-82.875 z"
       id="path4128" />
    <path
       id="path4130"
       d="m 4580.8336,539.63778 c -39.7746,-25.81816 -106.0641,-12.11847 -140.8261,20.13373 -98.9951,91.84802 -175.012,293.06446 -87.1728,395.63331 23.3118,27.22086 80.6976,17.29661 107.3066,-6.71131 35.3335,-31.8795 -7.7357,-104.89681 23.471,-140.82602 14.6006,-16.8101 43.4647,-29.38246 63.7017,-20.09706 61.8901,28.39712 23.6151,150.28168 80.4616,187.76806 21.4619,14.15255 61.6327,20.51625 77.1244,0 91.0352,-120.56122 2.6495,-353.64788 -124.0664,-435.90071 z m -103.9326,93.88407 c 9.9177,-10.62561 31.7241,-8.3734 43.6048,0 27.1614,19.14313 52.007,66.27227 33.5195,93.88407 -13.0732,19.52545 -52.8562,18.9916 -70.413,3.37395 -24.2802,-21.59839 -28.8847,-73.5018 -6.7113,-97.25802 z"
       style="fill:#000000;stroke:#000000;stroke-width:1.17355072px;stroke-linecap:butt;stroke-linejoin:miter;stroke-opacity:1"
       inkscape:connector-curvature="0"
       sodipodi:nodetypes="ssssssssssssss" />
    <path
       sodipodi:nodetypes="sssssssssssss"
       style="fill:#000000;stroke:#000000;stroke-width:1.12982118px;stroke-linecap:butt;stroke-linejoin:miter;stroke-opacity:1"
       d="m -1131.3162,508.62207 c -62.3241,-78.889 -225.7739,-96.6327 -300.2096,-29.0526 -99.5829,90.41115 -98.0292,311.41409 0,403.50766 75.4333,70.86589 258.8702,70.68015 309.8937,-19.36841 17.3194,-30.56597 -18.9948,-74.42148 -48.4208,-93.61375 -43.3453,-28.27064 -121.3439,29.67152 -154.947,-9.68418 -14.7391,-17.26235 -10.3378,-52.51869 6.4562,-67.78927 17.5145,-15.92569 56.7618,18.89886 71.0173,0 14.152,-18.7617 -0.259,-54.11031 -19.3683,-67.78927 -17.5211,-12.54198 -48.9492,18.07899 -64.5613,3.22805 -11.6943,-11.1243 -12.0773,-37.71354 0,-48.4209 47.038,-41.70225 137.4443,60.97962 187.2275,22.59642 24.9463,-19.23372 32.4395,-68.89655 12.9123,-93.61375 z"
       id="path4132"
       inkscape:connector-curvature="0" />
    <path
       style="fill:#000000;stroke:#000000;stroke-width:1px;stroke-linecap:butt;stroke-linejoin:miter;stroke-opacity:1"
       d="m 5018.4789,506.13975 c -108.5714,-2.8571 -157.6406,22.158 -191.4464,88.5626 -53.1539,104.41 -70.7918,310.8903 14.2902,391.4374 35.9884,34.07015 112.7925,28.58075 148.5625,-5.7187 42.7613,-41.0034 -80.2337,-162.3827 -22.8616,-177.1563 71.8841,-18.5105 92.2569,155.4133 160.0178,185.7188 36.0186,16.10895 100.4035,18.61325 117.125,-17.125 41.6726,-89.0656 -166.3526,-159.5604 -139.9955,-254.2946 25.3465,-91.1021 111.3826,-206.238 -85.692,-211.4242 z m -40,100 c 20.5135,0 37.125,17.2601 37.125,38.5626 0,21.3024 -16.6115,38.5624 -37.125,38.5624 -20.5134,0 -37.1562,-17.26 -37.1562,-38.5624 0,-21.3025 16.6428,-38.5626 37.1562,-38.5626 z"
       id="path4134"
       inkscape:connector-curvature="0"
       sodipodi:nodetypes="ssssssssssssss" />
    <path
       style="fill:#000000;stroke:#000000;stroke-width:0.82774335px;stroke-linecap:butt;stroke-linejoin:miter;stroke-opacity:1"
       d="m 5299.5895,588.22009 c 108.0253,-84.76796 317.7601,-119.25268 411.5066,-18.91984 37.9195,40.58366 21.3502,127.29614 -18.9198,165.54867 -36.6515,34.81536 -115.6136,-26.28531 -151.3588,9.45992 -53.6178,53.61783 42.6682,176.86935 -14.1898,227.03818 -37.9054,33.44588 -118.7907,29.20218 -151.3588,-9.45993 -47.0008,-55.79523 73.2379,-164.06936 23.6498,-217.57825 -33.2397,-35.86784 -116.7045,43.407 -146.6288,4.72997 -34.1926,-44.19369 3.3411,-126.32429 47.2996,-160.81872 z"
       id="path4136"
       inkscape:connector-curvature="0"
       sodipodi:nodetypes="sssssssss" />
    <path
       style="fill:#000000;stroke:#000000;stroke-width:1px;stroke-linecap:butt;stroke-linejoin:miter;stroke-opacity:1"
       d="m -1268.5714,206.64789 c -110.2019,-60.49486 -288.821,-89.46138 -377.1428,0 -208.7778,211.47156 -191.8751,674.68901 11.4285,891.42851 101.9437,108.681 336.3821,135.5307 445.7143,34.2857 22.361,-20.707 19.5643,-68.0611 0,-91.4285 -69.5583,-83.07968 -250.4417,25.9368 -320,-57.14286 -136.9501,-163.57191 -148.133,-486.48212 0,-639.99999 74.1137,-76.80787 270.3165,83.03749 320,-11.42857 23.1208,-43.96079 -36.4589,-101.81258 -80,-125.71429 z"
       id="path4138"
       inkscape:connector-curvature="0"
       sodipodi:nodetypes="sssssssss" />
    <path
       inkscape:connector-curvature="0"
       id="path4140"
       d="m -2354.2857,-1279.0664 -377.1428,0 11.4285,891.42854 445.7143,34.2857 0,-91.4285 -320,-57.14289 0,-639.99995 320,-11.4286 z"
       style="fill:#000000;stroke:#000000;stroke-width:1px;stroke-linecap:butt;stroke-linejoin:miter;stroke-opacity:1" />
    <path
       style="fill:#000000;stroke:#000000;stroke-width:1px;stroke-linecap:butt;stroke-linejoin:miter;stroke-opacity:1"
       d="m -1451.4285,-1804.7807 377.1428,0 -11.4285,891.42855 -445.7143,34.2857 0,-91.4285 320,-57.14285 0,-640 -320,-11.4286 z"
       id="path4142"
       inkscape:connector-curvature="0" />
    <path
       inkscape:connector-curvature="0"
       id="path4144"
       d="m 640.00007,286.64787 c 110.20185,-60.49485 288.82098,-89.46137 377.14273,0 208.7778,211.47156 191.8751,674.68901 -11.4285,891.42853 -101.94369,108.681 -336.38204,135.5307 -445.71423,34.2857 -22.36104,-20.707 -19.56429,-68.0611 0,-91.4285 69.55827,-83.0797 250.44173,25.9369 320,-57.1428 136.95013,-163.5719 148.13293,-486.48215 0,-640.00003 -74.1137,-76.80788 -270.31647,83.03747 -320,-11.4286 -23.12076,-43.96079 36.45889,-101.81258 80,-125.7143 z"
       style="fill:#000000;stroke:#000000;stroke-width:1px;stroke-linecap:butt;stroke-linejoin:miter;stroke-opacity:1"
       sodipodi:nodetypes="sssssssss" />
    <path
       sodipodi:nodetypes="ssssssssss"
       inkscape:connector-curvature="0"
       id="path4146"
       d="m -2126.0993,458.07647 c -70.4547,-10.04938 -162.6488,0.4841 -205.7143,57.14286 -18.4419,24.26299 -14.9076,64.84737 0,91.42857 39.3097,70.09137 158.5355,87.27311 157.3541,167.62642 -1.3546,92.13013 -167.096,6.41971 -191.6398,95.23072 -9.3143,33.70341 17.7252,82.11429 51.4286,91.42857 118.4146,32.72511 300.8011,-61.51311 320,-182.85714 13.2753,-83.90525 -175.9117,-112.60685 -155.3085,-195.01945 13.7354,-54.94173 137.9083,5.62209 143.8799,-50.69483 4.9606,-46.78188 -73.4272,-67.64277 -120,-74.28572 z"
       style="fill:#000000;stroke:#000000;stroke-width:1px;stroke-linecap:butt;stroke-linejoin:miter;stroke-opacity:1" />
  </g>
</svg>
