<?xml version="1.0" encoding="UTF-8" standalone="no"?>
<!-- Created with Inkscape (http://www.inkscape.org/) -->

<svg
   xmlns:dc="http://purl.org/dc/elements/1.1/"
   xmlns:cc="http://creativecommons.org/ns#"
   xmlns:rdf="http://www.w3.org/1999/02/22-rdf-syntax-ns#"
   xmlns:svg="http://www.w3.org/2000/svg"
   xmlns="http://www.w3.org/2000/svg"
   xmlns:sodipodi="http://sodipodi.sourceforge.net/DTD/sodipodi-0.dtd"
   xmlns:inkscape="http://www.inkscape.org/namespaces/inkscape"
   width="744.09448819"
   height="1052.3622047"
   id="svg3857"
   version="1.1"
   inkscape:version="0.48.4 r9939"
   sodipodi:docname="enter_to_start.svg">
  <defs
     id="defs3859" />
  <sodipodi:namedview
     id="base"
     pagecolor="#ffffff"
     bordercolor="#666666"
     borderopacity="1.0"
     inkscape:pageopacity="0.0"
     inkscape:pageshadow="2"
     inkscape:zoom="0.054831307"
     inkscape:cx="-3004.3466"
     inkscape:cy="353.33632"
     inkscape:document-units="px"
     inkscape:current-layer="layer1"
     showgrid="false"
     inkscape:window-width="1366"
     inkscape:window-height="721"
     inkscape:window-x="-4"
     inkscape:window-y="24"
     inkscape:window-maximized="1" />
  <metadata
     id="metadata3862">
    <rdf:RDF>
      <cc:Work
         rdf:about="">
        <dc:format>image/svg+xml</dc:format>
        <dc:type
           rdf:resource="http://purl.org/dc/dcmitype/StillImage" />
        <dc:title></dc:title>
      </cc:Work>
    </rdf:RDF>
  </metadata>
  <g
     inkscape:label="Layer 1"
     inkscape:groupmode="layer"
     id="layer1">
    <path
       style="fill:#000000;stroke:#000000;stroke-width:0.85179138px;stroke-linecap:butt;stroke-linejoin:miter;stroke-opacity:1"
       d="m -4270.9857,673.34462 c -85.2571,1.33583 -96.2034,50.89074 -117.9465,96.89127 -22.879,48.40386 0,107.07727 0,160.61591 0,92.4815 -65.3942,212.0501 0,277.4444 29.8331,29.833 97.0379,30.13 126.5709,0 56.798,-57.9462 -23.0424,-164.2931 -4.8712,-243.37275 19.987,-86.9815 153.5551,46.25285 161.6731,-181.35872 5.7511,-161.24717 -132.0648,-110.74282 -165.4263,-110.22011 z m 23.2113,77.40654 c 32.2582,0 58.4276,23.98641 58.4276,53.55639 0,29.56997 -26.1694,53.52976 -58.4276,53.52976 -32.2581,0 -58.4009,-23.95979 -58.4009,-53.52976 0,-29.56998 26.1428,-53.55639 58.4009,-53.55639 z"
       id="path4085"
       inkscape:connector-curvature="0"
       sodipodi:nodetypes="sssssssssssss" />
    <path
       sodipodi:nodetypes="ssssssssssssss"
       inkscape:connector-curvature="0"
       id="path4090"
       d="m -3838.9895,692.37343 c -108.5714,-2.8571 -157.6406,22.158 -191.4464,88.56261 -53.1539,104.41 -70.7918,310.89026 14.2902,391.43736 35.9884,34.0702 112.7925,28.5808 148.5625,-5.7187 42.7613,-41.0034 -80.2337,-162.3827 -22.8616,-177.15626 71.8841,-18.5105 92.2569,155.41326 160.0178,185.71876 36.0186,16.109 100.4035,18.6133 117.125,-17.125 41.6726,-89.0656 -166.3526,-159.56036 -139.9955,-254.29456 25.3465,-91.1021 111.3826,-206.23801 -85.692,-211.42421 z m -40,100.00001 c 20.5135,0 37.125,17.2601 37.125,38.5626 0,21.3024 -16.6115,38.5624 -37.125,38.5624 -20.5134,0 -37.1562,-17.26 -37.1562,-38.5624 0,-21.3025 16.6428,-38.5626 37.1562,-38.5626 z"
       style="fill:#000000;stroke:#000000;stroke-width:1px;stroke-linecap:butt;stroke-linejoin:miter;stroke-opacity:1" />
    <path
       sodipodi:nodetypes="sssssssssssss"
       style="fill:#000000;stroke:#000000;stroke-width:1.12982118px;stroke-linecap:butt;stroke-linejoin:miter;stroke-opacity:1"
       d="m -3230.2132,757.71289 c -62.3241,-78.88894 -225.7739,-96.63265 -300.2097,-29.05255 -99.5829,90.41111 -98.0291,311.41406 0,403.50766 75.4333,70.8658 258.8703,70.6801 309.8938,-19.3685 17.3194,-30.5659 -18.9949,-74.4214 -48.4208,-93.6137 -43.3453,-28.27064 -121.344,29.6715 -154.947,-9.6842 -14.7391,-17.26233 -10.3379,-52.51867 6.4561,-67.78925 17.5145,-15.92569 56.7619,18.89886 71.0173,0 14.1521,-18.7617 -0.2589,-54.11031 -19.3683,-67.78927 -17.521,-12.54198 -48.9491,18.07899 -64.5612,3.22805 -11.6944,-11.1243 -12.0774,-37.71354 0,-48.4209 47.0379,-41.70225 137.4443,60.97962 187.2275,22.59642 24.9462,-19.23372 32.4394,-68.89655 12.9123,-93.61376 z"
       id="path4092"
       inkscape:connector-curvature="0" />
    <path
       style="fill:#000000;stroke:#000000;stroke-width:1px;stroke-linecap:butt;stroke-linejoin:miter;stroke-opacity:1"
       d="m -2938.897,707.1673 c -70.4547,-10.04938 -162.6488,0.4841 -205.7143,57.14286 -18.4419,24.26299 -14.9076,64.84737 0,91.42857 39.3097,70.09137 158.5355,87.27311 157.3541,167.62637 -1.3546,92.1302 -167.096,6.4198 -191.6398,95.2308 -9.3143,33.7034 17.7252,82.1143 51.4286,91.4285 118.4146,32.7251 300.8011,-61.5131 320,-182.8571 13.2753,-83.90525 -175.9117,-112.60685 -155.3085,-195.01945 13.7354,-54.94173 137.9083,5.62209 143.8799,-50.69483 4.9606,-46.78188 -73.4272,-67.64277 -120,-74.28572 z"
       id="path4094"
       inkscape:connector-curvature="0"
       sodipodi:nodetypes="ssssssssss" />
    <path
       style="fill:#000000;stroke:#000000;stroke-width:1px;stroke-linecap:butt;stroke-linejoin:miter;stroke-opacity:1"
       d="m -1442.3255,1158.5959 c -96.1794,-103.0569 -94.6344,-323.85541 5.7143,-422.85717 37.9663,-37.4567 117.6442,-32.41036 160,0 75.2258,57.56226 -20.4046,276.75087 74.2857,274.28567 99.3431,-2.5863 -17.9872,-233.63638 62.8571,-291.42853 26.524,-18.96089 76.2477,-13.60002 97.1429,11.42857 97.84728,117.20306 86.84128,357.19006 -28.5714,457.14286 -53.4493,46.2896 -156.6037,27.5088 -211.4286,-17.1429 -63.0935,-51.386 11.6634,-247.83925 -68.5714,-234.28567 -75.22,12.70646 65.5198,174.77897 11.4285,228.57137 -24.3482,24.2137 -79.4282,19.39 -102.8571,-5.7142 z"
       id="path4102"
       inkscape:connector-curvature="0"
       sodipodi:nodetypes="sssssssssss" />
    <path
       style="fill:#000000;stroke:#000000;stroke-width:0.82774335px;stroke-linecap:butt;stroke-linejoin:miter;stroke-opacity:1"
       d="m -875.87886,797.31092 c 108.02531,-84.76796 317.7601,-119.25268 411.5066,-18.91984 37.9195,40.58366 21.3502,127.29614 -18.9198,165.54867 -36.6515,34.81536 -115.61364,-26.28531 -151.35879,9.45992 -53.61782,53.61783 42.66815,176.86933 -14.18984,227.03813 -37.90535,33.4459 -118.79069,29.2022 -151.35883,-9.4599 -47.00076,-55.7952 73.23798,-164.0693 23.64987,-217.57823 -33.23969,-35.86784 -116.70453,43.407 -146.62886,4.72997 -34.19259,-44.19369 3.34118,-126.32429 47.29965,-160.81872 z"
       id="path4106"
       inkscape:connector-curvature="0"
       sodipodi:nodetypes="sssssssss" />
    <path
       sodipodi:nodetypes="sssssssssssss"
       style="fill:#000000;stroke:#000000;stroke-width:1.12982118px;stroke-linecap:butt;stroke-linejoin:miter;stroke-opacity:1"
       d="m -70.784561,803.42718 c -62.324099,-78.88894 -225.773899,-96.63265 -300.209599,-29.05255 -99.5829,90.41111 -98.0292,311.41407 0,403.50757 75.4333,70.8659 258.8702,70.6802 309.893699,-19.3684 17.3194,-30.5659 -18.9948,-74.4214 -48.420799,-93.6137 -43.3453,-28.2707 -121.3439,29.6715 -154.947,-9.6842 -14.7391,-17.2623 -10.3378,-52.5187 6.4562,-67.78926 17.5145,-15.92569 56.7618,18.89886 71.0173,0 14.152,-18.7617 -0.259,-54.11031 -19.3683,-67.78927 -17.5211,-12.54198 -48.9492,18.07899 -64.5613,3.22805 -11.6943,-11.1243 -12.0773,-37.71354 0,-48.4209 47.038,-41.70225 137.4443,60.97962 187.227499,22.59642 24.9463,-19.23372 32.4395,-68.89655 12.9123,-93.61376 z"
       id="path4112"
       inkscape:connector-curvature="0" />
    <path
       sodipodi:nodetypes="ssssssssssssss"
       inkscape:connector-curvature="0"
       id="path4114"
       d="m 223.29624,743.80201 c -108.5714,-2.8571 -157.640601,22.158 -191.446401,88.5626 -53.1539,104.41 -70.7918,310.89029 14.2902,391.43739 35.9884,34.0702 112.792501,28.5808 148.562501,-5.7187 42.7613,-41.0034 -80.2337,-162.3827 -22.8616,-177.1563 71.8841,-18.5105 92.2569,155.4133 160.0178,185.7188 36.0186,16.109 100.4035,18.6133 117.125,-17.125 41.6726,-89.0656 -166.3526,-159.5604 -139.9955,-254.29459 25.3465,-91.1021 111.3826,-206.238 -85.692,-211.4242 z m -40,100 c 20.5135,0 37.125,17.2601 37.125,38.5626 0,21.3024 -16.6115,38.5624 -37.125,38.5624 -20.5134,0 -37.1562,-17.26 -37.1562,-38.5624 0,-21.3025 16.6428,-38.5626 37.1562,-38.5626 z"
       style="fill:#000000;stroke:#000000;stroke-width:1px;stroke-linecap:butt;stroke-linejoin:miter;stroke-opacity:1" />
    <path
       sodipodi:nodetypes="sssssssss"
       inkscape:connector-curvature="0"
       id="path4116"
       d="m 1008.4068,825.88235 c 108.0253,-84.76796 317.7601,-119.25268 411.5066,-18.91984 37.9195,40.58366 21.3502,127.29614 -18.9198,165.54867 -36.6515,34.81532 -115.6136,-26.28531 -151.3588,9.45992 -53.6178,53.6178 42.6682,176.8693 -14.1898,227.0382 -37.9054,33.4458 -118.7907,29.2021 -151.3588,-9.46 -47.0008,-55.7952 73.2379,-164.0693 23.6498,-217.5782 -33.2397,-35.86784 -116.70449,43.407 -146.62879,4.72997 -34.1926,-44.19369 3.3411,-126.32429 47.29959,-160.81872 z"
       style="fill:#000000;stroke:#000000;stroke-width:0.82774335px;stroke-linecap:butt;stroke-linejoin:miter;stroke-opacity:1" />
    <path
       inkscape:connector-curvature="0"
       id="path4118"
       d="m 1647.5806,747.78645 c -113.6136,0 -205.7263,105.93345 -205.7263,236.58898 0,130.65567 92.1127,236.55157 205.7263,236.55157 113.6137,0 205.6888,-105.8959 205.6888,-236.55157 0,-130.65553 -92.0751,-236.58898 -205.6888,-236.58898 z m -6.8626,188.58867 c 30.297,0 54.863,32.97646 54.863,73.68808 0,40.7115 -24.566,73.7254 -54.863,73.7254 -30.2969,0 -54.8628,-33.0139 -54.8628,-73.7254 0,-40.71162 24.5659,-73.68808 54.8628,-73.68808 z"
       style="fill:#000000;fill-opacity:1;fill-rule:nonzero;stroke:none" />
    <path
       sodipodi:nodetypes="ssssssssss"
       inkscape:connector-curvature="0"
       id="path4124"
       d="m 2362.6417,758.59587 c -70.4547,-10.04938 -162.6488,0.4841 -205.7143,57.14286 -18.4419,24.26299 -14.9076,64.84737 0,91.42857 39.3097,70.09137 206.8957,45.36098 205.7143,125.7143 -1.3546,92.1301 -215.4562,48.3318 -240,137.1428 -9.3143,33.7034 17.7252,82.1143 51.4286,91.4286 118.4146,32.7251 300.8011,-61.5131 320,-182.8571 13.2753,-83.90528 -192.0318,-106.15886 -171.4286,-188.57146 13.7354,-54.94173 154.0283,-0.82593 160,-57.14285 4.9606,-46.78188 -73.4272,-67.64277 -120,-74.28572 z"
       style="fill:#000000;stroke:#000000;stroke-width:1px;stroke-linecap:butt;stroke-linejoin:miter;stroke-opacity:1" />
    <path
       style="fill:#000000;stroke:#000000;stroke-width:0.82774335px;stroke-linecap:butt;stroke-linejoin:miter;stroke-opacity:1"
       d="m 2580.5169,825.88235 c 108.0253,-84.76796 317.7601,-119.25268 411.5066,-18.91984 37.9195,40.58366 21.3502,127.29614 -18.9198,165.54867 -36.6515,34.81532 -115.6136,-26.28531 -151.3588,9.45992 -53.6178,53.6178 42.6682,176.8693 -14.1898,227.0382 -37.9054,33.4458 -118.7907,29.2021 -151.3588,-9.46 -47.0008,-55.7952 73.2379,-164.0693 23.6498,-217.5782 -33.2397,-35.86784 -116.7045,43.407 -146.6288,4.72997 -34.1926,-44.19369 3.3411,-126.32429 47.2996,-160.81872 z"
       id="path4126"
       inkscape:connector-curvature="0"
       sodipodi:nodetypes="sssssssss" />
    <path
       id="path4130"
       d="m 3264.9039,788.72861 c -39.7746,-25.81816 -106.0641,-12.11847 -140.8261,20.13373 -98.9951,91.84802 -175.012,293.06446 -87.1728,395.63326 23.3118,27.2209 80.6976,17.2967 107.3066,-6.7113 35.3335,-31.8795 -7.7357,-104.8968 23.471,-140.826 14.6006,-16.8101 43.4647,-29.3824 63.7017,-20.097 61.8901,28.3971 23.6151,150.2816 80.4616,187.768 21.4619,14.1525 61.6327,20.5162 77.1244,0 91.0352,-120.5612 2.6495,-353.64786 -124.0664,-435.90069 z m -103.9326,93.88407 c 9.9177,-10.62561 31.7241,-8.3734 43.6048,0 27.1614,19.14313 52.007,66.27227 33.5195,93.88407 -13.0732,19.52545 -52.8562,18.9916 -70.413,3.37395 -24.2802,-21.59839 -28.8847,-73.5018 -6.7113,-97.25802 z"
       style="fill:#000000;stroke:#000000;stroke-width:1.17355072px;stroke-linecap:butt;stroke-linejoin:miter;stroke-opacity:1"
       inkscape:connector-curvature="0"
       sodipodi:nodetypes="ssssssssssssss" />
    <path
       sodipodi:nodetypes="sssssssssssss"
       style="fill:#000000;stroke:#000000;stroke-width:1.12982118px;stroke-linecap:butt;stroke-linejoin:miter;stroke-opacity:1"
       d="m -1550.7846,757.7129 c -62.3241,-78.889 -225.7739,-96.6327 -300.2096,-29.0526 -99.5829,90.41115 -98.0292,311.4141 0,403.5077 75.4333,70.8658 258.8702,70.6801 309.8937,-19.3685 17.3194,-30.5659 -18.9948,-74.4214 -48.4208,-93.6137 -43.3453,-28.27064 -121.3439,29.6715 -154.947,-9.6842 -14.7391,-17.26233 -10.3378,-52.51867 6.4562,-67.78925 17.5145,-15.92569 56.7618,18.89886 71.0173,0 14.152,-18.7617 -0.259,-54.11031 -19.3683,-67.78927 -17.5211,-12.54198 -48.9492,18.07899 -64.5613,3.22805 -11.6943,-11.1243 -12.0773,-37.71354 0,-48.4209 47.038,-41.70225 137.4443,60.97962 187.2275,22.59642 24.9463,-19.23372 32.4395,-68.89655 12.9123,-93.61375 z"
       id="path4132"
       inkscape:connector-curvature="0" />
    <path
       style="fill:#000000;stroke:#000000;stroke-width:1px;stroke-linecap:butt;stroke-linejoin:miter;stroke-opacity:1"
       d="m 3702.5492,755.23058 c -108.5714,-2.8571 -157.6406,22.158 -191.4464,88.5626 -53.1539,104.41 -70.7918,310.89032 14.2902,391.43742 35.9884,34.0701 112.7925,28.5807 148.5625,-5.7187 42.7613,-41.0034 -80.2337,-162.3827 -22.8616,-177.1563 71.8841,-18.5105 92.2569,155.4133 160.0178,185.7188 36.0186,16.1089 100.4035,18.6132 117.125,-17.125 41.6726,-89.0656 -166.3526,-159.5604 -139.9955,-254.29462 25.3465,-91.1021 111.3826,-206.238 -85.692,-211.4242 z m -40,100 c 20.5135,0 37.125,17.2601 37.125,38.5626 0,21.3024 -16.6115,38.5624 -37.125,38.5624 -20.5134,0 -37.1562,-17.26 -37.1562,-38.5624 0,-21.3025 16.6428,-38.5626 37.1562,-38.5626 z"
       id="path4134"
       inkscape:connector-curvature="0"
       sodipodi:nodetypes="ssssssssssssss" />
    <path
       style="fill:#000000;stroke:#000000;stroke-width:0.82774335px;stroke-linecap:butt;stroke-linejoin:miter;stroke-opacity:1"
       d="m 3983.6598,837.31092 c 108.0253,-84.76796 317.7601,-119.25268 411.5066,-18.91984 37.9195,40.58366 21.3502,127.29614 -18.9198,165.54867 -36.6515,34.81535 -115.6136,-26.28531 -151.3588,9.45992 -53.6178,53.61783 42.6682,176.86933 -14.1898,227.03813 -37.9054,33.4459 -118.7907,29.2022 -151.3588,-9.4599 -47.0008,-55.7952 73.2379,-164.0693 23.6498,-217.57823 -33.2397,-35.86784 -116.7045,43.40703 -146.6288,4.72997 -34.1926,-44.19369 3.3411,-126.32429 47.2996,-160.81872 z"
       id="path4136"
       inkscape:connector-curvature="0"
       sodipodi:nodetypes="sssssssss" />
    <path
       style="fill:#000000;stroke:#000000;stroke-width:1px;stroke-linecap:butt;stroke-linejoin:miter;stroke-opacity:1"
       d="m -1688.0398,455.73872 c -110.2019,-60.49486 -288.821,-89.46138 -377.1428,0 -208.7778,211.47156 -191.8751,674.68898 11.4285,891.42848 101.9437,108.681 336.3821,135.5307 445.7143,34.2857 22.361,-20.707 19.5643,-68.0611 0,-91.4285 -69.5583,-83.0797 -250.4417,25.9368 -320,-57.1428 -136.9501,-163.5719 -148.133,-486.48215 0,-640.00002 74.1137,-76.80787 270.3165,83.03749 320,-11.42857 23.1208,-43.96079 -36.4589,-101.81258 -80,-125.71429 z"
       id="path4138"
       inkscape:connector-curvature="0"
       sodipodi:nodetypes="sssssssss" />
    <path
       inkscape:connector-curvature="0"
       id="path4144"
       d="m 220.53168,535.7387 c 110.20185,-60.49485 288.82098,-89.46137 377.14273,0 208.7778,211.47156 191.8751,674.689 -11.4285,891.4285 -101.94369,108.681 -336.38204,135.5307 -445.71423,34.2857 -22.36104,-20.707 -19.56429,-68.0611 0,-91.4285 69.55827,-83.0797 250.44173,25.9369 320,-57.1428 136.95013,-163.5719 148.13293,-486.48212 0,-640 -74.1137,-76.80788 -270.31647,83.03747 -320,-11.4286 -23.12076,-43.96079 36.45889,-101.81258 80,-125.7143 z"
       style="fill:#000000;stroke:#000000;stroke-width:1px;stroke-linecap:butt;stroke-linejoin:miter;stroke-opacity:1"
       sodipodi:nodetypes="sssssssss" />
    <path
       sodipodi:nodetypes="ssssssssss"
       inkscape:connector-curvature="0"
       id="path4146"
       d="m -2545.5677,707.1673 c -70.4547,-10.04938 -162.6488,0.4841 -205.7143,57.14286 -18.4419,24.26299 -14.9076,64.84737 0,91.42857 39.3097,70.09137 158.5355,87.27311 157.3541,167.62637 -1.3546,92.1302 -167.096,6.4198 -191.6398,95.2308 -9.3143,33.7034 17.7252,82.1143 51.4286,91.4285 118.4146,32.7251 300.8011,-61.5131 320,-182.8571 13.2753,-83.90525 -175.9117,-112.60685 -155.3085,-195.01945 13.7354,-54.94173 137.9083,5.62209 143.8799,-50.69483 4.9606,-46.78188 -73.4272,-67.64277 -120,-74.28572 z"
       style="fill:#000000;stroke:#000000;stroke-width:1px;stroke-linecap:butt;stroke-linejoin:miter;stroke-opacity:1" />
  </g>
</svg>
