<?xml version="1.0" encoding="UTF-8" standalone="no"?>
<!-- Created with Inkscape (http://www.inkscape.org/) -->

<svg
   xmlns:dc="http://purl.org/dc/elements/1.1/"
   xmlns:cc="http://creativecommons.org/ns#"
   xmlns:rdf="http://www.w3.org/1999/02/22-rdf-syntax-ns#"
   xmlns:svg="http://www.w3.org/2000/svg"
   xmlns="http://www.w3.org/2000/svg"
   xmlns:sodipodi="http://sodipodi.sourceforge.net/DTD/sodipodi-0.dtd"
   xmlns:inkscape="http://www.inkscape.org/namespaces/inkscape"
   width="744.09448819"
   height="1052.3622047"
   id="svg3857"
   version="1.1"
   inkscape:version="0.48.4 r9939"
   sodipodi:docname="enter_to_restart_straight.svg">
  <defs
     id="defs3859" />
  <sodipodi:namedview
     id="base"
     pagecolor="#ffffff"
     bordercolor="#666666"
     borderopacity="1.0"
     inkscape:pageopacity="0.0"
     inkscape:pageshadow="2"
     inkscape:zoom="1.6894733"
     inkscape:cx="30.337211"
     inkscape:cy="-2.3418886"
     inkscape:document-units="px"
     inkscape:current-layer="layer1"
     showgrid="false"
     inkscape:window-width="1366"
     inkscape:window-height="721"
     inkscape:window-x="-4"
     inkscape:window-y="24"
     inkscape:window-maximized="1" />
  <metadata
     id="metadata3862">
    <rdf:RDF>
      <cc:Work
         rdf:about="">
        <dc:format>image/svg+xml</dc:format>
        <dc:type
           rdf:resource="http://purl.org/dc/dcmitype/StillImage" />
        <dc:title></dc:title>
      </cc:Work>
    </rdf:RDF>
  </metadata>
  <g
     inkscape:label="Layer 1"
     inkscape:groupmode="layer"
     id="layer1">
    <path
       style="fill:#000000;stroke:#000000;stroke-width:0.04162269px;stroke-linecap:butt;stroke-linejoin:miter;stroke-opacity:1"
       d="m -210.00463,1036.4636 -2.5087,0.4511 -1.53688,1.0977 -0.95493,1.5069 -0.76289,1.6789 -0.47164,1.8563 0.0524,1.9738 0.26202,2.021 0.15721,1.9974 -0.44937,3.5755 -0.74894,3.6995 -0.14979,3.4513 1.3481,2.8309 1.37845,0.8221 1.71945,0.2767 1.71671,-0.2726 1.37019,-0.8262 1.00879,-2.5094 -0.42002,-3.0496 -0.77389,-3.2432 -0.0528,-3.0902 1.59065,-1.6137 2.5769,-0.2403 2.46814,-1.5288 1.26436,-5.4792 -0.91526,-4.1692 -2.40981,-1.488 -2.76814,-0.01 z m 1.13427,3.7825 1.1111,0.2057 0.90753,0.561 0.61198,0.8318 0.22443,1.0185 -0.22443,1.0183 -0.61198,0.8314 -0.90753,0.5606 -1.1111,0.2055 -1.1109,-0.2055 -0.90709,-0.5606 -0.61154,-0.8314 -0.22423,-1.0183 0.22423,-1.0185 0.61154,-0.8318 0.90709,-0.561 z"
       id="path4085"
       inkscape:connector-curvature="0"
       sodipodi:nodetypes="cccccccccccccccccccccccccccccccccccccccccccccc" />
    <path
       sodipodi:nodetypes="cccccccccccccccccccccccccccccccccccccccccccccccccc"
       inkscape:connector-curvature="0"
       id="path4090"
       d="m -188.89521,1037.3934 -3.46757,0.161 -2.57992,0.7337 -1.89492,1.3682 -1.41256,2.0648 -1.57127,4.5876 -0.61264,5.4134 0.6539,5.1948 2.22832,3.9317 1.63038,0.8944 2.00334,0.2187 2.00135,-0.4077 1.62441,-0.9849 0.31269,-2.0963 -1.13901,-2.7126 -1.00514,-2.4723 0.71433,-1.3755 2.23798,0.8281 1.74718,2.8149 1.70942,3.2622 2.12471,2.17 1.52185,0.4469 1.69335,0.085 1.51657,-0.3902 0.99148,-0.9782 -0.39088,-3.1267 -2.74887,-2.9825 -2.88919,-3.0344 -0.8119,-3.2826 1.22245,-3.4566 0.75957,-3.2833 -1.27829,-2.4962 z m -1.95459,4.8866 0.70634,0.148 0.57663,0.4038 0.38868,0.5989 0.1425,0.7336 -0.1425,0.7336 -0.38868,0.5989 -0.57663,0.4038 -0.70634,0.148 -0.70658,-0.148 -0.57713,-0.4038 -0.38919,-0.5989 -0.14273,-0.7336 0.14273,-0.7336 0.38919,-0.5989 0.57713,-0.4038 z"
       style="fill:#000000;stroke:#000000;stroke-width:0.04886489px;stroke-linecap:butt;stroke-linejoin:miter;stroke-opacity:1" />
    <path
       sodipodi:nodetypes="ccccccccccccccccccccccccccccccccccccccccccccccccc"
       style="fill:#000000;stroke:#000000;stroke-width:0.05520859px;stroke-linecap:butt;stroke-linejoin:miter;stroke-opacity:1"
       d="m -159.14737,1040.5863 -3.06547,-2.3125 -4.04747,-1.0813 -4.15843,0.2607 -3.39834,1.7134 -2.72648,4.3118 -0.89461,5.5161 0.91594,5.5314 2.70515,4.3581 3.5705,1.9318 4.44822,0.5436 4.22459,-0.9307 2.89956,-2.4912 0.18955,-1.213 -0.516,-1.2826 -0.94429,-1.1785 -1.09531,-0.9003 -1.8457,-0.3863 -2.11856,0.3528 -2.0293,0.2513 -1.57792,-0.691 -0.36995,-0.7685 -0.0501,-0.9242 0.23879,-0.906 0.49677,-0.7138 0.80534,-0.1985 0.98952,0.2529 0.95965,0.2257 0.71578,-0.2801 0.27519,-0.8104 -0.13897,-0.939 -0.4437,-0.8925 -0.63902,-0.6707 -0.7468,-0.1319 -0.86551,0.2531 -0.84806,0.2319 -0.69442,-0.1953 -0.32407,-0.5254 -0.11152,-0.6653 0.10628,-0.6614 0.32931,-0.514 2.0571,-0.4234 2.46704,0.9146 2.49219,0.9452 2.13255,-0.3322 0.74704,-0.9414 0.38339,-1.2453 -0.0241,-1.2956 z"
       id="path4092"
       inkscape:connector-curvature="0" />
    <path
       style="fill:#000000;stroke:#000000;stroke-width:0.04886489px;stroke-linecap:butt;stroke-linejoin:miter;stroke-opacity:1"
       d="m -144.91222,1038.1163 -2.72715,-0.1601 -2.80086,0.334 -2.54993,0.9452 -1.97433,1.6733 -0.4826,1.0155 -0.12849,1.1758 0.17706,1.197 0.43403,1.0793 2.01987,2.1726 2.56663,1.7349 2.19566,1.8288 0.90701,2.4547 -1.32243,2.0161 -2.93486,0.3715 -3.14736,0.341 -1.9599,1.9249 -0.0309,1.3288 0.49922,1.3519 0.89336,1.1284 1.15147,0.6585 4.75244,0.1123 4.88403,-1.7568 3.97497,-3.1683 2.0253,-4.1225 -1.05372,-2.6524 -2.87513,-2.1397 -2.808,-2.1261 -0.85231,-2.6114 1.34065,-1.1327 2.31696,-0.081 2.24583,-0.093 1.12729,-1.1705 -0.49393,-1.4859 -1.49366,-1.0646 -1.96581,-0.6968 z"
       id="path4094"
       inkscape:connector-curvature="0"
       sodipodi:nodetypes="ccccccccccccccccccccccccccccccccccccc" />
    <path
       style="fill:#000000;stroke:#000000;stroke-width:0.04886489px;stroke-linecap:butt;stroke-linejoin:miter;stroke-opacity:1"
       d="m -71.782461,1060.1754 -2.628639,-4.6728 -0.83297,-5.733 0.967638,-5.6958 2.773185,-4.5613 1.713255,-0.9949 2.115513,-0.2854 2.155722,0.3547 1.833881,0.9256 1.467263,3.2978 -0.009,4.5037 0.169381,3.9536 2.002289,1.6478 1.972342,-1.8813 -0.09759,-4.2274 -0.267081,-4.7332 1.463873,-3.3987 1.144912,-0.4756 1.331672,-0.051 1.280087,0.3518 0.990158,0.7336 2.591921,5.2198 0.61778,6.2655 -1.336089,6.1075 -3.269684,4.7454 -2.339403,1.1302 -2.801116,0.1174 -2.813727,-0.7158 -2.377238,-1.3695 -1.272885,-2.9412 -0.08838,-3.9729 -0.245413,-3.3779 -1.743987,-1.1563 -1.091709,1.6375 0.983742,3.1942 1.177332,3.5706 -0.510936,2.7668 -1.126254,0.628 -1.403645,0.1361 -1.395229,-0.3158 z"
       id="path4102"
       inkscape:connector-curvature="0"
       sodipodi:nodetypes="ccccccccccccccccccccccccccccccccccccccccc" />
    <path
       style="fill:#000000;stroke:#000000;stroke-width:0.04044759px;stroke-linecap:butt;stroke-linejoin:miter;stroke-opacity:1"
       d="m -44.103126,1042.5212 4.724651,-2.5814 5.59112,-1.2727 5.460291,0.4232 4.332161,2.5064 0.913961,1.8378 0.05655,2.2497 -0.659827,2.2283 -1.235165,1.7737 -1.665593,0.5443 -2.049099,-0.3302 -2.040789,-0.3217 -1.640661,0.5698 -0.822989,2.4941 0.535653,3.1162 0.505986,3.0847 -0.91199,2.3993 -1.71327,0.8829 -2.082617,0.2073 -2.033709,-0.4534 -1.566545,-1.0991 -0.44758,-2.4438 1.072826,-2.9141 1.04911,-2.8931 -0.518729,-2.381 -1.599106,-0.4375 -2.044111,0.6046 -2.013752,0.5788 -1.508029,-0.5147 -0.645827,-1.9019 0.369383,-2.205 1.085418,-2.1162 z"
       id="path4106"
       inkscape:connector-curvature="0"
       sodipodi:nodetypes="ccccccccccccccccccccccccccccccccc" />
    <path
       sodipodi:nodetypes="ccccccccccccccccccccccccccccccccccccccccccccccccc"
       style="fill:#000000;stroke:#000000;stroke-width:0.05520859px;stroke-linecap:butt;stroke-linejoin:miter;stroke-opacity:1"
       d="m -4.7622627,1042.8201 -3.0654544,-2.3125 -4.0474559,-1.0813 -4.15843,0.2607 -3.398374,1.7134 -2.72653,4.3118 -0.894603,5.516 0.915964,5.5315 2.705169,4.3581 3.570499,1.9318 4.44824,0.5436 4.224611,-0.9307 2.8996103,-2.4912 0.1895474,-1.213 -0.5160069,-1.2826 -0.9443119,-1.1785 -1.0953676,-0.9003 -1.8456972,-0.3863 -2.1185471,0.3529 -2.029273,0.2512 -1.577871,-0.691 -0.369951,-0.7685 -0.05015,-0.9242 0.238753,-0.906 0.496754,-0.7138 0.805357,-0.1985 0.989535,0.253 0.959661,0.2257 0.715735,-0.2802 0.275129,-0.8104 -0.138948,-0.939 -0.443639,-0.8925 -0.638943,-0.6707 -0.746787,-0.1319 -0.865537,0.2531 -0.848072,0.2319 -0.694394,-0.1953 -0.324067,-0.5255 -0.111543,-0.6652 0.106263,-0.6614 0.329347,-0.514 2.057106,-0.4233 2.467013,0.9146 2.4921726,0.9451 2.1325837,-0.3322 0.7470387,-0.9414 0.383374,-1.2453 -0.024107,-1.2956 z"
       id="path4112"
       inkscape:connector-curvature="0" />
    <path
       sodipodi:nodetypes="cccccccccccccccccccccccccccccccccccccccccccccccccc"
       inkscape:connector-curvature="0"
       id="path4114"
       d="m 9.6079755,1039.9065 -3.4676106,0.1609 -2.5799198,0.7337 -1.8948972,1.3682 -1.41254264,2.0648 -1.57128716,4.5876 -0.612642,5.4135 0.6538776,5.1948 2.22827166,3.9317 1.63037034,0.8944 2.003364,0.2187 2.001367,-0.4077 1.6243798,-0.9849 0.3127143,-2.0964 -1.1390129,-2.7126 -1.005124,-2.4723 0.7143809,-1.3754 2.2379924,0.8282 1.7471448,2.8148 1.709375,3.2622 2.124687,2.1699 1.52191,0.4469 1.693384,0.085 1.516573,-0.3903 0.991475,-0.9782 -0.390937,-3.1267 -2.748867,-2.9825 -2.889199,-3.0344 -0.811933,-3.2824 1.22247,-3.4567 0.7596,-3.2833 -1.278258,-2.4961 z m -1.9545927,4.8865 0.7063456,0.148 0.5766293,0.4038 0.388681,0.5989 0.1425008,0.7336 -0.1425008,0.7336 -0.388681,0.599 -0.5766293,0.4038 -0.7063456,0.148 -0.7065757,-0.148 -0.5771358,-0.4038 -0.3891876,-0.599 -0.142731,-0.7336 0.142731,-0.7336 0.3891876,-0.5989 0.5771358,-0.4038 z"
       style="fill:#000000;stroke:#000000;stroke-width:0.04886489px;stroke-linecap:butt;stroke-linejoin:miter;stroke-opacity:1" />
    <path
       sodipodi:nodetypes="ccccccccccccccccccccccccccccccccc"
       inkscape:connector-curvature="0"
       id="path4116"
       d="m 47.972324,1043.9173 4.724651,-2.5814 5.591121,-1.2727 5.46029,0.4232 4.332161,2.5064 0.913991,1.8378 0.05654,2.2497 -0.659844,2.2284 -1.235175,1.7737 -1.665592,0.5443 -2.049099,-0.3302 -2.040789,-0.3218 -1.640662,0.5699 -0.822938,2.4941 0.535638,3.1162 0.505929,3.0846 -0.91206,2.3993 -1.713268,0.8829 -2.082595,0.2073 -2.033699,-0.4533 -1.56658,-1.0991 -0.447616,-2.4438 1.07284,-2.9141 1.049159,-2.8932 -0.518664,-2.3809 -1.59914,-0.4375 -2.04413,0.6045 -2.013745,0.5789 -1.507983,-0.5148 -0.645788,-1.9019 0.369357,-2.205 1.085386,-2.1162 z"
       style="fill:#000000;stroke:#000000;stroke-width:0.04044759px;stroke-linecap:butt;stroke-linejoin:miter;stroke-opacity:1" />
    <path
       inkscape:connector-curvature="0"
       id="path4118"
       d="m 79.205472,1040.1012 -3.912872,0.9086 -3.195422,2.4777 -2.154481,3.6747 -0.790047,4.4999 0.790047,4.4995 2.154481,3.6742 3.195422,2.477 3.912872,0.9083 3.912582,-0.9083 3.194788,-2.477 2.153847,-3.6742 0.78976,-4.4995 -0.78976,-4.4999 -2.153847,-3.6747 -3.194788,-2.4777 z m -0.335297,9.2154 1.043431,0.2829 0.852133,0.7715 0.574553,1.1445 0.210691,1.4018 -0.210691,1.4022 -0.574553,1.1451 -0.852133,0.7722 -1.043431,0.2831 -1.043484,-0.2831 -0.85216,-0.7722 -0.574563,-1.1451 -0.210693,-1.4022 0.210693,-1.4018 0.574563,-1.1445 0.85216,-0.7715 z"
       style="fill:#000000;fill-opacity:1;fill-rule:nonzero;stroke:none"
       sodipodi:nodetypes="cccccccccccccccccccccccccccccccccc" />
    <path
       style="fill:#000000;stroke:#000000;stroke-width:0.04886489px;stroke-linecap:butt;stroke-linejoin:miter;stroke-opacity:1"
       d="m 113.96941,1039.9065 -3.46761,0.1609 -2.57992,0.7337 -1.8949,1.3682 -1.41254,2.0648 -1.57128,4.5876 -0.61264,5.4135 0.65391,5.1948 2.22832,3.9317 1.63034,0.8944 2.00335,0.2187 2.00137,-0.4077 1.62442,-0.9849 0.31272,-2.0964 -1.13903,-2.7126 -1.00515,-2.4723 0.71433,-1.3754 2.23799,0.8281 1.74714,2.8149 1.70938,3.2622 2.12469,2.1699 1.52191,0.4469 1.69338,0.085 1.51657,-0.3903 0.99148,-0.9782 -0.39093,-3.1267 -2.74886,-2.9825 -2.88917,-3.0344 -0.81188,-3.2824 1.22249,-3.4567 0.75956,-3.2833 -1.27831,-2.4961 z m -1.95459,4.8865 0.70634,0.148 0.57663,0.4038 0.38868,0.5989 0.1425,0.7336 -0.1425,0.7336 -0.38868,0.599 -0.57663,0.4038 -0.70634,0.148 -0.70658,-0.148 -0.57714,-0.4038 -0.38919,-0.599 -0.14273,-0.7336 0.14273,-0.7336 0.38919,-0.5989 0.57714,-0.4038 z"
       id="path4120"
       inkscape:connector-curvature="0"
       sodipodi:nodetypes="cccccccccccccccccccccccccccccccccccccccccccccccccc" />
    <path
       inkscape:connector-curvature="0"
       id="path4122"
       d="m 143.71725,1043.0993 -3.06547,-2.3125 -4.04748,-1.0813 -4.15843,0.2607 -3.39833,1.7134 -2.72653,4.3119 -0.8946,5.516 0.91596,5.5315 2.70517,4.358 3.57051,1.9318 4.44823,0.5436 4.22457,-0.9307 2.89955,-2.4912 0.18953,-1.213 -0.51599,-1.2826 -0.94427,-1.1784 -1.09531,-0.9003 -1.84573,-0.3863 -2.11855,0.3528 -2.02929,0.2512 -1.57791,-0.691 -0.36996,-0.7685 -0.0501,-0.9242 0.23879,-0.906 0.49681,-0.7138 0.80532,-0.1984 0.9895,0.2529 0.95964,0.2257 0.71573,-0.2802 0.27512,-0.8103 -0.13895,-0.9391 -0.44363,-0.8925 -0.63894,-0.6706 -0.74682,-0.1319 -0.86553,0.2531 -0.84806,0.2319 -0.69438,-0.1954 -0.32404,-0.5255 -0.11152,-0.6652 0.10626,-0.6614 0.3293,-0.5139 2.05718,-0.4234 2.46703,0.9147 2.49214,0.945 2.13253,-0.3322 0.74704,-0.9414 0.3834,-1.2453 -0.0241,-1.2956 z"
       style="fill:#000000;stroke:#000000;stroke-width:0.05520859px;stroke-linecap:butt;stroke-linejoin:miter;stroke-opacity:1"
       sodipodi:nodetypes="ccccccccccccccccccccccccccccccccccccccccccccccccc" />
    <path
       sodipodi:nodetypes="ccccccccccccccccccccccccccccccccccccc"
       inkscape:connector-curvature="0"
       id="path4124"
       d="m 157.9523,1040.6294 -2.72713,-0.1602 -2.80083,0.3341 -2.5499,0.9452 -1.97432,1.6732 -0.48265,1.0156 -0.12847,1.1757 0.17708,1.197 0.43404,1.0793 2.38916,1.8527 3.37893,1.0308 3.00793,1.1249 1.27616,2.1347 -1.6917,2.336 -3.74714,1.0755 -3.95961,1.0451 -2.3291,2.2448 -0.0309,1.3288 0.49922,1.3519 0.89336,1.1285 1.15147,0.6585 4.75238,0.1124 4.88401,-1.7568 3.975,-3.1684 2.02535,-4.1225 -1.17677,-2.6032 -3.14592,-2.0314 -3.07879,-2.0178 -0.97541,-2.5622 1.46373,-1.182 2.58774,-0.1892 2.51662,-0.2016 1.25037,-1.2195 -0.49391,-1.4859 -1.49368,-1.0645 -1.96585,-0.6968 z"
       style="fill:#000000;stroke:#000000;stroke-width:0.04886489px;stroke-linecap:butt;stroke-linejoin:miter;stroke-opacity:1" />
    <path
       style="fill:#000000;stroke:#000000;stroke-width:0.04044759px;stroke-linecap:butt;stroke-linejoin:miter;stroke-opacity:1"
       d="m 168.59882,1043.9173 4.72465,-2.5814 5.5911,-1.2727 5.46028,0.4232 4.33217,2.5064 0.91399,1.8378 0.0565,2.2497 -0.65985,2.2284 -1.23519,1.7737 -1.66557,0.5443 -2.04909,-0.3303 -2.0408,-0.3217 -1.64068,0.5699 -0.82296,2.4941 0.53564,3.1162 0.50595,3.0846 -0.91201,2.3993 -1.71329,0.883 -2.08262,0.2072 -2.03369,-0.4533 -1.56654,-1.0991 -0.4476,-2.4438 1.07283,-2.9141 1.04912,-2.8932 -0.51872,-2.3809 -1.59912,-0.4375 -2.04412,0.6046 -2.01374,0.5788 -1.50802,-0.5148 -0.64579,-1.9019 0.36939,-2.205 1.08542,-2.1162 z"
       id="path4126"
       inkscape:connector-curvature="0"
       sodipodi:nodetypes="ccccccccccccccccccccccccccccccccc" />
    <path
       id="path4130"
       d="m 202.04129,1042.1019 -1.65631,-0.6002 -1.87627,0.028 -1.83035,0.56 -1.51853,0.996 -3.30996,4.2093 -2.24351,5.2606 -0.5317,5.3587 1.82549,4.504 1.11703,0.6749 1.44432,0.1 1.47452,-0.3695 1.20765,-0.7332 0.69318,-1.4855 -0.0441,-1.881 -0.0819,-1.9181 0.57972,-1.5969 0.6483,-0.5638 0.8048,-0.4054 0.85646,-0.1663 0.80323,0.1535 1.49957,1.7614 0.55873,2.6596 0.51251,2.743 1.36092,2.0113 0.92484,0.4327 1.0689,0.2026 1.0142,-0.1151 0.76074,-0.5202 1.80016,-5.2482 -0.8413,-6.1038 -2.83635,-5.7528 z m -5.07866,4.5876 0.45574,-0.2766 0.57366,-0.072 0.59165,0.1025 0.5097,0.2456 0.94287,0.9217 0.71256,1.2169 0.29433,1.2945 -0.31183,1.1545 -0.68648,0.5356 -0.95173,0.1908 -0.99281,-0.1312 -0.80971,-0.4303 -0.70416,-1.0246 -0.31106,-1.3121 0.11456,-1.3319 z"
       style="fill:#000000;stroke:#000000;stroke-width:0.05734543px;stroke-linecap:butt;stroke-linejoin:miter;stroke-opacity:1"
       inkscape:connector-curvature="0"
       sodipodi:nodetypes="cccccccccccccccccccccccccccccccccccccccccccccccccc" />
    <path
       sodipodi:nodetypes="ccccccccccccccccccccccccccccccccccccccccccccccccc"
       style="fill:#000000;stroke:#000000;stroke-width:0.05520859px;stroke-linecap:butt;stroke-linejoin:miter;stroke-opacity:1"
       d="m -77.082285,1040.5863 -3.065454,-2.3125 -4.047457,-1.0813 -4.15843,0.2607 -3.398376,1.7134 -2.726508,4.3118 -0.894605,5.516 0.915952,5.5315 2.705161,4.3581 3.570499,1.9318 4.448242,0.5436 4.224612,-0.9307 2.89961,-2.4912 0.189535,-1.213 -0.516029,-1.2826 -0.944316,-1.1785 -1.095329,-0.9003 -1.845701,-0.3863 -2.118557,0.3528 -2.029297,0.2513 -1.577924,-0.691 -0.369947,-0.7685 -0.05012,-0.9242 0.23879,-0.906 0.496771,-0.7138 0.805357,-0.1985 0.989535,0.2529 0.959661,0.2257 0.715736,-0.2801 0.275167,-0.8104 -0.138962,-0.9391 -0.443688,-0.8925 -0.63901,-0.6706 -0.746803,-0.1319 -0.865502,0.2531 -0.848024,0.2319 -0.69437,-0.1953 -0.324088,-0.5255 -0.11154,-0.6652 0.106274,-0.6614 0.329354,-0.514 2.057125,-0.4233 2.467001,0.9146 2.492134,0.9451 2.132523,-0.3322 0.747068,-0.9414 0.3834,-1.2453 -0.02408,-1.2956 z"
       id="path4132"
       inkscape:connector-curvature="0" />
    <path
       style="fill:#000000;stroke:#000000;stroke-width:0.04886489px;stroke-linecap:butt;stroke-linejoin:miter;stroke-opacity:1"
       d="m 223.42677,1040.465 -3.4676,0.161 -2.57992,0.7336 -1.89492,1.3682 -1.41256,2.0647 -1.57132,4.5876 -0.61263,5.4135 0.65392,5.1948 2.22832,3.9317 1.63041,0.8944 2.00335,0.2187 2.00134,-0.4077 1.62439,-0.9848 0.31276,-2.0964 -1.13903,-2.7126 -1.00518,-2.4724 0.71432,-1.3754 2.23802,0.8282 1.74717,2.8149 1.70939,3.2621 2.12467,2.1699 1.5219,0.4469 1.69337,0.085 1.51657,-0.3903 0.99146,-0.9782 -0.39097,-3.1267 -2.74886,-2.9824 -2.88916,-3.0345 -0.81187,-3.2824 1.22248,-3.4567 0.75959,-3.2833 -1.27829,-2.4961 z m -1.95459,4.8864 0.70634,0.1481 0.57662,0.4038 0.38866,0.5989 0.14249,0.7336 -0.14249,0.7336 -0.38866,0.5989 -0.57662,0.4038 -0.70634,0.1481 -0.70657,-0.1481 -0.57713,-0.4038 -0.38919,-0.5989 -0.14273,-0.7336 0.14273,-0.7336 0.38919,-0.5989 0.57713,-0.4038 z"
       id="path4134"
       inkscape:connector-curvature="0"
       sodipodi:nodetypes="cccccccccccccccccccccccccccccccccccccccccccccccccc" />
    <path
       style="fill:#000000;stroke:#000000;stroke-width:0.04044759px;stroke-linecap:butt;stroke-linejoin:miter;stroke-opacity:1"
       d="m 237.16322,1044.4758 4.72465,-2.5814 5.59111,-1.2727 5.46029,0.4232 4.33217,2.5063 0.91399,1.8378 0.0566,2.2497 -0.65986,2.2284 -1.23519,1.7737 -1.6656,0.5443 -2.04908,-0.3302 -2.04078,-0.3217 -1.64067,0.5699 -0.82293,2.494 0.53564,3.1163 0.50593,3.0846 -0.91203,2.3993 -1.71325,0.8829 -2.0826,0.2073 -2.03371,-0.4534 -1.56656,-1.0991 -0.4476,-2.4437 1.07283,-2.9141 1.04912,-2.8932 -0.51871,-2.3809 -1.59914,-0.4375 -2.04412,0.6045 -2.01374,0.5788 -1.508,-0.5147 -0.6458,-1.9019 0.36938,-2.205 1.08542,-2.1162 z"
       id="path4136"
       inkscape:connector-curvature="0"
       sodipodi:nodetypes="ccccccccccccccccccccccccccccccccc" />
    <path
       style="fill:#000000;stroke:#000000;stroke-width:0.04886489px;stroke-linecap:butt;stroke-linejoin:miter;stroke-opacity:1"
       d="m -83.789231,1025.8303 -4.544426,-1.8618 -5.071043,-0.886 -4.870576,0.4879 -3.943024,2.2599 -5.61373,9.6763 -1.6582,12.007 2.11738,12.0552 5.71298,9.8211 4.753355,3.1979 6.001148,1.4865 6.068852,-0.4369 4.956469,-2.5722 0.595386,-0.9643 0.172841,-1.2207 -0.211273,-1.2451 -0.556954,-1.0375 -3.399151,-1.5782 -4.419189,0.182 -4.419206,0.182 -3.3992,-1.5781 -3.841116,-7.2036 -1.382852,-8.6174 1.229129,-8.5253 3.994839,-6.9272 3.629683,-1.0215 4.636368,1.0659 4.412529,0.904 2.958166,-1.5069 0.165006,-1.7018 -0.898069,-1.7373 -1.508834,-1.5534 z"
       id="path4138"
       inkscape:connector-curvature="0"
       sodipodi:nodetypes="ccccccccccccccccccccccccccccccccc" />
    <path
       inkscape:connector-curvature="0"
       id="path4144"
       d="m 9.4728807,1029.7395 4.5444253,-1.8618 5.071043,-0.886 4.870576,0.4879 3.943025,2.2599 5.61371,9.6763 1.658188,12.0069 -2.117391,12.0553 -5.713028,9.8211 -4.753334,3.1979 -6.001117,1.4865 -6.068825,-0.4368 -4.9564577,-2.5722 -0.5954116,-0.9644 -0.1728376,-1.2207 0.211287,-1.2451 0.5569622,-1.0375 3.399134,-1.5781 4.4191897,0.1819 4.419213,0.182 3.399204,-1.5781 3.841103,-7.2036 1.382832,-8.6174 -1.229135,-8.5253 -3.9948,-6.9272 -3.629672,-1.0215 -4.636367,1.0658 -4.4125328,0.9041 -2.9581689,-1.5069 -0.1650057,-1.7018 0.898069,-1.7373 1.5088337,-1.5534 z"
       style="fill:#000000;stroke:#000000;stroke-width:0.04886489px;stroke-linecap:butt;stroke-linejoin:miter;stroke-opacity:1"
       sodipodi:nodetypes="ccccccccccccccccccccccccccccccccc" />
    <path
       sodipodi:nodetypes="ccccccccccccccccccccccccccccccccccccc"
       inkscape:connector-curvature="0"
       id="path4146"
       d="m -125.69229,1038.1163 -2.72713,-0.1601 -2.80084,0.334 -2.54989,0.9452 -1.97432,1.6733 -0.48262,1.0155 -0.12848,1.1758 0.17707,1.197 0.43403,1.0793 2.01987,2.1726 2.56662,1.7349 2.19564,1.8288 0.90695,2.4547 -1.32246,2.0161 -2.93483,0.3715 -3.1473,0.341 -1.95987,1.9249 -0.0309,1.3288 0.49921,1.3519 0.89333,1.1284 1.15142,0.6585 4.75243,0.1123 4.88404,-1.7567 3.97501,-3.1684 2.02536,-4.1225 -1.05369,-2.6524 -2.87514,-2.1397 -2.80801,-2.1261 -0.85232,-2.6114 1.34065,-1.1327 2.31694,-0.081 2.24581,-0.093 1.12724,-1.1705 -0.49394,-1.4859 -1.49365,-1.0646 -1.96579,-0.6968 z"
       style="fill:#000000;stroke:#000000;stroke-width:0.04886489px;stroke-linecap:butt;stroke-linejoin:miter;stroke-opacity:1" />
  </g>
</svg>
