<?xml version="1.0" encoding="UTF-8" standalone="no"?>
<!-- Created with Inkscape (http://www.inkscape.org/) -->

<svg
   xmlns:dc="http://purl.org/dc/elements/1.1/"
   xmlns:cc="http://creativecommons.org/ns#"
   xmlns:rdf="http://www.w3.org/1999/02/22-rdf-syntax-ns#"
   xmlns:svg="http://www.w3.org/2000/svg"
   xmlns="http://www.w3.org/2000/svg"
   xmlns:sodipodi="http://sodipodi.sourceforge.net/DTD/sodipodi-0.dtd"
   xmlns:inkscape="http://www.inkscape.org/namespaces/inkscape"
   width="744.09448819"
   height="1052.3622047"
   id="svg2"
   version="1.1"
   inkscape:version="0.48.4 r9939"
   sodipodi:docname="game_over.svg">
  <defs
     id="defs4" />
  <sodipodi:namedview
     id="base"
     pagecolor="#ffffff"
     bordercolor="#666666"
     borderopacity="1.0"
     inkscape:pageopacity="0.0"
     inkscape:pageshadow="2"
     inkscape:zoom="0.35"
     inkscape:cx="375"
     inkscape:cy="-52.818247"
     inkscape:document-units="px"
     inkscape:current-layer="layer1"
     showgrid="false"
     inkscape:window-width="1366"
     inkscape:window-height="721"
     inkscape:window-x="-4"
     inkscape:window-y="24"
     inkscape:window-maximized="1" />
  <metadata
     id="metadata7">
    <rdf:RDF>
      <cc:Work
         rdf:about="">
        <dc:format>image/svg+xml</dc:format>
        <dc:type
           rdf:resource="http://purl.org/dc/dcmitype/StillImage" />
        <dc:title></dc:title>
      </cc:Work>
    </rdf:RDF>
  </metadata>
  <g
     inkscape:label="Layer 1"
     inkscape:groupmode="layer"
     id="layer1">
    <path
       style="fill:#000000;stroke:#000000;stroke-width:1px;stroke-linecap:butt;stroke-linejoin:miter;stroke-opacity:1"
       d="m -302.85714,238.07647 c 0,0 -162.85714,20 -160,91.42857 2.85714,71.42858 188.57143,82.85715 188.57143,82.85715 l 0,-57.14286 -77.14286,8.57143 0,-57.14286 145.71429,17.14286 -22.85715,202.85714 -54.28571,-17.14286 0,-57.14285 c 0,0 -268.57143,11.42857 -251.42857,-120 C -517.14285,200.93362 -260,166.6479 -260,166.6479 c 0,0 -45.71428,94.28572 -42.85714,71.42857 z"
       id="path2985"
       inkscape:connector-curvature="0" />
    <path
       style="fill:#000000;stroke:#000000;stroke-width:1px;stroke-linecap:butt;stroke-linejoin:miter;stroke-opacity:1"
       d="M 28.5625 149.5 L -91.4375 166.65625 L -165.71875 503.78125 L -74.28125 498.0625 L -54.28125 378.0625 L 0 360.9375 L 68.5625 520.9375 L 134.28125 520.9375 L 28.5625 149.5 z M -60 229.5 L -22.84375 229.5 L 5.71875 309.5 L -54.28125 312.375 L -60 229.5 z "
       id="path2987" />
    <path
       style="fill:#000000;stroke:#000000;stroke-width:1px;stroke-linecap:butt;stroke-linejoin:miter;stroke-opacity:1"
       d="m 160,509.50504 11.42857,-340 97.14286,-5.71429 L 320,275.21933 l 42.85714,-114.28572 100,-2.85714 L 460,515.21933 l -82.85714,-8.57143 5.71428,-188.57143 -45.71428,80 -54.28572,-74.28572 -11.42857,177.14286 z"
       id="path2992"
       inkscape:connector-curvature="0"
       sodipodi:nodetypes="ccccccccccccc" />
    <path
       style="fill:#000000;stroke:#000000;stroke-width:1px;stroke-linecap:butt;stroke-linejoin:miter;stroke-opacity:1"
       d="m 774.28571,186.6479 -265.71428,-25.71429 0,357.14286 L 782.85714,500.93361 740,418.07647 l -137.14286,-8.57143 5.71429,-60 62.85714,0 -17.14286,-60 -57.14285,2.85714 0,-42.85714 165.71428,20 z"
       id="path2994"
       inkscape:connector-curvature="0" />
    <path
       inkscape:connector-curvature="0"
       id="path2998"
       d="m -391.42857,778.07647 c 3.444,-27.55202 -162.85714,20 -160,91.42857 2.85714,71.42858 131.08194,120.39101 188.57143,82.85715 15.94932,-10.41302 14.19292,-44.43959 0,-57.14286 -19.27835,-17.25495 -57.86451,25.82638 -77.14286,8.57143 -14.19292,-12.70327 -14.23382,-44.48544 0,-57.14286 36.54656,-32.49901 115.31565,-21.16849 145.71429,17.14286 42.29578,53.30528 34.19705,165.77344 -22.85715,202.85714 -15.91054,10.3414 -43.0684,-1.8373 -54.28571,-17.1429 -11.2596,-15.3634 18.88929,-59.59346 0,-57.14281 -55.25926,7.1692 -254.28572,114.28571 -251.42857,-120 1.61625,-132.53201 198.63743,-241.13158 274.28571,-165.71429 19.66383,19.60379 -45.71428,94.28572 -42.85714,71.42857 z"
       style="fill:#000000;stroke:#000000;stroke-width:1px;stroke-linecap:butt;stroke-linejoin:miter;stroke-opacity:1"
       sodipodi:nodetypes="sssssssssssss" />
    <path
       id="path3000"
       d="m -31.4375,686.64285 c -33.89251,-22.00004 -90.37886,-10.32633 -120,17.15625 -84.35523,78.26505 -149.13029,249.72457 -74.28125,337.125 19.86429,23.1953 68.76359,14.7387 91.4375,-5.7188 30.10823,-27.165 -6.59166,-89.38414 20,-119.99995 12.44138,-14.32414 37.036962,-25.03723 54.28125,-17.125 52.7374021,24.1976 20.122629,128.05725 68.5625001,159.99995 18.2879519,12.0596 52.5180559,17.4822 65.7187459,0 C 151.85373,955.3483 76.538966,756.73169 -31.4375,686.64285 z m -88.5625,80 c 8.45099,-9.05424 27.032571,-7.1351 37.15625,0 23.144576,16.31214 44.315939,56.47158 28.5625,80 -11.139915,16.63793 -45.039561,16.18303 -60,2.875 -20.6895,-18.40431 -24.61305,-62.63198 -5.71875,-82.875 z"
       style="fill:#000000;stroke:#000000;stroke-width:1px;stroke-linecap:butt;stroke-linejoin:miter;stroke-opacity:1"
       inkscape:connector-curvature="0"
       sodipodi:nodetypes="ssssssssssssss" />
    <path
       sodipodi:nodetypes="sssssssssssss"
       inkscape:connector-curvature="0"
       id="path3002"
       d="M 171.42857,1032.3621 C 89.532559,953.92747 103.68795,773.54835 182.85714,692.36218 205.50322,669.13915 252.1755,669.97601 280,686.64789 c 35.09106,21.02586 10.54823,112.93442 51.42857,111.42858 40.65816,-1.49765 9.75087,-90.63612 42.85714,-114.28572 27.13464,-19.38374 76.17896,-26.1933 100,-2.85714 85.04315,83.31208 85.86823,277.76369 -2.85714,357.14279 -20.69347,18.5136 -64.57531,12.3272 -82.85714,-8.5714 -41.40507,-47.33144 66.24213,-171.51184 5.71428,-188.57139 -29.56165,-8.33184 -15.04901,78.28197 -45.71428,80 -30.62102,1.71555 -24.83943,-82.85928 -54.28572,-74.28572 -56.81131,16.54113 30.15216,135.04562 -11.42857,177.14281 -26.17846,26.5036 -84.5246,34.3383 -111.42857,8.5714 z"
       style="fill:#000000;stroke:#000000;stroke-width:1px;stroke-linecap:butt;stroke-linejoin:miter;stroke-opacity:1" />
    <path
       inkscape:connector-curvature="0"
       id="path3004"
       d="M 868.57142,712.36219 C 813.40859,642.53792 668.73998,626.83303 602.85714,686.6479 c -88.14045,80.02249 -86.76516,275.63127 0,357.1429 66.76566,62.7231 229.12496,62.5587 274.28571,-17.1429 15.32929,-27.05381 -16.81228,-65.87014 -42.85714,-82.85714 -38.36466,-25.02223 -107.40094,26.26214 -137.14286,-8.57143 -13.04551,-15.27883 -9.15003,-46.48407 5.71429,-60 15.50199,-14.09576 50.23971,16.7273 62.85714,0 12.52586,-16.6059 -0.22928,-47.89281 -17.14286,-60 -15.50773,-11.10085 -43.32471,16.00164 -57.14285,2.85714 -10.35067,-9.84607 -10.68959,-33.3801 0,-42.85714 41.63303,-36.91047 121.65138,53.97281 165.71428,20 22.07981,-17.02369 28.712,-60.98004 11.42857,-82.85714 z"
       style="fill:#000000;stroke:#000000;stroke-width:1px;stroke-linecap:butt;stroke-linejoin:miter;stroke-opacity:1"
       sodipodi:nodetypes="sssssssssssss" />
    <path
       style="fill:#000000;fill-opacity:1;fill-rule:nonzero;stroke:none"
       d="m -425.70536,1149.5 c -94.67739,0 -171.4375,88.2773 -171.4375,197.1562 0,108.879 76.76011,197.125 171.4375,197.125 94.67739,0 171.40625,-88.246 171.40625,-197.125 0,-108.8789 -76.72886,-197.1562 -171.40625,-197.1562 z m -5.71875,157.1562 c 25.2473,0 45.71875,27.4802 45.71875,61.4063 0,33.9261 -20.47145,61.4375 -45.71875,61.4375 -25.2473,0 -45.71875,-27.5114 -45.71875,-61.4375 0,-33.9261 20.47145,-61.4063 45.71875,-61.4063 z"
       id="path3038"
       inkscape:connector-curvature="0" />
    <path
       style="fill:#000000;stroke:#000000;stroke-width:1px;stroke-linecap:butt;stroke-linejoin:miter;stroke-opacity:1"
       d="m -217.14286,1218.0765 c -56.43739,78.132 -4.20588,210.9725 60,282.8571 22.06862,24.7079 64.353253,45.6256 94.285713,31.4286 111.390414,-52.8325 209.889367,-250.6196 131.428576,-345.7143 -28.299764,-34.2994 -99.263426,-7.8467 -131.428576,22.8572 -44.459523,42.4397 21.46186,180.4664 -40.000003,180 -61.26232,-0.4649 12.420673,-143.9896 -37.14285,-180 -20.93124,-15.2076 -61.9932,-12.4018 -77.14286,8.5714 z"
       id="path3043"
       inkscape:connector-curvature="0"
       sodipodi:nodetypes="ssssssss" />
    <path
       style="fill:#000000;stroke:#000000;stroke-width:1px;stroke-linecap:butt;stroke-linejoin:miter;stroke-opacity:1"
       d="m 425.71428,1155.2193 c 0,0 -157.21778,-33.7665 -211.42857,11.4286 -88.00345,73.3678 -150.034169,243.6069 -80,334.2857 56.48002,73.1292 208.50561,67.5754 277.14286,5.7143 17.03765,-15.3556 19.2934,-50.0867 5.71429,-68.5714 -33.51423,-45.6216 -130.33304,7.0465 -165.71429,-37.1429 -7.73827,-9.6647 0,-25.7143 0,-37.1428 0,-11.4286 96.99024,36.285 125.71429,5.7143 24.26999,-25.8303 16.85875,-84.3587 -11.42858,-105.7143 -26.99134,-20.3772 -74.14446,38.9431 -100,17.1428 -8.00917,-6.753 -7.64628,-24.2672 0,-31.4285 42.49329,-39.7981 171.42858,22.8571 174.28572,11.4285 2.85714,-11.4285 11.3911,-107.1022 -14.28572,-105.7143 z"
       id="path3045"
       inkscape:connector-curvature="0"
       sodipodi:nodetypes="sssssssssssss" />
    <path
       style="fill:#000000;stroke:#000000;stroke-width:1px;stroke-linecap:butt;stroke-linejoin:miter;stroke-opacity:1"
       d="m 691.44197,1118.0848 c -108.57143,-2.8571 -157.64064,22.158 -191.44643,88.5626 -53.15387,104.41 -70.79177,310.8903 14.29018,391.4374 35.98841,34.0702 112.79253,28.5808 148.5625,-5.7187 42.76131,-41.0034 -80.23366,-162.3827 -22.86161,-177.1563 71.88415,-18.5105 92.25689,155.4133 160.01786,185.7188 36.01857,16.109 100.40352,18.6133 117.125,-17.125 41.67257,-89.0656 -166.35262,-159.5604 -139.99553,-254.2946 25.34651,-91.1021 111.38265,-206.238 -85.69197,-211.4242 z m -40,100 c 20.51343,0 37.125,17.2601 37.125,38.5626 0,21.3024 -16.61157,38.5624 -37.125,38.5624 -20.51343,0 -37.15625,-17.26 -37.15625,-38.5624 0,-21.3025 16.64282,-38.5626 37.15625,-38.5626 z"
       id="path3047"
       inkscape:connector-curvature="0"
       sodipodi:nodetypes="ssssssssssssss" />
    <path
       id="path3052"
       d="m 1040.0089,129.5 c -94.67736,0 -171.43747,88.2773 -171.43747,197.1562 0,108.879 76.76011,197.125 171.43747,197.125 94.6774,0 171.4063,-88.246 171.4063,-197.125 0,-108.8789 -76.7289,-197.1562 -171.4063,-197.1562 z m -5.7187,157.1562 c 25.2473,0 45.7187,27.4802 45.7187,61.4063 0,33.9261 -20.4714,61.4375 -45.7187,61.4375 -25.2473,0 -45.71877,-27.5114 -45.71877,-61.4375 0,-33.9261 20.47147,-61.4063 45.71877,-61.4063 z"
       style="fill:#000000;fill-opacity:1;fill-rule:nonzero;stroke:none"
       inkscape:connector-curvature="0" />
    <path
       inkscape:connector-curvature="0"
       id="path3054"
       d="m 1228.5714,192.3622 60,282.8571 94.2857,31.4286 131.4286,-345.7143 -131.4286,22.8572 -40,180 -37.1428,-180 z"
       style="fill:#000000;stroke:#000000;stroke-width:1px;stroke-linecap:butt;stroke-linejoin:miter;stroke-opacity:1" />
    <path
       inkscape:connector-curvature="0"
       id="path3056"
       d="m 1762.8571,169.505 -211.4285,11.4286 -80,334.2857 277.1428,5.7143 5.7143,-68.5714 -165.7143,-37.1429 c 0,0 0,-25.7143 0,-37.1428 0,-11.4286 125.7143,5.7143 125.7143,5.7143 l -11.4286,-105.7143 -100,17.1428 0,-31.4285 c 0,0 171.4286,22.8571 174.2858,11.4285 2.8571,-11.4285 -14.2858,-80 -14.2858,-105.7143 z"
       style="fill:#000000;stroke:#000000;stroke-width:1px;stroke-linecap:butt;stroke-linejoin:miter;stroke-opacity:1" />
    <path
       id="path3058"
       d="m 2045.7277,66.6562 c -197.1429,0 -182.875,128.5626 -182.875,128.5626 l 5.7187,351.4374 148.5625,-5.7187 14.2813,-177.1563 122.875,185.7188 117.125,-17.125 -154.2813,-251.4375 c 0,0 125.7366,-214.2813 -71.4062,-214.2813 z m -40,100 c 20.5134,0 37.125,17.2601 37.125,38.5626 0,21.3024 -16.6116,38.5624 -37.125,38.5624 -20.5135,0 -37.1563,-17.26 -37.1563,-38.5624 0,-21.3025 16.6428,-38.5626 37.1563,-38.5626 z"
       style="fill:#000000;stroke:#000000;stroke-width:1px;stroke-linecap:butt;stroke-linejoin:miter;stroke-opacity:1"
       inkscape:connector-curvature="0" />
    <path
       style="fill:#000000;stroke:#000000;stroke-width:1px;stroke-linecap:butt;stroke-linejoin:miter;stroke-opacity:1"
       d="m 988.57144,1598.0764 c 33.23706,43.1846 122.35426,50.743 162.85706,14.2857 40.3541,-36.3234 40.9107,-124.1301 2.8572,-162.8571 -32.7076,-33.2865 -104.2986,-30.0531 -140,0 -38.45046,32.3672 -56.36896,108.7422 -25.71426,148.5714 z"
       id="path3060"
       inkscape:connector-curvature="0"
       sodipodi:nodetypes="sssss" />
    <path
       style="fill:#000000;stroke:#000000;stroke-width:1px;stroke-linecap:butt;stroke-linejoin:miter;stroke-opacity:1"
       d="m 931.42857,1129.505 c -46.67873,81.9422 19.85407,211.6785 97.14283,265.7143 35.9046,25.1024 98.9459,29.3964 131.4286,0 78.0634,-70.6464 108.9722,-243.0693 31.4285,-314.2857 -64.9357,-59.6371 -216.35986,-28.0366 -259.99993,48.5714 z"
       id="path3062"
       inkscape:connector-curvature="0"
       sodipodi:nodetypes="sssss" />
    <path
       inkscape:connector-curvature="0"
       id="path3064"
       d="m 1648.5714,1135.2193 162.8571,14.2857 2.8572,-162.8571 -140,0 z"
       style="fill:#000000;stroke:#000000;stroke-width:1px;stroke-linecap:butt;stroke-linejoin:miter;stroke-opacity:1" />
    <path
       inkscape:connector-curvature="0"
       id="path3066"
       d="m 1591.4286,666.6479 97.1428,265.7143 131.4286,0 31.4285,-314.2857 z"
       style="fill:#000000;stroke:#000000;stroke-width:1px;stroke-linecap:butt;stroke-linejoin:miter;stroke-opacity:1" />
  </g>
</svg>
