  0
SECTION
  2
HEADER
  9
$ACADVER
  1
AC1014
  9
$HANDSEED
  5
FFFF
  9
$MEASUREMENT
 70
     1
  0
ENDSEC
  0
SECTION
  2
TABLES
  0
TABLE
  2
VPORT
  5
8
330
0
100
AcDbSymbolTable
 70
     4
  0
VPORT
  5
2E
330
8
100
AcDbSymbolTableRecord
100
AcDbViewportTableRecord
  2
*ACTIVE
 70
     0
 10
0.0
 20
0.0
 11
1.0
 21
1.0
 12
210.0
 22
148.5
 13
0.0
 23
0.0
 14
10.0
 24
10.0
 15
10.0
 25
10.0
 16
0.0
 26
0.0
 36
1.0
 17
0.0
 27
0.0
 37
0.0
 40
341.0
 41
1.24
 42
50.0
 43
0.0
 44
0.0
 50
0.0
 51
0.0
 71
     0
 72
   100
 73
     1
 74
     3
 75
     0
 76
     0
 77
     0
 78
     0
  0
ENDTAB
  0
TABLE
  2
LTYPE
  5
5
330
0
100
AcDbSymbolTable
 70
     1
  0
LTYPE
  5
14
330
5
100
AcDbSymbolTableRecord
100
AcDbLinetypeTableRecord
  2
BYBLOCK
 70
     0
  3

 72
    65
 73
     0
 40
0.0
  0
LTYPE
  5
15
330
5
100
AcDbSymbolTableRecord
100
AcDbLinetypeTableRecord
  2
BYLAYER
 70
     0
  3

 72
    65
 73
     0
 40
0.0
  0
LTYPE
  5
16
330
5
100
AcDbSymbolTableRecord
100
AcDbLinetypeTableRecord
  2
CONTINUOUS
 70
     0
  3
Solid line
 72
    65
 73
     0
 40
0.0
  0
ENDTAB
  0
TABLE
  2
LAYER
  5
2
100
AcDbSymbolTable
 70
2
  0
LAYER
  5
50
100
AcDbSymbolTableRecord
100
AcDbLayerTableRecord
  2
0
 70
0
  6
CONTINUOUS
  0
LAYER
  5
51
100
AcDbSymbolTableRecord
100
AcDbLayerTableRecord
  2
Layer_1
 70
0
  6
CONTINUOUS
  0
ENDTAB
  0
TABLE
  2
STYLE
  5
3
330
0
100
AcDbSymbolTable
 70
     1
  0
STYLE
  5
11
330
3
100
AcDbSymbolTableRecord
100
AcDbTextStyleTableRecord
  2
STANDARD
 70
     0
 40
0.0
 41
1.0
 50
0.0
 71
     0
 42
2.5
  3
txt
  4

  0
ENDTAB
  0
TABLE
  2
VIEW
  5
6
330
0
100
AcDbSymbolTable
 70
     0
  0
ENDTAB
  0
TABLE
  2
UCS
  5
7
330
0
100
AcDbSymbolTable
 70
     0
  0
ENDTAB
  0
TABLE
  2
APPID
  5
9
330
0
100
AcDbSymbolTable
 70
     2
  0
APPID
  5
12
330
9
100
AcDbSymbolTableRecord
100
AcDbRegAppTableRecord
  2
ACAD
 70
     0
  0
ENDTAB
  0
TABLE
  2
DIMSTYLE
  5
A
330
0
100
AcDbSymbolTable
 70
     1
  0
DIMSTYLE
105
27
330
A
100
AcDbSymbolTableRecord
100
AcDbDimStyleTableRecord
  2
ISO-25
 70
     0
  3

  4

  5

  6

  7

 40
1.0
 41
2.5
 42
0.625
 43
3.75
 44
1.25
 45
0.0
 46
0.0
 47
0.0
 48
0.0
140
2.5
141
2.5
142
0.0
143
0.03937007874016
144
1.0
145
0.0
146
1.0
147
0.625
 71
     0
 72
     0
 73
     0
 74
     0
 75
     0
 76
     0
 77
     1
 78
     8
170
     0
171
     3
172
     1
173
     0
174
     0
175
     0
176
     0
177
     0
178
     0
270
     2
271
     2
272
     2
273
     2
274
     3
340
11
275
     0
280
     0
281
     0
282
     0
283
     0
284
     8
285
     0
286
     0
287
     3
288
     0
  0
ENDTAB
  0
TABLE
  2
BLOCK_RECORD
  5
1
330
0
100
AcDbSymbolTable
 70
     1
  0
BLOCK_RECORD
  5
1F
330
1
100
AcDbSymbolTableRecord
100
AcDbBlockTableRecord
  2
*MODEL_SPACE
  0
BLOCK_RECORD
  5
1B
330
1
100
AcDbSymbolTableRecord
100
AcDbBlockTableRecord
  2
*PAPER_SPACE
  0
ENDTAB
  0
ENDSEC
  0
SECTION
  2
BLOCKS
  0
BLOCK
  5
20
330
1F
100
AcDbEntity
  8
0
100
AcDbBlockBegin
  2
*MODEL_SPACE
 70
     0
 10
0.0
 20
0.0
 30
0.0
  3
*MODEL_SPACE
  1

  0
ENDBLK
  5
21
330
1F
100
AcDbEntity
  8
0
100
AcDbBlockEnd
  0
BLOCK
  5
1C
330
1B
100
AcDbEntity
 67
     1
  8
0
100
AcDbBlockBegin
  2
*PAPER_SPACE
  1

  0
ENDBLK
  5
1D
330
1B
100
AcDbEntity
 67
     1
  8
0
100
AcDbBlockEnd
  0
ENDSEC
  0
SECTION
  2
ENTITIES
  0
LWPOLYLINE
  5
100
100
AcDbEntity
  8
Layer_1
 62
7
100
AcDbPolyline
 90
49
 70
0
 10
-14.019378
 20
8.644769
 30
0.0
 10
-14.649772
 20
8.839107
 30
0.0
 10
-16.119387
 20
8.418483
 30
0.0
 10
-17.591898
 20
7.509360
 30
0.0
 10
-18.230981
 20
6.238119
 30
0.0
 10
-17.636482
 20
4.965212
 30
0.0
 10
-16.288415
 20
4.072063
 30
0.0
 10
-14.670713
 20
3.716689
 30
0.0
 10
-13.267304
 20
4.057105
 30
0.0
 10
-13.037654
 20
4.360748
 30
0.0
 10
-12.969773
 20
4.786593
 30
0.0
 10
-13.050657
 20
5.223727
 30
0.0
 10
-13.267304
 20
5.561265
 30
0.0
 10
-13.727305
 20
5.653749
 30
0.0
 10
-14.282601
 20
5.448461
 30
0.0
 10
-14.837897
 20
5.243172
 30
0.0
 10
-15.297899
 20
5.335657
 30
0.0
 10
-15.508194
 20
5.664897
 30
0.0
 10
-15.578495
 20
6.088202
 30
0.0
 10
-15.508499
 20
6.511253
 30
0.0
 10
-15.297899
 20
6.839788
 30
0.0
 10
-14.405263
 20
7.271983
 30
0.0
 10
-13.319422
 20
7.313131
 30
0.0
 10
-12.263927
 20
7.004804
 30
0.0
 10
-11.462332
 20
6.388543
 30
0.0
 10
-10.875467
 20
5.099550
 30
0.0
 10
-10.782487
 20
3.558588
 30
0.0
 10
-11.179844
 20
2.097665
 30
0.0
 10
-12.063990
 20
1.048842
 30
0.0
 10
-12.422421
 20
0.947863
 30
0.0
 10
-12.824783
 20
1.021297
 30
0.0
 10
-13.203983
 20
1.221336
 30
0.0
 10
-13.492926
 20
1.500087
 30
0.0
 10
-13.548042
 20
1.914813
 30
0.0
 10
-13.417615
 20
2.428006
 30
0.0
 10
-13.324843
 20
2.853286
 30
0.0
 10
-13.492926
 20
3.004219
 30
0.0
 10
-15.151245
 20
2.550914
 30
0.0
 10
-17.375708
 20
2.200196
 30
0.0
 10
-19.313339
 20
3.041162
 30
0.0
 10
-20.111162
 20
6.162935
 30
0.0
 10
-19.245125
 20
8.595408
 30
0.0
 10
-17.231981
 20
10.396607
 30
0.0
 10
-14.853454
 20
11.171476
 30
0.0
 10
-12.891268
 20
10.524961
 30
0.0
 10
-12.859743
 20
9.928880
 30
0.0
 10
-13.289422
 20
9.165723
 30
0.0
 10
-13.802051
 20
8.612172
 30
0.0
 10
-14.019378
 20
8.644769
 30
0.0
  0
LWPOLYLINE
  5
101
100
AcDbEntity
  8
Layer_1
 62
7
100
AcDbPolyline
 90
33
 70
0
 10
-4.543502
 20
11.051532
 30
0.0
 10
-5.303774
 20
11.327037
 30
0.0
 10
-6.165017
 20
11.314055
 30
0.0
 10
-7.005178
 20
11.056978
 30
0.0
 10
-7.702206
 20
10.599778
 30
0.0
 10
-9.221507
 20
8.667600
 30
0.0
 10
-10.251319
 20
6.252935
 30
0.0
 10
-10.495392
 20
3.793199
 30
0.0
 10
-9.657476
 20
1.725809
 30
0.0
 10
-9.144749
 20
1.416013
 30
0.0
 10
-8.481781
 20
1.370180
 30
0.0
 10
-7.804944
 20
1.539768
 30
0.0
 10
-7.250611
 20
1.876346
 30
0.0
 10
-6.932441
 20
2.558223
 30
0.0
 10
-6.952676
 20
3.421626
 30
0.0
 10
-6.990266
 20
4.302074
 30
0.0
 10
-6.724160
 20
5.035034
 30
0.0
 10
-6.426571
 20
5.293831
 30
0.0
 10
-6.057152
 20
5.479929
 30
0.0
 10
-5.664032
 20
5.556270
 30
0.0
 10
-5.295340
 20
5.485827
 30
0.0
 10
-4.607006
 20
4.677317
 30
0.0
 10
-4.350542
 20
3.456480
 30
0.0
 10
-4.115292
 20
2.197430
 30
0.0
 10
-3.490602
 20
1.274225
 30
0.0
 10
-3.066085
 20
1.075597
 30
0.0
 10
-2.575442
 20
0.982605
 30
0.0
 10
-2.109908
 20
1.035437
 30
0.0
 10
-1.760718
 20
1.274225
 30
0.0
 10
-0.934440
 20
3.683302
 30
0.0
 10
-1.320598
 20
6.485007
 30
0.0
 10
-2.622512
 20
9.125647
 30
0.0
 10
-4.543502
 20
11.051532
 30
0.0
  0
LWPOLYLINE
  5
102
100
AcDbEntity
  8
Layer_1
 62
7
100
AcDbPolyline
 90
17
 70
0
 10
-6.874691
 20
8.945730
 30
0.0
 10
-6.665499
 20
9.072702
 30
0.0
 10
-6.402179
 20
9.105553
 30
0.0
 10
-6.130603
 20
9.058478
 30
0.0
 10
-5.896644
 20
8.945730
 30
0.0
 10
-5.463839
 20
8.522651
 30
0.0
 10
-5.136763
 20
7.964077
 30
0.0
 10
-5.001670
 20
7.369858
 30
0.0
 10
-5.144807
 20
6.839929
 30
0.0
 10
-5.459909
 20
6.594086
 30
0.0
 10
-5.896771
 20
6.506484
 30
0.0
 10
-6.352488
 20
6.566710
 30
0.0
 10
-6.724159
 20
6.764237
 30
0.0
 10
-7.047376
 20
7.234561
 30
0.0
 10
-7.190154
 20
7.836851
 30
0.0
 10
-7.137568
 20
8.448201
 30
0.0
 10
-6.874691
 20
8.945730
 30
0.0
  0
LWPOLYLINE
  5
103
100
AcDbEntity
  8
Layer_1
 62
7
100
AcDbPolyline
 90
49
 70
0
 10
0.796445
 20
1.951332
 30
0.0
 10
-0.359044
 20
3.920199
 30
0.0
 10
-0.643006
 20
6.398985
 30
0.0
 10
-0.132036
 20
8.891374
 30
0.0
 10
1.097274
 20
10.900994
 30
0.0
 10
1.645297
 20
11.244092
 30
0.0
 10
2.324681
 20
11.370019
 30
0.0
 10
3.029622
 20
11.299012
 30
0.0
 10
3.654320
 20
11.051390
 30
0.0
 10
4.104192
 20
10.354048
 30
0.0
 10
4.274036
 20
9.362460
 30
0.0
 10
4.472452
 20
8.482068
 30
0.0
 10
5.008051
 20
8.118311
 30
0.0
 10
5.513273
 20
8.517458
 30
0.0
 10
5.646649
 20
9.403805
 30
0.0
 10
5.742754
 20
10.399485
 30
0.0
 10
6.136161
 20
11.126603
 30
0.0
 10
6.760597
 20
11.439982
 30
0.0
 10
7.484994
 20
11.585891
 30
0.0
 10
8.193036
 20
11.520952
 30
0.0
 10
8.768413
 20
11.201815
 30
0.0
 10
10.029484
 20
9.101602
 30
0.0
 10
10.446075
 20
6.462542
 30
0.0
 10
10.005035
 20
3.842899
 30
0.0
 10
8.693207
 20
1.800908
 30
0.0
 10
8.190301
 20
1.553230
 30
0.0
 10
7.578900
 20
1.524697
 30
0.0
 10
6.979398
 20
1.690700
 30
0.0
 10
6.512196
 20
2.026545
 30
0.0
 10
6.299957
 20
3.264597
 30
0.0
 10
6.776167
 20
4.807196
 30
0.0
 10
7.157994
 20
6.200414
 30
0.0
 10
6.662609
 20
6.990213
 30
0.0
 10
6.259825
 20
6.760060
 30
0.0
 10
6.071845
 20
6.036527
 30
0.0
 10
5.878418
 20
5.263351
 30
0.0
 10
5.459293
 20
4.884412
 30
0.0
 10
5.004980
 20
5.202645
 30
0.0
 10
4.733231
 20
5.929819
 30
0.0
 10
4.467279
 20
6.623126
 30
0.0
 10
4.030357
 20
6.839788
 30
0.0
 10
3.506391
 20
6.083348
 30
0.0
 10
3.729604
 20
4.760629
 30
0.0
 10
4.027986
 20
3.311785
 30
0.0
 10
3.729527
 20
2.176941
 30
0.0
 10
3.080119
 20
1.751999
 30
0.0
 10
2.270152
 20
1.548178
 30
0.0
 10
1.456601
 20
1.602365
 30
0.0
 10
0.796445
 20
1.951332
 30
0.0
  0
LWPOLYLINE
  5
104
100
AcDbEntity
  8
Layer_1
 62
7
100
AcDbPolyline
 90
49
 70
0
 10
19.711453
 20
10.374537
 30
0.0
 10
18.249897
 20
11.477094
 30
0.0
 10
16.320135
 20
11.992630
 30
0.0
 10
14.337462
 20
11.868339
 30
0.0
 10
12.717179
 20
11.051390
 30
0.0
 10
11.417233
 20
8.995599
 30
0.0
 10
10.990702
 20
6.365655
 30
0.0
 10
11.427409
 20
3.728345
 30
0.0
 10
12.717179
 20
1.650512
 30
0.0
 10
14.419544
 20
0.729480
 30
0.0
 10
16.540393
 20
0.470258
 30
0.0
 10
18.554607
 20
0.913996
 30
0.0
 10
19.937076
 20
2.101729
 30
0.0
 10
20.027449
 20
2.680058
 30
0.0
 10
19.781427
 20
3.291606
 30
0.0
 10
19.331201
 20
3.853454
 30
0.0
 10
18.808968
 20
4.282742
 30
0.0
 10
17.928977
 20
4.466948
 30
0.0
 10
16.918881
 20
4.298716
 30
0.0
 10
15.951344
 20
4.178912
 30
0.0
 10
15.199019
 20
4.508350
 30
0.0
 10
15.022624
 20
4.874788
 30
0.0
 10
14.998720
 20
5.315450
 30
0.0
 10
15.112571
 20
5.747419
 30
0.0
 10
15.349429
 20
6.087722
 30
0.0
 10
15.733398
 20
6.182352
 30
0.0
 10
16.205183
 20
6.061758
 30
0.0
 10
16.662733
 20
5.954147
 30
0.0
 10
17.003991
 20
6.087722
 30
0.0
 10
17.135185
 20
6.474085
 30
0.0
 10
17.068958
 20
6.921802
 30
0.0
 10
16.857438
 20
7.347337
 30
0.0
 10
16.552746
 20
7.667066
 30
0.0
 10
16.196660
 20
7.729945
 30
0.0
 10
15.783995
 20
7.609295
 30
0.0
 10
15.379669
 20
7.498749
 30
0.0
 10
15.048606
 20
7.591882
 30
0.0
 10
14.894097
 20
7.842411
 30
0.0
 10
14.840921
 20
8.159572
 30
0.0
 10
14.891586
 20
8.474927
 30
0.0
 10
15.048606
 20
8.719981
 30
0.0
 10
16.029398
 20
8.921854
 30
0.0
 10
17.205630
 20
8.485765
 30
0.0
 10
18.393856
 20
8.035169
 30
0.0
 10
19.410621
 20
8.193524
 30
0.0
 10
19.766797
 20
8.642370
 30
0.0
 10
19.949586
 20
9.236137
 30
0.0
 10
19.938100
 20
9.853837
 30
0.0
 10
19.711453
 20
10.374537
 30
0.0
  0
LWPOLYLINE
  5
105
100
AcDbEntity
  8
Layer_1
 62
7
100
AcDbPolyline
 90
17
 70
0
 10
-14.921629
 20
-1.132030
 30
0.0
 10
-16.678109
 20
-1.539898
 30
0.0
 10
-18.112519
 20
-2.652107
 30
0.0
 10
-19.079652
 20
-4.301724
 30
0.0
 10
-19.434298
 20
-6.321673
 30
0.0
 10
-19.079652
 20
-8.341510
 30
0.0
 10
-18.112519
 20
-9.990816
 30
0.0
 10
-16.678109
 20
-11.102772
 30
0.0
 10
-14.921629
 20
-11.510498
 30
0.0
 10
-13.165279
 20
-11.102772
 30
0.0
 10
-11.731151
 20
-9.990816
 30
0.0
 10
-10.764302
 20
-8.341510
 30
0.0
 10
-10.409784
 20
-6.321673
 30
0.0
 10
-10.764302
 20
-4.301724
 30
0.0
 10
-11.731151
 20
-2.652107
 30
0.0
 10
-13.165279
 20
-1.539898
 30
0.0
 10
-14.921629
 20
-1.132030
 30
0.0
  0
LWPOLYLINE
  5
106
100
AcDbEntity
  8
Layer_1
 62
7
100
AcDbPolyline
 90
17
 70
0
 10
-15.072162
 20
-5.268787
 30
0.0
 10
-14.603758
 20
-5.395759
 30
0.0
 10
-14.221229
 20
-5.742074
 30
0.0
 10
-13.963309
 20
-6.255859
 30
0.0
 10
-13.868728
 20
-6.885158
 30
0.0
 10
-13.963309
 20
-7.514570
 30
0.0
 10
-14.221229
 20
-8.028638
 30
0.0
 10
-14.603758
 20
-8.375235
 30
0.0
 10
-15.072162
 20
-8.502348
 30
0.0
 10
-15.540564
 20
-8.375235
 30
0.0
 10
-15.923092
 20
-8.028638
 30
0.0
 10
-16.181013
 20
-7.514570
 30
0.0
 10
-16.275594
 20
-6.885158
 30
0.0
 10
-16.181013
 20
-6.255859
 30
0.0
 10
-15.923092
 20
-5.742074
 30
0.0
 10
-15.540564
 20
-5.395759
 30
0.0
 10
-15.072162
 20
-5.268787
 30
0.0
  0
LWPOLYLINE
  5
107
100
AcDbEntity
  8
Layer_1
 62
7
100
AcDbPolyline
 90
29
 70
0
 10
-9.431737
 20
-2.937123
 30
0.0
 10
-10.049356
 20
-4.702056
 30
0.0
 10
-9.832925
 20
-6.721554
 30
0.0
 10
-9.021063
 20
-8.710233
 30
0.0
 10
-7.852385
 20
-10.382654
 30
0.0
 10
-7.330327
 20
-10.838838
 30
0.0
 10
-6.689089
 20
-11.180326
 30
0.0
 10
-6.009039
 20
-11.329791
 30
0.0
 10
-5.370548
 20
-11.209932
 30
0.0
 10
-3.302590
 20
-9.553372
 30
0.0
 10
-1.766766
 20
-7.077069
 30
0.0
 10
-1.167950
 20
-4.392205
 30
0.0
 10
-1.911015
 20
-2.109845
 30
0.0
 10
-2.646761
 20
-1.709316
 30
0.0
 10
-3.602620
 20
-1.769034
 30
0.0
 10
-4.577560
 20
-2.149582
 30
0.0
 10
-5.370548
 20
-2.711515
 30
0.0
 10
-5.801272
 20
-3.924845
 30
0.0
 10
-5.729170
 20
-5.504076
 30
0.0
 10
-5.740981
 20
-6.871527
 30
0.0
 10
-6.423448
 20
-7.449574
 30
0.0
 10
-7.073054
 20
-6.837378
 30
0.0
 10
-7.027773
 20
-5.431432
 30
0.0
 10
-6.924752
 20
-3.849999
 30
0.0
 10
-7.401142
 20
-2.711515
 30
0.0
 10
-7.894782
 20
-2.500243
 30
0.0
 10
-8.473511
 20
-2.467195
 30
0.0
 10
-9.023704
 20
-2.612681
 30
0.0
 10
-9.431737
 20
-2.937123
 30
0.0
  0
LWPOLYLINE
  5
108
100
AcDbEntity
  8
Layer_1
 62
7
100
AcDbPolyline
 90
49
 70
0
 10
7.489890
 20
-1.282596
 30
0.0
 10
6.820973
 20
-1.162312
 30
0.0
 10
5.242335
 20
-0.986883
 30
0.0
 10
3.396140
 20
-1.034522
 30
0.0
 10
1.924555
 20
-1.583416
 30
0.0
 10
0.359023
 20
-3.437362
 30
0.0
 10
-0.688327
 20
-5.812149
 30
0.0
 10
-0.955687
 20
-8.272393
 30
0.0
 10
-0.181249
 20
-10.382654
 30
0.0
 10
1.331745
 20
-11.447224
 30
0.0
 10
3.346300
 20
-11.790350
 30
0.0
 10
5.420857
 20
-11.467205
 30
0.0
 10
7.113854
 20
-10.533050
 30
0.0
 10
7.376815
 20
-10.148945
 30
0.0
 10
7.491273
 20
-9.661463
 30
0.0
 10
7.454624
 20
-9.158571
 30
0.0
 10
7.264270
 20
-8.728098
 30
0.0
 10
6.341511
 20
-8.232261
 30
0.0
 10
5.101695
 20
-8.225206
 30
0.0
 10
3.852664
 20
-8.225121
 30
0.0
 10
2.902249
 20
-7.750508
 30
0.0
 10
2.816317
 20
-7.532717
 30
0.0
 10
2.825865
 20
-7.279084
 30
0.0
 10
2.873604
 20
-7.016730
 30
0.0
 10
2.902248
 20
-6.772834
 30
0.0
 10
3.312973
 20
-6.782429
 30
0.0
 10
4.273273
 20
-7.036824
 30
0.0
 10
5.375343
 20
-7.196760
 30
0.0
 10
6.211367
 20
-6.923089
 30
0.0
 10
6.538581
 20
-6.280525
 30
0.0
 10
6.579737
 20
-5.487594
 30
0.0
 10
6.361503
 20
-4.716760
 30
0.0
 10
5.910537
 20
-4.140434
 30
0.0
 10
5.295222
 20
-4.065363
 30
0.0
 10
4.583201
 20
-4.380097
 30
0.0
 10
3.876785
 20
-4.687832
 30
0.0
 10
3.278284
 20
-4.591651
 30
0.0
 10
3.161044
 20
-4.413908
 30
0.0
 10
3.123754
 20
-4.182062
 30
0.0
 10
3.163728
 20
-3.948184
 30
0.0
 10
3.278284
 20
-3.764401
 30
0.0
 10
4.456421
 20
-3.411765
 30
0.0
 10
5.963364
 20
-3.634777
 30
0.0
 10
7.274675
 20
-3.997799
 30
0.0
 10
7.865925
 20
-4.065222
 30
0.0
 10
7.933944
 20
-3.498379
 30
0.0
 10
7.959570
 20
-2.547374
 30
0.0
 10
7.844364
 20
-1.659644
 30
0.0
 10
7.489890
 20
-1.282596
 30
0.0
  0
LWPOLYLINE
  5
109
100
AcDbEntity
  8
Layer_1
 62
7
100
AcDbPolyline
 90
33
 70
0
 10
14.484514
 20
-0.305091
 30
0.0
 10
12.616584
 20
-0.391818
 30
0.0
 10
11.226829
 20
-0.787013
 30
0.0
 10
10.206076
 20
-1.524065
 30
0.0
 10
9.445160
 20
-2.636303
 30
0.0
 10
8.598733
 20
-5.107553
 30
0.0
 10
8.268719
 20
-8.023671
 30
0.0
 10
8.620966
 20
-10.822017
 30
0.0
 10
9.821314
 20
-12.939926
 30
0.0
 10
10.699575
 20
-13.421707
 30
0.0
 10
11.778739
 20
-13.539535
 30
0.0
 10
12.856828
 20
-13.319910
 30
0.0
 10
13.731853
 20
-12.789388
 30
0.0
 10
13.900317
 20
-11.660132
 30
0.0
 10
13.286746
 20
-10.198870
 30
0.0
 10
12.745286
 20
-8.867092
 30
0.0
 10
13.130079
 20
-8.126174
 30
0.0
 10
14.335647
 20
-8.572283
 30
0.0
 10
15.276811
 20
-10.088606
 30
0.0
 10
16.197628
 20
-11.845863
 30
0.0
 10
17.342152
 20
-13.014771
 30
0.0
 10
18.161963
 20
-13.255506
 30
0.0
 10
19.074150
 20
-13.301170
 30
0.0
 10
19.891096
 20
-13.090943
 30
0.0
 10
20.425182
 20
-12.564006
 30
0.0
 10
20.214593
 20
-10.879732
 30
0.0
 10
18.733838
 20
-9.273125
 30
0.0
 10
17.177493
 20
-7.638550
 30
0.0
 10
16.740141
 20
-5.870344
 30
0.0
 10
17.398662
 20
-4.008298
 30
0.0
 10
17.807836
 20
-2.239639
 30
0.0
 10
17.119256
 20
-0.895020
 30
0.0
 10
14.484514
 20
-0.305091
 30
0.0
  0
LWPOLYLINE
  5
10a
100
AcDbEntity
  8
Layer_1
 62
7
100
AcDbPolyline
 90
17
 70
0
 10
13.431613
 20
-2.937349
 30
0.0
 10
13.812103
 20
-3.017105
 30
0.0
 10
14.122714
 20
-3.234614
 30
0.0
 10
14.332080
 20
-3.557250
 30
0.0
 10
14.408839
 20
-3.952418
 30
0.0
 10
14.332080
 20
-4.347585
 30
0.0
 10
14.122714
 20
-4.670222
 30
0.0
 10
13.812103
 20
-4.887730
 30
0.0
 10
13.431613
 20
-4.967486
 30
0.0
 10
13.050994
 20
-4.887730
 30
0.0
 10
12.740101
 20
-4.670222
 30
0.0
 10
12.530452
 20
-4.347585
 30
0.0
 10
12.453567
 20
-3.952418
 30
0.0
 10
12.530452
 20
-3.557250
 30
0.0
 10
12.740101
 20
-3.234614
 30
0.0
 10
13.050994
 20
-3.017105
 30
0.0
 10
13.431613
 20
-2.937349
 30
0.0
  0
LWPOLYLINE
  5
10b
100
AcDbEntity
  8
Layer_1
 62
7
100
AcDbPolyline
 90
17
 70
0
 10
22.305713
 20
-12.939700
 30
0.0
 10
23.194693
 20
-13.612969
 30
0.0
 10
24.377396
 20
-13.913874
 30
0.0
 10
25.595961
 20
-13.821701
 30
0.0
 10
26.592522
 20
-13.315733
 30
0.0
 10
27.193252
 20
-12.385895
 30
0.0
 10
27.404077
 20
-11.196046
 30
0.0
 10
27.227928
 20
-9.994344
 30
0.0
 10
26.667731
 20
-9.028918
 30
0.0
 10
25.860869
 20
-8.548040
 30
0.0
 10
24.854707
 20
-8.403683
 30
0.0
 10
23.833771
 20
-8.571972
 30
0.0
 10
22.982578
 20
-9.028918
 30
0.0
 10
22.336357
 20
-9.851991
 30
0.0
 10
21.962012
 20
-10.910663
 30
0.0
 10
21.928732
 20
-12.006165
 30
0.0
 10
22.305713
 20
-12.939700
 30
0.0
  0
LWPOLYLINE
  5
10c
100
AcDbEntity
  8
Layer_1
 62
7
100
AcDbPolyline
 90
17
 70
0
 10
20.801570
 20
-0.605714
 30
0.0
 10
20.396655
 20
-2.408493
 30
0.0
 10
20.856414
 20
-4.378291
 30
0.0
 10
21.928009
 20
-6.210393
 30
0.0
 10
23.358614
 20
-7.599971
 30
0.0
 10
24.177645
 20
-7.987546
 30
0.0
 10
25.122158
 20
-8.137914
 30
0.0
 10
26.049783
 20
-8.019325
 30
0.0
 10
26.818144
 20
-7.599971
 30
0.0
 10
28.101319
 20
-5.786439
 30
0.0
 10
28.767766
 20
-3.469197
 30
0.0
 10
28.666226
 20
-1.149161
 30
0.0
 10
27.645422
 20
0.672809
 30
0.0
 10
26.016518
 20
1.418864
 30
0.0
 10
24.013299
 20
1.378421
 30
0.0
 10
22.115176
 20
0.665528
 30
0.0
 10
20.801570
 20
-0.605714
 30
0.0
  0
ENDSEC
  0
SECTION
  2
OBJECTS
  0
DICTIONARY
  5
C
330
0
100
AcDbDictionary
  3
ACAD_GROUP
350
D
  3
ACAD_MLINESTYLE
350
17
  0
DICTIONARY
  5
D
330
C
100
AcDbDictionary
  0
DICTIONARY
  5
1A
330
C
100
AcDbDictionary
  0
DICTIONARY
  5
17
330
C
100
AcDbDictionary
  3
STANDARD
350
18
  0
DICTIONARY
  5
19
330
C
100
AcDbDictionary
  0
ENDSEC
  0
EOF
