<?xml version="1.0" encoding="UTF-8" standalone="no"?>
<!-- Created with Inkscape (http://www.inkscape.org/) -->

<svg
   xmlns:dc="http://purl.org/dc/elements/1.1/"
   xmlns:cc="http://creativecommons.org/ns#"
   xmlns:rdf="http://www.w3.org/1999/02/22-rdf-syntax-ns#"
   xmlns:svg="http://www.w3.org/2000/svg"
   xmlns="http://www.w3.org/2000/svg"
   xmlns:sodipodi="http://sodipodi.sourceforge.net/DTD/sodipodi-0.dtd"
   xmlns:inkscape="http://www.inkscape.org/namespaces/inkscape"
   width="200"
   height="100"
   id="svg2"
   version="1.1"
   inkscape:version="0.48.4 r9939"
   sodipodi:docname="game_over_straight.svg">
  <defs
     id="defs4">
    <symbol
       id="*PAPER_SPACE" />
    <symbol
       id="*MODEL_SPACE" />
    <pattern
       id="Hatch"
       x="0"
       y="0"
       patternUnits="userSpaceOnUse"
       width="8"
       height="8">
      <path
         id="path3078"
         d="M8 4 l-4,4"
         stroke-width="0.25"
         stroke="#000000"
         linecap="square" />
      <path
         id="path3080"
         d="M6 2 l-4,4"
         stroke-width="0.25"
         stroke="#000000"
         linecap="square" />
      <path
         id="path3082"
         d="M4 0 l-4,4"
         stroke-width="0.25"
         stroke="#000000"
         linecap="square" />
    </pattern>
    <marker
       orient="auto"
       id="DistanceX"
       style="overflow:visible"
       refX="0"
       refY="0">
      <path
         id="path3075"
         d="M 3,-3 -3,3 M 0,-5 0,5"
         style="stroke:#000000;stroke-width:0.5"
         inkscape:connector-curvature="0" />
    </marker>
  </defs>
  <sodipodi:namedview
     id="base"
     pagecolor="#ffffff"
     bordercolor="#666666"
     borderopacity="1.0"
     inkscape:pageopacity="0.0"
     inkscape:pageshadow="2"
     inkscape:zoom="2.3209345"
     inkscape:cx="112.09101"
     inkscape:cy="33.035278"
     inkscape:document-units="px"
     inkscape:current-layer="layer1"
     showgrid="false"
     inkscape:window-width="1366"
     inkscape:window-height="721"
     inkscape:window-x="-4"
     inkscape:window-y="24"
     inkscape:window-maximized="1"
     units="mm" />
  <metadata
     id="metadata7">
    <rdf:RDF>
      <cc:Work
         rdf:about="">
        <dc:format>image/svg+xml</dc:format>
        <dc:type
           rdf:resource="http://purl.org/dc/dcmitype/StillImage" />
        <dc:title></dc:title>
      </cc:Work>
    </rdf:RDF>
  </metadata>
  <g
     inkscape:label="Layer 1"
     inkscape:groupmode="layer"
     id="layer1"
     transform="translate(0,-952.36217)">
    <path
       inkscape:connector-curvature="0"
       id="path2998"
       d="m -49.674961,1021.7311 -2.233679,-0.6886 -5.207297,1.4904 -5.21756,3.2213 -2.264467,4.5044 2.106493,4.5103 4.776613,3.1647 5.732018,1.2592 4.972708,-1.2062 0.813721,-1.0759 0.240524,-1.5089 -0.286598,-1.5489 -0.767647,-1.196 -1.629924,-0.3277 -1.967585,0.7274 -1.967586,0.7274 -1.629928,-0.3277 -0.745137,-1.1666 -0.2491,-1.4999 0.248018,-1.499 0.746219,-1.1641 3.162884,-1.5314 3.84747,-0.1458 3.739941,1.0925 2.840298,2.1836 2.079444,4.5673 0.329457,5.4601 -1.407958,5.1765 -3.132803,3.7163 -1.270031,0.3578 -1.425693,-0.2602 -1.343622,-0.7088 -1.023814,-0.9877 -0.195292,-1.4695 0.462144,-1.8184 0.328718,-1.5069 -0.59557,-0.5348 -5.875931,1.6062 -7.881955,1.2427 -6.865622,-2.9798 -2.826932,-11.0614 3.068633,-8.619 7.133187,-6.3822 8.427852,-2.7456 6.952628,2.2908 0.111702,2.1121 -1.522482,2.7041 -1.816402,1.9614 z"
       style="fill:#000000;stroke:#000000;stroke-width:0.0932688px;stroke-linecap:butt;stroke-linejoin:miter;stroke-opacity:1"
       sodipodi:nodetypes="ccccccccccccccccccccccccccccccccccccccccccccccccc" />
    <path
       id="path3000"
       d="m -16.099022,1013.2032 -2.693879,-0.9762 -3.051647,0.046 -2.976949,0.9109 -2.469785,1.62 -5.383348,6.8463 -3.648941,8.5559 -0.864827,8.7156 2.968996,7.3254 1.816749,1.0977 2.349099,0.1624 2.398239,-0.6009 1.964173,-1.1926 1.127376,-2.4161 -0.0717,-3.0593 -0.133192,-3.1197 0.942893,-2.5971 1.05445,-0.917 1.308965,-0.6594 1.392944,-0.2705 1.306391,0.2496 2.438978,2.8648 0.908731,4.3258 0.833562,4.4612 2.213469,3.2712 1.504193,0.7038 1.7384992,0.3295 1.649531,-0.1872 1.237287,-0.8461 2.927758,-8.5361 -1.368277,-9.9273 -4.613082,-9.3566 z m -8.26012,7.4615 0.741233,-0.4499 0.933023,-0.1164 0.962276,0.1668 0.828988,0.3995 1.533564,1.4991 1.158928,1.9792 0.478679,2.1055 -0.507181,1.8777 -1.116504,0.8711 -1.547933,0.3104 -1.614748,-0.2134 -1.316945,-0.6999 -1.145254,-1.6665 -0.505909,-2.1341 0.186328,-2.1662 z"
       style="fill:#000000;stroke:#000000;stroke-width:0.0932688px;stroke-linecap:butt;stroke-linejoin:miter;stroke-opacity:1"
       inkscape:connector-curvature="0"
       sodipodi:nodetypes="cccccccccccccccccccccccccccccccccccccccccccccccccc" />
    <path
       sodipodi:nodetypes="ccccccccccccccccccccccccccccccccccccccccccccccccc"
       inkscape:connector-curvature="0"
       id="path3002"
       d="m 2.8220482,1045.448 -4.09425,-6.9763 -1.006166,-8.7831 1.810524,-8.8313 4.355822,-7.1207 1.941815,-1.2157 2.407264,-0.4462 2.4978238,0.2516 2.213497,0.8774 1.594033,2.4709 0.60181,3.5135 0.70305,3.1195 1.89779,1.2889 1.79016,-1.4143 0.47259,-3.1406 0.34053,-3.528 1.39396,-2.5764 2.21257,-1.1104 2.56676,-0.517 2.50881,0.2301 2.03874,1.1308 4.46836,7.4417 1.47611,9.351 -1.56274,9.2822 -4.64821,7.2354 -1.78195,0.8776 -2.16638,0.1011 -2.12422,-0.5882 -1.65544,-1.19 -0.75203,-4.3868 1.68736,-5.4659 1.35293,-4.9366 -1.7553,-2.7985 -1.42719,0.8155 -0.66607,2.5637 -0.68537,2.7396 -1.48509,1.3427 -1.60977,-1.1276 -0.96289,-2.5766 -0.94235,-2.4566 -1.54815,-0.7677 -1.856572,2.6803 0.790912,4.6868 1.05726,5.1337 -1.05753,4.0211 -2.301053,1.5057 -2.8699638,0.7222 -2.882659,-0.192 z"
       style="fill:#000000;stroke:#000000;stroke-width:0.0932688px;stroke-linecap:butt;stroke-linejoin:miter;stroke-opacity:1" />
    <path
       inkscape:connector-curvature="0"
       id="path3004"
       d="m 69.843731,1015.602 -5.17874,-3.9067 -6.83774,-1.8267 -7.02522,0.4404 -5.74116,2.8947 -4.60611,7.2843 -1.51133,9.3187 1.54739,9.3448 4.57005,7.3624 6.032,3.2635 7.51482,0.9185 7.13698,-1.5723 4.89851,-4.2085 0.32022,-2.0492 -0.87173,-2.1669 -1.59529,-1.9908 -1.85043,-1.5211 -3.11808,-0.6527 -3.57908,0.5961 -3.42828,0.4245 -2.66572,-1.1673 -0.62502,-1.2984 -0.0847,-1.5614 0.40341,-1.5306 0.83926,-1.2058 1.36052,-0.3353 1.67168,0.4273 1.62124,0.3813 1.20918,-0.4733 0.46486,-1.369 -0.23466,-1.5864 -0.74948,-1.5078 -1.07962,-1.1329 -1.26172,-0.2228 -1.4622,0.4275 -1.43265,0.3917 -1.17306,-0.33 -0.54747,-0.8877 -0.18842,-1.1238 0.17952,-1.1174 0.55637,-0.8683 3.47525,-0.7153 4.16775,1.5452 4.21025,1.5966 3.60271,-0.5611 1.26204,-1.5904 0.64768,-2.1039 -0.0407,-2.1887 z"
       style="fill:#000000;stroke:#000000;stroke-width:0.0932688px;stroke-linecap:butt;stroke-linejoin:miter;stroke-opacity:1"
       sodipodi:nodetypes="ccccccccccccccccccccccccccccccccccccccccccccccccc" />
    <path
       style="fill:#000000;fill-opacity:1;fill-rule:nonzero;stroke:none"
       d="m -52.871913,1056.3733 -6.223748,1.4452 -5.082557,3.9409 -3.426848,5.8451 -1.25662,7.1573 1.25662,7.1569 3.426848,5.844 5.082557,3.94 6.223748,1.4447 6.223288,-1.4447 5.081553,-3.94 3.425845,-5.844 1.256165,-7.1569 -1.256165,-7.1573 -3.425845,-5.8451 -5.081553,-3.9409 z m -0.533385,14.6578 1.659699,0.4499 1.355416,1.2271 0.913892,1.8205 0.335129,2.2298 -0.335129,2.2302 -0.913892,1.8215 -1.355416,1.2281 -1.659699,0.4504 -1.659692,-0.4504 -1.355414,-1.2281 -0.913893,-1.8215 -0.33513,-2.2302 0.335129,-2.2298 0.913894,-1.8205 1.355414,-1.2271 z"
       id="path3038"
       inkscape:connector-curvature="0"
       sodipodi:nodetypes="cccccccccccccccccccccccccccccccccc" />
    <path
       style="fill:#000000;stroke:#000000;stroke-width:0.0932688px;stroke-linecap:butt;stroke-linejoin:miter;stroke-opacity:1"
       d="m -33.419542,1062.7693 -2.188412,6.2537 0.76688,7.1557 2.876677,7.0465 4.140985,5.9259 1.849814,1.6164 2.272103,1.21 2.409623,0.5296 2.26237,-0.4247 7.327412,-5.8697 5.4418962,-8.7743 2.12179,-9.5133 -2.632908,-8.0871 -2.606974,-1.4192 -3.3869032,0.2116 -3.454511,1.3484 -2.809802,1.9911 -1.526187,4.2992 0.255481,5.5957 -0.04185,4.8453 -2.418191,2.0482 -2.301754,-2.1692 0.160446,-4.9817 0.365033,-5.6035 -1.687995,-4.034 -1.749117,-0.7486 -2.050614,-0.1171 -1.949503,0.5155 z"
       id="path3043"
       inkscape:connector-curvature="0"
       sodipodi:nodetypes="ccccccccccccccccccccccccccccc" />
    <path
       style="fill:#000000;stroke:#000000;stroke-width:0.0932688px;stroke-linecap:butt;stroke-linejoin:miter;stroke-opacity:1"
       d="m 26.538981,1056.9068 -2.37018,-0.4262 -5.5936,-0.6216 -6.541635,0.1688 -5.2142778,1.9449 -5.547158,6.5691 -3.711084,8.4146 -0.94734,8.7174 2.744072,7.4773 5.361002,3.7721 7.1381898,1.2158 7.350791,-1.145 5.99881,-3.31 0.93175,-1.361 0.40556,-1.7273 -0.12986,-1.7819 -0.67448,-1.5253 -3.26962,-1.7569 -4.39305,-0.025 -4.4257,-3e-4 -3.367613,-1.6817 -0.3044808,-0.7717 0.03383,-0.8987 0.169155,-0.9296 0.101494,-0.8642 1.455323,0.034 3.40264,0.9014 3.90497,0.5667 2.96229,-0.9697 1.15942,-2.2768 0.14583,-2.8096 -0.77327,-2.7313 -1.59791,-2.0421 -2.18025,-0.266 -2.52291,1.1152 -2.50305,1.0904 -2.120673,-0.3408 -0.415416,-0.6298 -0.132132,-0.8215 0.141641,-0.8287 0.405907,-0.6512 4.174503,-1.2495 5.33956,0.7902 4.64638,1.2863 2.09498,0.2389 0.24101,-2.0085 0.0908,-3.3697 -0.40821,-3.1455 z"
       id="path3045"
       inkscape:connector-curvature="0"
       sodipodi:nodetypes="ccccccccccccccccccccccccccccccccccccccccccccccccc" />
    <path
       style="fill:#000000;stroke:#000000;stroke-width:0.0932688px;stroke-linecap:butt;stroke-linejoin:miter;stroke-opacity:1"
       d="m 51.323081,1053.4432 -6.61865,0.3073 -4.92433,1.4003 -3.61684,2.6116 -2.69616,3.941 -2.99915,8.7564 -1.16934,10.3327 1.24812,9.9154 4.2532,7.5044 3.11195,1.7071 3.82381,0.4175 3.82,-0.7782 3.10048,-1.8798 0.59692,-4.0013 -2.17407,-5.1777 -1.91856,-4.7189 1.36344,-2.6253 4.2717,1.5807 3.33483,5.3728 3.26274,6.2265 4.0554,4.1418 2.90484,0.853 3.23216,0.1618 2.89469,-0.7449 1.89243,-1.8671 -0.74618,-5.9679 -5.24677,-5.6927 -5.51461,-5.7918 -1.54967,-6.2653 2.33334,-6.5978 1.44983,-6.2669 -2.43985,-4.7644 z m -3.73075,9.3269 1.34819,0.2826 1.10059,0.7707 0.74185,1.1432 0.27198,1.4002 -0.27198,1.4002 -0.74185,1.1432 -1.10059,0.7707 -1.34819,0.2826 -1.34865,-0.2826 -1.10159,-0.7707 -0.74285,-1.1432 -0.27243,-1.4002 0.27243,-1.4002 0.74285,-1.1432 1.10159,-0.7707 z"
       id="path3047"
       inkscape:connector-curvature="0"
       sodipodi:nodetypes="cccccccccccccccccccccccccccccccccccccccccccccccccc" />
    <path
       style="fill:#000000;stroke:#000000;stroke-width:0.0932688px;stroke-linecap:butt;stroke-linejoin:miter;stroke-opacity:1"
       d="m 79.035991,1098.2115 3.14993,2.3856 4.19068,1.0662 4.31775,-0.3266 3.53112,-1.7928 2.12857,-3.2947 0.74702,-4.216 -0.62415,-4.258 -1.98495,-3.4208 -2.85896,-1.7039 -3.56514,-0.5115 -3.61749,0.5963 -3.01604,1.6191 -2.28976,2.9164 -1.32642,3.7512 -0.11792,3.8817 z"
       id="path3060"
       inkscape:connector-curvature="0"
       sodipodi:nodetypes="ccccccccccccccccc" />
    <path
       style="fill:#000000;stroke:#000000;stroke-width:0.0932688px;stroke-linecap:butt;stroke-linejoin:miter;stroke-opacity:1"
       d="m 73.706351,1054.5084 -1.43474,6.3878 1.62907,6.9796 3.79699,6.4917 5.06907,4.9237 2.90208,1.3733 3.3467,0.5328 3.28686,-0.4202 2.72254,-1.4859 4.54668,-6.4259 2.361429,-8.2107 -0.35979,-8.2206 -3.617019,-6.4558 -5.77171,-2.6435 -7.09802,0.1433 -6.72563,2.526 z"
       id="path3062"
       inkscape:connector-curvature="0"
       sodipodi:nodetypes="ccccccccccccccccc" />
  </g>
</svg>
