<?xml version="1.0" encoding="UTF-8" standalone="no"?>
<!-- Created with Inkscape (http://www.inkscape.org/) -->

<svg
   xmlns:dc="http://purl.org/dc/elements/1.1/"
   xmlns:cc="http://creativecommons.org/ns#"
   xmlns:rdf="http://www.w3.org/1999/02/22-rdf-syntax-ns#"
   xmlns:svg="http://www.w3.org/2000/svg"
   xmlns="http://www.w3.org/2000/svg"
   xmlns:sodipodi="http://sodipodi.sourceforge.net/DTD/sodipodi-0.dtd"
   xmlns:inkscape="http://www.inkscape.org/namespaces/inkscape"
   width="744.09448819"
   height="1052.3622047"
   id="svg3857"
   version="1.1"
   inkscape:version="0.48.4 r9939"
   sodipodi:docname="lunar_lander.svg">
  <defs
     id="defs3859" />
  <sodipodi:namedview
     id="base"
     pagecolor="#ffffff"
     bordercolor="#666666"
     borderopacity="1.0"
     inkscape:pageopacity="0.0"
     inkscape:pageshadow="2"
     inkscape:zoom="0.077543178"
     inkscape:cx="-1678.5725"
     inkscape:cy="1537.8364"
     inkscape:document-units="px"
     inkscape:current-layer="layer1"
     showgrid="false"
     inkscape:window-width="1366"
     inkscape:window-height="721"
     inkscape:window-x="-4"
     inkscape:window-y="24"
     inkscape:window-maximized="1" />
  <metadata
     id="metadata3862">
    <rdf:RDF>
      <cc:Work
         rdf:about="">
        <dc:format>image/svg+xml</dc:format>
        <dc:type
           rdf:resource="http://purl.org/dc/dcmitype/StillImage" />
        <dc:title></dc:title>
      </cc:Work>
    </rdf:RDF>
  </metadata>
  <g
     inkscape:label="Layer 1"
     inkscape:groupmode="layer"
     id="layer1">
    <path
       style="fill:#000000;stroke:#000000;stroke-width:0.36672667px;stroke-linecap:butt;stroke-linejoin:miter;stroke-opacity:1"
       d="m -1889.9201,1450.9795 c -36.7062,0.5752 -41.419,21.9103 -50.7801,41.7152 -9.8503,20.8396 0,46.1006 0,69.1509 0,39.8166 -28.1546,91.2952 0,119.4497 12.8442,12.8443 41.7782,12.9721 54.4933,0 24.4535,-24.9479 -9.9206,-70.734 -2.0973,-104.7806 8.6051,-37.4487 66.111,19.9135 69.6061,-78.0815 2.476,-69.4226 -56.8586,-47.6787 -71.222,-47.4537 z m 9.9933,33.3263 c 13.8883,0 25.1552,10.327 25.1552,23.058 0,12.7309 -11.2669,23.0464 -25.1552,23.0464 -13.8882,0 -25.1436,-10.3155 -25.1436,-23.0464 0,-12.731 11.2554,-23.058 25.1436,-23.058 z"
       id="path4085"
       inkscape:connector-curvature="0"
       sodipodi:nodetypes="sssssssssssss" />
    <path
       sodipodi:nodetypes="ssssssssssssss"
       inkscape:connector-curvature="0"
       id="path4090"
       d="m -1703.9302,1459.1721 c -46.7439,-1.2301 -67.87,9.5398 -82.4246,38.1294 -22.8846,44.9523 -30.4784,133.8494 6.1525,168.5278 15.4943,14.6684 48.5612,12.305 63.9615,-2.4621 18.4102,-17.6534 -34.5435,-69.9115 -9.8428,-76.2721 30.9487,-7.9694 39.7199,66.9109 68.8934,79.9585 15.5073,6.9355 43.2273,8.0137 50.4265,-7.3729 17.9416,-38.3459 -71.6207,-68.6964 -60.2731,-109.4829 10.9126,-39.2227 47.9542,-88.7928 -36.8934,-91.0257 z m -17.2215,43.0536 c 8.8318,0 15.9837,7.4311 15.9837,16.6026 0,9.1715 -7.1519,16.6025 -15.9837,16.6025 -8.8317,0 -15.997,-7.431 -15.997,-16.6025 0,-9.1715 7.1653,-16.6026 15.997,-16.6026 z"
       style="fill:#000000;stroke:#000000;stroke-width:0.43053579px;stroke-linecap:butt;stroke-linejoin:miter;stroke-opacity:1" />
    <path
       sodipodi:nodetypes="sssssssssssss"
       style="fill:#000000;stroke:#000000;stroke-width:0.48642844px;stroke-linecap:butt;stroke-linejoin:miter;stroke-opacity:1"
       d="m -1441.8302,1487.3031 c -26.8328,-33.9645 -97.2038,-41.6038 -129.2511,-12.5081 -42.874,38.9252 -42.205,134.0748 0,173.7244 32.4768,30.5103 111.453,30.4303 133.4204,-8.3388 7.4566,-13.1597 -8.178,-32.0411 -20.8469,-40.3041 -18.6617,-12.1715 -52.2429,12.7747 -66.7102,-4.1694 -6.3457,-7.432 -4.4508,-22.6111 2.7796,-29.1856 7.5406,-6.8566 24.438,8.1366 30.5755,0 6.0929,-8.0776 -0.1115,-23.2965 -8.3388,-29.1857 -7.5434,-5.3998 -21.0743,7.7836 -27.7959,1.3897 -5.0349,-4.7894 -5.1997,-16.237 0,-20.8469 20.2515,-17.9543 59.1747,26.2539 80.6081,9.7286 10.7403,-8.2808 13.9664,-29.6625 5.5593,-40.3041 z"
       id="path4092"
       inkscape:connector-curvature="0" />
    <path
       style="fill:#000000;stroke:#000000;stroke-width:0.43053579px;stroke-linecap:butt;stroke-linejoin:miter;stroke-opacity:1"
       d="m -1316.4082,1465.5414 c -30.3333,-4.3266 -70.0261,0.2084 -88.5674,24.6021 -7.9399,10.4461 -6.4182,27.9191 0,39.3632 16.9243,30.1769 68.2552,37.5743 67.7466,72.1692 -0.5832,39.6653 -71.9408,2.7639 -82.5078,41.0002 -4.0101,14.5106 7.6313,35.3532 22.1419,39.3633 50.9817,14.0894 129.5056,-26.4836 137.7714,-78.7265 5.7155,-36.1242 -75.7363,-48.4813 -66.8658,-83.9629 5.9135,-23.6544 59.3744,2.4205 61.9454,-21.8259 2.1357,-20.1413 -31.613,-29.1226 -51.6643,-31.9827 z"
       id="path4094"
       inkscape:connector-curvature="0"
       sodipodi:nodetypes="ssssssssss" />
    <path
       style="fill:#000000;stroke:#000000;stroke-width:0.43053579px;stroke-linecap:butt;stroke-linejoin:miter;stroke-opacity:1"
       d="m -672.08065,1659.8976 c -41.40867,-44.3697 -40.74349,-139.4314 2.46021,-182.0552 16.34585,-16.1264 50.65004,-13.9538 68.88573,0 32.3874,24.7827 -8.78491,119.1512 31.98265,118.0899 42.77076,-1.1136 -7.74413,-100.5889 27.06223,-125.4705 11.41953,-8.1633 32.82737,-5.8553 41.8235,4.9205 42.12676,50.46 37.38829,153.783 -12.30101,196.8163 -23.01184,19.9293 -67.4235,11.8436 -91.02758,-7.3806 -27.16401,-22.1235 5.02151,-106.7037 -29.52244,-100.8684 -32.38491,5.4706 28.20862,75.2486 4.92038,98.4082 -10.48278,10.4248 -34.19669,8.348 -44.28367,-2.4602 z"
       id="path4102"
       inkscape:connector-curvature="0"
       sodipodi:nodetypes="sssssssssss" />
    <path
       style="fill:#000000;stroke:#000000;stroke-width:0.35637313px;stroke-linecap:butt;stroke-linejoin:miter;stroke-opacity:1"
       d="m -428.20509,1504.3515 c 46.50876,-36.4957 136.80709,-51.3426 177.16832,-8.1457 16.3257,17.4727 9.19202,54.8055 -8.14565,71.2746 -15.77979,14.9893 -49.77581,-11.3167 -65.16538,4.0729 -23.08439,23.0844 18.37016,76.1485 -6.10923,97.748 -16.31961,14.3997 -51.14365,12.5726 -65.1654,-4.0728 -20.23551,-24.0219 31.53157,-70.6377 10.18212,-93.6752 -14.31088,-15.4424 -50.24549,18.6882 -63.12897,2.0364 -14.72114,-19.027 1.4385,-54.3871 20.36419,-69.2382 z"
       id="path4106"
       inkscape:connector-curvature="0"
       sodipodi:nodetypes="sssssssss" />
    <path
       sodipodi:nodetypes="sssssssssssss"
       style="fill:#000000;stroke:#000000;stroke-width:0.48642844px;stroke-linecap:butt;stroke-linejoin:miter;stroke-opacity:1"
       d="m -81.583176,1506.9847 c -26.832764,-33.9645 -97.203754,-41.6038 -129.250984,-12.5081 -42.874,38.9252 -42.20508,134.0749 0,173.7245 32.47674,30.5103 111.452894,30.4303 133.420334,-8.3388 7.45662,-13.1598 -8.17794,-32.0411 -20.84689,-40.3041 -18.661704,-12.1715 -52.242894,12.7746 -66.710234,-4.1694 -6.34571,-7.432 -4.45079,-22.6112 2.77963,-29.1857 7.54062,-6.8566 24.43798,8.1366 30.57549,0 6.09294,-8.0776 -0.11151,-23.2965 -8.33875,-29.1857 -7.54346,-5.3998 -21.07438,7.7836 -27.79595,1.3898 -5.03481,-4.7894 -5.19971,-16.237 0,-20.847 20.25154,-17.9543 59.17469,26.254 80.608144,9.7286 10.74027,-8.2808 13.96637,-29.6624 5.55921,-40.3041 z"
       id="path4112"
       inkscape:connector-curvature="0" />
    <path
       sodipodi:nodetypes="ssssssssssssss"
       inkscape:connector-curvature="0"
       id="path4114"
       d="m 45.02913,1481.314 c -46.7438739,-1.2301 -67.869921,9.5398 -82.424528,38.1293 -22.884658,44.9523 -30.478398,133.8494 6.152443,168.5278 15.494294,14.6685 48.561208,12.3051 63.961473,-2.4621 18.410271,-17.6534 -34.5434799,-69.9115 -9.842737,-76.2721 30.948679,-7.9694 39.719898,66.911 68.893391,79.9586 15.507298,6.9355 43.227298,8.0137 50.426508,-7.3729 17.94154,-38.346 -71.620752,-68.6965 -60.273077,-109.483 10.912575,-39.2227 47.954197,-88.7928 -36.893473,-91.0256 z m -17.221432,43.0535 c 8.831795,0 15.983642,7.4311 15.983642,16.6026 0,9.1715 -7.151847,16.6025 -15.983642,16.6025 -8.831753,0 -15.997074,-7.431 -15.997074,-16.6025 0,-9.1715 7.165321,-16.6026 15.997074,-16.6026 z"
       style="fill:#000000;stroke:#000000;stroke-width:0.43053579px;stroke-linecap:butt;stroke-linejoin:miter;stroke-opacity:1" />
    <path
       sodipodi:nodetypes="sssssssss"
       inkscape:connector-curvature="0"
       id="path4116"
       d="m 383.04732,1516.6525 c 46.50875,-36.4956 136.80709,-51.3425 177.16831,-8.1457 16.32571,17.4728 9.19203,54.8056 -8.14565,71.2747 -15.77978,14.9892 -49.77579,-11.3168 -65.16538,4.0728 -23.08438,23.0844 18.37019,76.1486 -6.10921,97.7481 -16.31964,14.3996 -51.14365,12.5725 -65.16538,-4.0729 -20.23552,-24.0218 31.53153,-70.6377 10.18209,-93.6752 -14.31088,-15.4424 -50.24546,18.6882 -63.12895,2.0364 -14.72113,-19.027 1.43847,-54.3871 20.36417,-69.2382 z"
       style="fill:#000000;stroke:#000000;stroke-width:0.35637313px;stroke-linecap:butt;stroke-linejoin:miter;stroke-opacity:1" />
    <path
       inkscape:connector-curvature="0"
       id="path4118"
       d="m 658.23451,1483.0294 c -48.91472,0 -88.57253,45.6081 -88.57253,101.86 0,56.252 39.65781,101.8439 88.57253,101.8439 48.91477,0 88.55639,-45.5919 88.55639,-101.8439 0,-56.2519 -39.64162,-101.86 -88.55639,-101.86 z m -2.95459,81.1942 c 13.04394,0 23.62048,14.1975 23.62048,31.7253 0,17.5278 -10.57654,31.7415 -23.62048,31.7415 -13.0439,0 -23.6204,-14.2137 -23.6204,-31.7415 0,-17.5278 10.5765,-31.7253 23.6204,-31.7253 z"
       style="fill:#000000;fill-opacity:1;fill-rule:nonzero;stroke:none" />
    <path
       sodipodi:nodetypes="ssssssssss"
       inkscape:connector-curvature="0"
       id="path4124"
       d="m 964.85168,1487.6833 c -30.33327,-4.3267 -70.02613,0.2084 -88.56737,24.602 -7.93989,10.4461 -6.41825,27.9191 0,39.3633 16.92424,30.1768 89.07601,19.5295 88.56737,54.1245 -0.5832,39.6653 -92.7616,20.8085 -103.32859,59.0449 -4.01014,14.5105 7.63134,35.3531 22.14185,39.3632 50.98173,14.0894 129.50566,-26.4835 137.77146,-78.7265 5.7155,-36.1242 -82.67657,-45.7051 -73.80615,-81.1867 5.91358,-23.6544 66.31475,-0.3556 68.88575,-24.6021 2.1357,-20.1413 -31.61306,-29.1226 -51.66432,-31.9826 z"
       style="fill:#000000;stroke:#000000;stroke-width:0.43053579px;stroke-linecap:butt;stroke-linejoin:miter;stroke-opacity:1" />
    <path
       style="fill:#000000;stroke:#000000;stroke-width:0.35637313px;stroke-linecap:butt;stroke-linejoin:miter;stroke-opacity:1"
       d="m 1058.6548,1516.6525 c 46.5088,-36.4956 136.8071,-51.3425 177.1683,-8.1457 16.3257,17.4728 9.192,54.8056 -8.1456,71.2747 -15.7798,14.9892 -49.7758,-11.3168 -65.1654,4.0728 -23.0844,23.0844 18.3702,76.1486 -6.1092,97.7481 -16.3197,14.3996 -51.1437,12.5725 -65.1654,-4.0729 -20.2355,-24.0218 31.5315,-70.6377 10.1821,-93.6752 -14.3109,-15.4424 -50.2455,18.6882 -63.129,2.0364 -14.7212,-19.027 1.4384,-54.3871 20.3642,-69.2382 z"
       id="path4126"
       inkscape:connector-curvature="0"
       sodipodi:nodetypes="sssssssss" />
    <path
       id="path4130"
       d="m 1353.3079,1500.6565 c -17.1244,-11.1156 -45.6644,-5.2174 -60.6307,8.6683 -42.6209,39.5438 -75.3489,126.1747 -37.531,170.3343 10.0366,11.7195 34.7432,7.4468 46.1993,-2.8895 15.2124,-13.7252 -3.3305,-45.1618 10.1051,-60.6306 6.2861,-7.2374 18.7131,-12.6502 27.4259,-8.6525 26.6459,12.2259 10.1671,64.7016 34.6416,80.8408 9.2401,6.0932 26.5351,8.833 33.2048,0 39.1939,-51.9059 1.1407,-152.258 -53.415,-187.6708 z m -44.7467,40.4204 c 4.2699,-4.5747 13.6583,-3.605 18.7734,0 11.694,8.2418 22.3909,28.5326 14.4314,40.4205 -5.6285,8.4064 -22.7565,8.1766 -30.3154,1.4526 -10.4535,-9.2989 -12.4359,-31.6452 -2.8894,-41.8731 z"
       style="fill:#000000;stroke:#000000;stroke-width:0.50525558px;stroke-linecap:butt;stroke-linejoin:miter;stroke-opacity:1"
       inkscape:connector-curvature="0"
       sodipodi:nodetypes="ssssssssssssss" />
    <path
       sodipodi:nodetypes="sssssssssssss"
       style="fill:#000000;stroke:#000000;stroke-width:0.48642844px;stroke-linecap:butt;stroke-linejoin:miter;stroke-opacity:1"
       d="m -718.77617,1487.3031 c -26.83276,-33.9645 -97.20375,-41.6038 -129.25098,-12.5082 -42.874,38.9253 -42.20508,134.0749 0,173.7245 32.47674,30.5103 111.45289,30.4303 133.42033,-8.3388 7.45662,-13.1597 -8.17794,-32.0411 -20.84689,-40.3041 -18.6617,-12.1715 -52.24289,12.7747 -66.71023,-4.1694 -6.34571,-7.432 -4.45079,-22.6111 2.77963,-29.1856 7.54062,-6.8566 24.43799,8.1366 30.57549,0 6.09294,-8.0776 -0.11151,-23.2965 -8.33875,-29.1857 -7.54346,-5.3998 -21.07438,7.7836 -27.79595,1.3897 -5.03481,-4.7894 -5.19971,-16.237 0,-20.8469 20.25154,-17.9543 59.17469,26.2539 80.60814,9.7286 10.74028,-8.2808 13.96637,-29.6625 5.55921,-40.3041 z"
       id="path4132"
       inkscape:connector-curvature="0" />
    <path
       style="fill:#000000;stroke:#000000;stroke-width:0.43053579px;stroke-linecap:butt;stroke-linejoin:miter;stroke-opacity:1"
       d="m 1541.7299,1486.2344 c -46.7439,-1.2301 -67.87,9.5398 -82.4246,38.1293 -22.8846,44.9523 -30.4784,133.8495 6.1525,168.5279 15.4943,14.6684 48.5612,12.305 63.9614,-2.4621 18.4103,-17.6535 -34.5434,-69.9116 -9.8427,-76.2722 30.9487,-7.9694 39.7199,66.911 68.8934,79.9586 15.5073,6.9355 43.2273,8.0137 50.4265,-7.3729 17.9415,-38.3459 -71.6207,-68.6965 -60.2731,-109.4829 10.9126,-39.2227 47.9542,-88.7929 -36.8934,-91.0257 z m -17.2215,43.0536 c 8.8318,0 15.9837,7.4311 15.9837,16.6025 0,9.1715 -7.1519,16.6025 -15.9837,16.6025 -8.8317,0 -15.9971,-7.431 -15.9971,-16.6025 0,-9.1714 7.1654,-16.6025 15.9971,-16.6025 z"
       id="path4134"
       inkscape:connector-curvature="0"
       sodipodi:nodetypes="ssssssssssssss" />
    <path
       style="fill:#000000;stroke:#000000;stroke-width:0.35637313px;stroke-linecap:butt;stroke-linejoin:miter;stroke-opacity:1"
       d="m 1662.758,1521.5729 c 46.5088,-36.4956 136.8071,-51.3425 177.1683,-8.1457 16.3257,17.4728 9.1921,54.8056 -8.1456,71.2747 -15.7798,14.9892 -49.7758,-11.3168 -65.1654,4.0728 -23.0844,23.0844 18.3702,76.1486 -6.1092,97.7481 -16.3196,14.3996 -51.1436,12.5725 -65.1654,-4.0729 -20.2355,-24.0218 31.5316,-70.6377 10.1821,-93.6752 -14.3109,-15.4424 -50.2455,18.6883 -63.1289,2.0364 -14.7212,-19.0269 1.4384,-54.3871 20.3641,-69.2382 z"
       id="path4136"
       inkscape:connector-curvature="0"
       sodipodi:nodetypes="sssssssss" />
    <path
       style="fill:#000000;stroke:#000000;stroke-width:0.43053579px;stroke-linecap:butt;stroke-linejoin:miter;stroke-opacity:1"
       d="m -777.86945,1357.2924 c -47.44586,-26.0452 -124.34777,-38.5163 -162.37347,0 -89.88628,91.0461 -82.60908,290.4778 4.92038,383.7919 43.89041,46.791 144.82453,58.3508 191.89596,14.7612 9.62721,-8.9151 8.42313,-29.3027 0,-39.3632 -29.94734,-35.7688 -107.82412,11.1667 -137.77146,-24.6021 -58.96192,-70.4235 -63.77655,-209.4479 0,-275.5429 31.9086,-33.0685 116.38093,35.7506 137.77146,-4.9204 9.95433,-18.9267 -15.69687,-43.834 -34.44287,-54.1245 z"
       id="path4138"
       inkscape:connector-curvature="0"
       sodipodi:nodetypes="sssssssss" />
    <path
       inkscape:connector-curvature="0"
       id="path4144"
       d="m 43.838888,1391.7353 c 47.44584,-26.0452 124.347762,-38.5164 162.373442,0 89.88631,91.0461 82.60909,290.4777 -4.92038,383.7918 -43.89041,46.7911 -144.824504,58.3509 -191.8959259,14.7613 -9.62722796,-8.9151 -8.42312696,-29.3028 0,-39.3633 29.9473249,-35.7688 107.8241259,11.1668 137.7714559,-24.602 58.96193,-70.4236 63.77652,-209.448 0,-275.5429 -31.9086,-33.0686 -116.380918,35.7506 -137.7714559,-4.9204 -9.95431496,-18.9267 15.6968569,-43.834 34.4428639,-54.1245 z"
       style="fill:#000000;stroke:#000000;stroke-width:0.43053579px;stroke-linecap:butt;stroke-linejoin:miter;stroke-opacity:1"
       sodipodi:nodetypes="sssssssss" />
    <path
       sodipodi:nodetypes="ssssssssss"
       inkscape:connector-curvature="0"
       id="path4146"
       d="m -1147.0659,1465.5414 c -30.3332,-4.3266 -70.0261,0.2084 -88.5673,24.6021 -7.9399,10.4461 -6.4183,27.9191 0,39.3632 16.9242,30.1769 68.2552,37.5743 67.7465,72.1692 -0.5832,39.6653 -71.9408,2.7639 -82.5077,41.0002 -4.0102,14.5106 7.6313,35.3532 22.1418,39.3633 50.9817,14.0894 129.5056,-26.4836 137.7715,-78.7265 5.7154,-36.1242 -75.7363,-48.4813 -66.8659,-83.9629 5.9136,-23.6544 59.3744,2.4205 61.9454,-21.8259 2.1358,-20.1413 -31.613,-29.1226 -51.6643,-31.9827 z"
       style="fill:#000000;stroke:#000000;stroke-width:0.43053579px;stroke-linecap:butt;stroke-linejoin:miter;stroke-opacity:1" />
    <path
       style="fill:#000000;stroke:#000000;stroke-width:0.43053579px;stroke-linecap:butt;stroke-linejoin:miter;stroke-opacity:1"
       d="m -1897.3662,-41.643752 c -51.1213,58.81778 -69.7614,176.159402 -16.6566,233.192712 47.9251,51.47043 172.49,58.85777 210.9839,0 17.6912,-27.05017 -12.3466,-70.35714 -38.8655,-88.83531 -25.8585,-18.018052 -74.0199,18.4993 -94.3875,-5.552232 -33.6804,-39.77225 55.3809,-120.58158 16.6566,-155.46178 -19.689,-17.73455 -60.3479,-3.34346 -77.7309,16.65661 z"
       id="path3024"
       inkscape:connector-curvature="0"
       sodipodi:nodetypes="sssssss" />
    <path
       style="fill:#000000;stroke:#000000;stroke-width:0.43053579px;stroke-linecap:butt;stroke-linejoin:miter;stroke-opacity:1"
       d="m -1641.9647,-36.091472 c -64.9308,63.30835 -64.9414,208.760662 0,272.058212 51.705,50.39623 165.1164,45.13513 216.5361,-5.55224 65.9536,-65.01439 77.0963,-212.634802 11.1044,-277.610402 -23.7747,-23.40857 -76.1616,-17.85289 -99.9397,5.55224 -37.0253,36.4445096 26.9178,120.05856 -11.1045,155.461782 -8.1269,7.56709 -25.3933,7.78357 -33.3132,0 -35.159,-34.553992 32.1524,-112.87077242 -2.5666,-147.866792 -18.9553,-19.10662 -61.4461,-20.83169 -80.7165,-2.0428 z"
       id="path3028"
       inkscape:connector-curvature="0"
       sodipodi:nodetypes="sssssssss" />
    <path
       sodipodi:nodetypes="sssssssssss"
       inkscape:connector-curvature="0"
       id="path3032"
       d="m -1292.3523,262.30989 c -65.98,-70.69803 -64.9201,-222.167902 3.9201,-290.084102 26.0451,-25.69567 80.7049,-22.23386 109.7614,0 51.6057,39.48831 -13.9978,189.853822 50.9607,188.162632 68.1503,-1.7742 -12.3394,-160.27683242 43.1206,-199.922802 18.1957,-13.00731 52.3066,-9.32976 66.641,7.8401 67.12406,80.40247 59.57386,245.035842 -19.6003,313.604482 -36.6667,31.75503 -107.4316,18.87129 -145.0421,-11.76021 -43.2827,-35.25133 8.0012,-170.02016 -47.0406,-160.72226 -51.6016,8.7168 44.9472,119.9001 7.8401,156.80218 -16.7031,16.61081 -54.4885,13.30175 -70.5609,-3.92002 z"
       style="fill:#000000;stroke:#000000;stroke-width:0.68600965px;stroke-linecap:butt;stroke-linejoin:miter;stroke-opacity:1" />
    <path
       sodipodi:nodetypes="ssssssssssssss"
       inkscape:connector-curvature="0"
       style="fill:#000000;stroke:#000000;stroke-width:0.91131908px;stroke-linecap:butt;stroke-linejoin:miter;stroke-opacity:1"
       d="m -754.88676,-36.609882 c -30.88685,-20.04906 -82.36391,-9.41057 -109.35828,15.63482 -76.87449,71.3245 -135.90526,227.578832 -67.69392,307.228512 18.10274,21.13836 62.6656,13.43172 83.32878,-5.21168 27.43822,-24.75598 -6.00718,-81.45746 18.22639,-109.35825 11.33807,-13.05384 33.75241,-22.81682 49.46748,-15.60632 48.06058,22.05179 18.33829,116.70099 62.48229,145.81102 16.66621,10.9902 47.86081,15.93189 59.89088,0 70.69325,-93.62164 2.05749,-274.624762 -96.34362,-338.498102 z m -80.70867,72.90555 c 7.70156,-8.25126 24.63526,-6.50234 33.86125,0 21.09208,14.86558 40.38594,51.46362 26.02951,72.905512 -10.15199,15.16248 -41.04543,14.74792 -54.67912,2.62007 -18.8548,-16.772212 -22.4304,-57.077722 -5.21164,-75.525582 z"
       id="path3034" />
    <path
       sodipodi:nodetypes="ssssssssssssss"
       inkscape:connector-curvature="0"
       id="path3036"
       d="m -445.5396,-35.926232 c -74.48102,-1.96002 -108.14293,15.20058 -131.33404,60.7548 -36.46414,71.62621 -48.56388,213.273712 9.80317,268.529792 24.68838,23.37246 77.37675,19.60665 101.91531,-3.92304 29.33469,-28.12875 -55.04107,-111.39614 -15.6833,-121.53091 49.31321,-12.69839 63.28913,106.615 109.77378,127.40484 24.7091,11.05086 68.8778,12.76887 80.34891,-11.7479 28.5878,-61.09988 -114.11953,-109.45998 -96.03828,-174.44856 17.38796,-62.496922 76.40955,-141.481252 -58.78555,-145.039022 z m -27.44037,68.60092 c 14.07244,0 25.46808,11.84064 25.46808,26.45432 0,14.61367 -11.39564,26.45423 -25.46808,26.45423 -14.07241,0 -25.48953,-11.84056 -25.48953,-26.45423 0,-14.61368 11.41712,-26.45432 25.48953,-26.45432 z"
       style="fill:#000000;stroke:#000000;stroke-width:0.68600965px;stroke-linecap:butt;stroke-linejoin:miter;stroke-opacity:1" />
    <path
       sodipodi:nodetypes="sssssss"
       inkscape:connector-curvature="0"
       id="path3039"
       d="m -140.83472,14.574708 c -57.98921,66.71966 -79.13355,199.825632 -18.89436,264.521082 54.36362,58.38526 195.663188,66.76504 239.328602,0 C 99.667484,248.41155 65.594193,199.28651 35.512656,178.32587 6.1801241,157.88718 -48.451506,199.31049 -71.555396,172.02774 -109.76063,126.91221 -8.7342809,35.246538 -52.660986,-4.3196524 -74.995116,-24.436742 -121.11644,-8.1122924 -140.83472,14.574708 z"
       style="fill:#000000;stroke:#000000;stroke-width:0.48837629px;stroke-linecap:butt;stroke-linejoin:miter;stroke-opacity:1" />
    <path
       id="path3041"
       d="M 332.40082,-22.047142 C 301.44938,-42.138092 249.86469,-31.477382 222.81387,-6.3796424 145.77869,65.093948 86.624445,221.67493 154.9785,301.4911 c 18.14058,21.18253 62.79655,13.45979 83.50296,-5.22253 27.49556,-24.80777 -6.01975,-81.62778 18.26449,-109.58686 11.36175,-13.08118 33.82298,-22.86451 49.57086,-15.63895 48.16111,22.09785 18.37664,116.94493 62.61294,146.11579 16.70105,11.0132 47.96083,15.96522 60.01604,0 70.84105,-93.81732 2.06179,-275.198842 -96.54497,-339.205692 z m -80.87744,73.05796 c 7.71765,-8.26852 24.68679,-6.51594 33.93203,0 21.13621,14.89667 40.47041,51.571172 26.08397,73.057882 -10.17322,15.19421 -41.13128,14.77874 -54.79343,2.62558 -18.89424,-16.8073 -22.47729,-57.197022 -5.22257,-75.683462 z"
       style="fill:#000000;stroke:#000000;stroke-width:0.91322422px;stroke-linecap:butt;stroke-linejoin:miter;stroke-opacity:1"
       inkscape:connector-curvature="0"
       sodipodi:nodetypes="ssssssssssssss" />
    <path
       style="fill:#000000;stroke:#000000;stroke-width:0.68600965px;stroke-linecap:butt;stroke-linejoin:miter;stroke-opacity:1"
       d="m 517.6672,288.34878 c -65.97999,-70.69803 -64.9201,-222.167902 3.92007,-290.0841024 26.04518,-25.6956696 80.70497,-22.2338596 109.76144,0 C 682.95437,37.752988 617.35096,188.1185 682.30943,186.42731 750.45976,184.65311 669.97006,26.150478 725.43,-13.495492 c 18.19573,-13.00731 52.30665,-9.32976 66.641,7.8400996 67.12414,80.4024704 59.57392,245.0358424 -19.60027,313.6044824 -36.66676,31.75503 -107.43164,18.87129 -145.04209,-11.76021 -43.28271,-35.25133 8.00121,-170.02016 -47.0406,-160.72226 -51.6016,8.7168 44.94721,119.9001 7.84006,156.80219 -16.70311,16.6108 -54.48852,13.30174 -70.5609,-3.92003 z"
       id="path3043"
       inkscape:connector-curvature="0"
       sodipodi:nodetypes="sssssssssss" />
    <path
       sodipodi:nodetypes="sssssssssssss"
       style="fill:#000000;stroke:#000000;stroke-width:0.76393425px;stroke-linecap:butt;stroke-linejoin:miter;stroke-opacity:1"
       d="m 1421.4103,-16.529862 c -42.1407,-53.34111 -152.658,-65.33859 -202.9882,-19.64398 -67.3335,61.13191 -66.2829,210.564142 0,272.833702 51.0046,47.91635 175.0364,47.79072 209.5362,-13.09604 11.7106,-20.66736 -12.8435,-50.32046 -32.7399,-63.29746 -29.3082,-19.11529 -82.0474,20.06262 -104.7683,-6.54795 -9.9658,-11.67204 -6.9899,-35.51077 4.3654,-45.83609 11.8425,-10.768222 38.3798,12.7786 48.0187,0 9.569,-12.685822 -0.1751,-36.586932 -13.096,-45.836052 -11.8469,-8.48034 -33.0972,12.22421 -43.6534,2.18269 -7.9072,-7.52176 -8.1661,-25.50025 0,-32.74005 31.8049,-28.1972104 92.9337,41.23168 126.5948,15.27868 16.8675,-13.00498 21.9341,-46.58479042 8.7307,-63.29745 z"
       id="path3046"
       inkscape:connector-curvature="0" />
    <path
       style="fill:#000000;stroke:#000000;stroke-width:0.68600965px;stroke-linecap:butt;stroke-linejoin:miter;stroke-opacity:1"
       d="m 1620.9493,-92.756962 c -74.481,-1.96001 -108.1429,15.20058 -131.334,60.7548 -36.4642,71.62622 -48.5639,213.273722 9.8031,268.529802 24.6884,23.37245 77.3768,19.60664 101.9153,-3.92304 29.3347,-28.12876 -55.041,-111.39617 -15.6833,-121.53093 49.3133,-12.698402 63.2892,106.61501 109.7738,127.40486 24.7091,11.05086 68.8778,12.76887 80.3489,-11.74791 28.5878,-61.09987 -114.1195,-109.45999 -96.0383,-174.448552 17.388,-62.49692 76.4096,-141.48125 -58.7855,-145.03903 z m -27.4404,68.60093 c 14.0725,0 25.4681,11.84064 25.4681,26.4543096 0,14.6136804 -11.3956,26.4542304 -25.4681,26.4542304 -14.0724,0 -25.4895,-11.84055 -25.4895,-26.4542304 0,-14.6136696 11.4171,-26.4543096 25.4895,-26.4543096 z"
       id="path3048"
       inkscape:connector-curvature="0"
       sodipodi:nodetypes="ssssssssssssss" />
    <path
       style="fill:#000000;stroke:#000000;stroke-width:0.28606519px;stroke-linecap:butt;stroke-linejoin:miter;stroke-opacity:1"
       d="m 1051.484,-23.552892 c -38.3953,-19.51787 -101.16217,-24.62768 -132.25706,3.5012 -77.72953,70.31523 -82.15531,224.170102 -7.78645,297.365962 39.4478,38.82572 125.05301,37.77091 175.05451,10.49522 49.6439,-27.08066 72.8943,-91.27841 70.0311,-143.43121 C 1153.0046,80.230638 1113.656,8.0514876 1051.484,-23.552892 z m -58.3515,115.45531 c 28.4447,-15.28453 85.8255,15.675252 85.5854,45.473452 -0.2272,28.20421 -54.2565,55.64664 -81.69215,41.98071 -28.37898,-14.13587 -31.74203,-72.48976 -3.89325,-87.454162 z"
       id="path3052"
       inkscape:connector-curvature="0"
       sodipodi:nodetypes="ssssssssss" />
    <path
       style="fill:#000000;stroke:#000000;stroke-width:0.43053579px;stroke-linecap:butt;stroke-linejoin:miter;stroke-opacity:1"
       d="m -1914.0228,255.62001 c -29.3343,-4.04433 -29.4051,85.34218 0,88.83533 3293.5863,391.25788 3122.3267,-143.23133 3697.77,288.71476 79.9824,60.03727 116.4102,-356.92136 16.6566,-349.78906 -987.09167,70.57644 -2702.91224,111.69717 -3714.4266,-27.76103 z"
       id="path3059"
       inkscape:connector-curvature="0"
       sodipodi:nodetypes="sssss" />
  </g>
</svg>
