  0
SECTION
  2
HEADER
  9
$ACADVER
  1
AC1014
  9
$HANDSEED
  5
FFFF
  9
$MEASUREMENT
 70
     1
  0
ENDSEC
  0
SECTION
  2
TABLES
  0
TABLE
  2
VPORT
  5
8
330
0
100
AcDbSymbolTable
 70
     4
  0
VPORT
  5
2E
330
8
100
AcDbSymbolTableRecord
100
AcDbViewportTableRecord
  2
*ACTIVE
 70
     0
 10
0.0
 20
0.0
 11
1.0
 21
1.0
 12
210.0
 22
148.5
 13
0.0
 23
0.0
 14
10.0
 24
10.0
 15
10.0
 25
10.0
 16
0.0
 26
0.0
 36
1.0
 17
0.0
 27
0.0
 37
0.0
 40
341.0
 41
1.24
 42
50.0
 43
0.0
 44
0.0
 50
0.0
 51
0.0
 71
     0
 72
   100
 73
     1
 74
     3
 75
     0
 76
     0
 77
     0
 78
     0
  0
ENDTAB
  0
TABLE
  2
LTYPE
  5
5
330
0
100
AcDbSymbolTable
 70
     1
  0
LTYPE
  5
14
330
5
100
AcDbSymbolTableRecord
100
AcDbLinetypeTableRecord
  2
BYBLOCK
 70
     0
  3

 72
    65
 73
     0
 40
0.0
  0
LTYPE
  5
15
330
5
100
AcDbSymbolTableRecord
100
AcDbLinetypeTableRecord
  2
BYLAYER
 70
     0
  3

 72
    65
 73
     0
 40
0.0
  0
LTYPE
  5
16
330
5
100
AcDbSymbolTableRecord
100
AcDbLinetypeTableRecord
  2
CONTINUOUS
 70
     0
  3
Solid line
 72
    65
 73
     0
 40
0.0
  0
ENDTAB
  0
TABLE
  2
LAYER
  5
2
100
AcDbSymbolTable
 70
2
  0
LAYER
  5
50
100
AcDbSymbolTableRecord
100
AcDbLayerTableRecord
  2
0
 70
0
  6
CONTINUOUS
  0
LAYER
  5
51
100
AcDbSymbolTableRecord
100
AcDbLayerTableRecord
  2
Layer_1
 70
0
  6
CONTINUOUS
  0
ENDTAB
  0
TABLE
  2
STYLE
  5
3
330
0
100
AcDbSymbolTable
 70
     1
  0
STYLE
  5
11
330
3
100
AcDbSymbolTableRecord
100
AcDbTextStyleTableRecord
  2
STANDARD
 70
     0
 40
0.0
 41
1.0
 50
0.0
 71
     0
 42
2.5
  3
txt
  4

  0
ENDTAB
  0
TABLE
  2
VIEW
  5
6
330
0
100
AcDbSymbolTable
 70
     0
  0
ENDTAB
  0
TABLE
  2
UCS
  5
7
330
0
100
AcDbSymbolTable
 70
     0
  0
ENDTAB
  0
TABLE
  2
APPID
  5
9
330
0
100
AcDbSymbolTable
 70
     2
  0
APPID
  5
12
330
9
100
AcDbSymbolTableRecord
100
AcDbRegAppTableRecord
  2
ACAD
 70
     0
  0
ENDTAB
  0
TABLE
  2
DIMSTYLE
  5
A
330
0
100
AcDbSymbolTable
 70
     1
  0
DIMSTYLE
105
27
330
A
100
AcDbSymbolTableRecord
100
AcDbDimStyleTableRecord
  2
ISO-25
 70
     0
  3

  4

  5

  6

  7

 40
1.0
 41
2.5
 42
0.625
 43
3.75
 44
1.25
 45
0.0
 46
0.0
 47
0.0
 48
0.0
140
2.5
141
2.5
142
0.0
143
0.03937007874016
144
1.0
145
0.0
146
1.0
147
0.625
 71
     0
 72
     0
 73
     0
 74
     0
 75
     0
 76
     0
 77
     1
 78
     8
170
     0
171
     3
172
     1
173
     0
174
     0
175
     0
176
     0
177
     0
178
     0
270
     2
271
     2
272
     2
273
     2
274
     3
340
11
275
     0
280
     0
281
     0
282
     0
283
     0
284
     8
285
     0
286
     0
287
     3
288
     0
  0
ENDTAB
  0
TABLE
  2
BLOCK_RECORD
  5
1
330
0
100
AcDbSymbolTable
 70
     1
  0
BLOCK_RECORD
  5
1F
330
1
100
AcDbSymbolTableRecord
100
AcDbBlockTableRecord
  2
*MODEL_SPACE
  0
BLOCK_RECORD
  5
1B
330
1
100
AcDbSymbolTableRecord
100
AcDbBlockTableRecord
  2
*PAPER_SPACE
  0
ENDTAB
  0
ENDSEC
  0
SECTION
  2
BLOCKS
  0
BLOCK
  5
20
330
1F
100
AcDbEntity
  8
0
100
AcDbBlockBegin
  2
*MODEL_SPACE
 70
     0
 10
0.0
 20
0.0
 30
0.0
  3
*MODEL_SPACE
  1

  0
ENDBLK
  5
21
330
1F
100
AcDbEntity
  8
0
100
AcDbBlockEnd
  0
BLOCK
  5
1C
330
1B
100
AcDbEntity
 67
     1
  8
0
100
AcDbBlockBegin
  2
*PAPER_SPACE
  1

  0
ENDBLK
  5
1D
330
1B
100
AcDbEntity
 67
     1
  8
0
100
AcDbBlockEnd
  0
ENDSEC
  0
SECTION
  2
ENTITIES
  0
LWPOLYLINE
  5
100
100
AcDbEntity
  8
Layer_1
 62
7
100
AcDbPolyline
 90
25
 70
0
 10
-535.478905
 20
94.963148
 30
0.0
 10
-544.407654
 20
79.940515
 30
0.0
 10
-548.859936
 20
61.868209
 30
0.0
 10
-547.796918
 20
43.890332
 30
0.0
 10
-540.179768
 20
29.150983
 30
0.0
 10
-526.697617
 20
20.686868
 30
0.0
 10
-509.409474
 20
17.474580
 30
0.0
 10
-492.620385
 20
20.100497
 30
0.0
 10
-480.635423
 20
29.150983
 30
0.0
 10
-479.190445
 20
35.555681
 30
0.0
 10
-481.440885
 20
42.593834
 30
0.0
 10
-486.030750
 20
49.178386
 30
0.0
 10
-491.604131
 20
54.222282
 30
0.0
 10
-498.036794
 20
55.657844
 30
0.0
 10
-505.504365
 20
54.367217
 30
0.0
 10
-512.681389
 20
53.395862
 30
0.0
 10
-518.242381
 20
55.789244
 30
0.0
 10
-519.981067
 20
65.995752
 30
0.0
 10
-515.358126
 20
78.244371
 30
0.0
 10
-511.002111
 20
90.234119
 30
0.0
 10
-513.541518
 20
99.664013
 30
0.0
 10
-518.623578
 20
101.834774
 30
0.0
 10
-524.754263
 20
101.307159
 30
0.0
 10
-530.762944
 20
98.782755
 30
0.0
 10
-535.478905
 20
94.963148
 30
0.0
  0
LWPOLYLINE
  5
101
100
AcDbEntity
  8
Layer_1
 62
7
100
AcDbPolyline
 90
33
 70
0
 10
-463.398926
 20
93.396171
 30
0.0
 10
-473.707121
 20
76.373630
 30
0.0
 10
-477.143741
 20
55.004593
 30
0.0
 10
-473.707940
 20
33.636123
 30
0.0
 10
-463.398926
 20
16.615298
 30
0.0
 10
-449.734884
 20
8.848176
 30
0.0
 10
-432.813093
 20
6.700775
 30
0.0
 10
-415.906373
 20
9.902361
 30
0.0
 10
-402.287627
 20
18.182264
 30
0.0
 10
-391.326285
 20
35.586161
 30
0.0
 10
-386.756430
 20
57.360274
 30
0.0
 10
-389.168696
 20
79.132341
 30
0.0
 10
-399.153719
 20
96.530088
 30
0.0
 10
-405.447754
 20
100.001224
 30
0.0
 10
-413.255968
 20
100.701056
 30
0.0
 10
-421.064351
 20
98.923663
 30
0.0
 10
-427.358923
 20
94.963122
 30
0.0
 10
-430.747904
 20
85.173579
 30
0.0
 10
-428.820382
 20
72.915533
 30
0.0
 10
-426.945580
 20
60.712591
 30
0.0
 10
-430.492860
 20
51.088353
 30
0.0
 10
-432.615171
 20
49.878487
 30
0.0
 10
-435.215623
 20
49.463741
 30
0.0
 10
-437.805124
 20
49.861302
 30
0.0
 10
-439.894585
 20
51.088353
 30
0.0
 10
-442.815980
 20
60.334035
 30
0.0
 10
-440.303327
 20
71.907209
 30
0.0
 10
-437.767391
 20
83.503777
 30
0.0
 10
-440.618936
 20
92.819647
 30
0.0
 10
-445.670376
 20
95.930292
 30
0.0
 10
-451.975587
 20
97.118513
 30
0.0
 10
-458.297449
 20
96.301434
 30
0.0
 10
-463.398926
 20
93.396171
 30
0.0
  0
LWPOLYLINE
  5
102
100
AcDbEntity
  8
Layer_1
 62
7
100
AcDbPolyline
 90
41
 70
0
 10
-364.730538
 20
9.180690
 30
0.0
 10
-375.145526
 20
27.694640
 30
0.0
 10
-378.445832
 20
50.409177
 30
0.0
 10
-374.611928
 20
72.976510
 30
0.0
 10
-363.624199
 20
91.048855
 30
0.0
 10
-356.836190
 20
94.990645
 30
0.0
 10
-348.454331
 20
96.121391
 30
0.0
 10
-339.913129
 20
94.715868
 30
0.0
 10
-332.647092
 20
91.048855
 30
0.0
 10
-326.833597
 20
77.982706
 30
0.0
 10
-326.869157
 20
60.138850
 30
0.0
 10
-326.198089
 20
44.474078
 30
0.0
 10
-318.264850
 20
37.945180
 30
0.0
 10
-310.450286
 20
45.399022
 30
0.0
 10
-310.836987
 20
62.148422
 30
0.0
 10
-311.895236
 20
80.901866
 30
0.0
 10
-306.095259
 20
94.367837
 30
0.0
 10
-301.559045
 20
96.252223
 30
0.0
 10
-296.282816
 20
96.455262
 30
0.0
 10
-291.210915
 20
95.061429
 30
0.0
 10
-287.287688
 20
92.155186
 30
0.0
 10
-277.017782
 20
71.474535
 30
0.0
 10
-274.570241
 20
46.649729
 30
0.0
 10
-279.864335
 20
22.451112
 30
0.0
 10
-292.819328
 20
3.649022
 30
0.0
 10
-302.088240
 20
-0.828914
 30
0.0
 10
-313.186487
 20
-1.294044
 30
0.0
 10
-324.334688
 20
1.542092
 30
0.0
 10
-333.753432
 20
6.968040
 30
0.0
 10
-338.796686
 20
18.621540
 30
0.0
 10
-339.146896
 20
34.362504
 30
0.0
 10
-340.119349
 20
47.746077
 30
0.0
 10
-347.029334
 20
52.327419
 30
0.0
 10
-351.354729
 20
45.839590
 30
0.0
 10
-347.457014
 20
33.183834
 30
0.0
 10
-342.792276
 20
19.036607
 30
0.0
 10
-344.816684
 20
8.074351
 30
0.0
 10
-349.279069
 20
5.585998
 30
0.0
 10
-354.840342
 20
5.046897
 30
0.0
 10
-360.368286
 20
6.298101
 30
0.0
 10
-364.730538
 20
9.180690
 30
0.0
  0
LWPOLYLINE
  5
103
100
AcDbEntity
  8
Layer_1
 62
7
100
AcDbPolyline
 90
33
 70
0
 10
-213.045819
 20
93.542478
 30
0.0
 10
-220.474342
 20
96.234107
 30
0.0
 10
-228.889441
 20
96.108727
 30
0.0
 10
-237.098563
 20
93.597102
 30
0.0
 10
-243.909156
 20
89.129984
 30
0.0
 10
-258.754296
 20
70.251104
 30
0.0
 10
-268.816452
 20
46.657727
 30
0.0
 10
-271.201145
 20
22.623801
 30
0.0
 10
-263.013884
 20
2.423274
 30
0.0
 10
-258.004031
 20
-0.603616
 30
0.0
 10
-251.526249
 20
-1.051530
 30
0.0
 10
-244.912975
 20
0.605650
 30
0.0
 10
-239.496651
 20
3.894132
 30
0.0
 10
-236.387838
 20
10.556721
 30
0.0
 10
-236.585557
 20
18.992976
 30
0.0
 10
-236.952852
 20
27.595625
 30
0.0
 10
-234.352759
 20
34.757452
 30
0.0
 10
-231.445133
 20
37.286036
 30
0.0
 10
-227.835579
 20
39.104320
 30
0.0
 10
-223.994410
 20
39.850281
 30
0.0
 10
-220.391936
 20
39.161902
 30
0.0
 10
-213.666380
 20
31.261833
 30
0.0
 10
-211.160476
 20
19.333369
 30
0.0
 10
-208.861827
 20
7.031399
 30
0.0
 10
-202.758046
 20
-1.989214
 30
0.0
 10
-198.610149
 20
-3.930028
 30
0.0
 10
-193.816122
 20
-4.838473
 30
0.0
 10
-189.267420
 20
-4.322260
 30
0.0
 10
-185.855508
 20
-1.989214
 30
0.0
 10
-177.781797
 20
21.549477
 30
0.0
 10
-181.554859
 20
48.924996
 30
0.0
 10
-194.275823
 20
74.726336
 30
0.0
 10
-213.045819
 20
93.542478
 30
0.0
  0
LWPOLYLINE
  5
104
100
AcDbEntity
  8
Layer_1
 62
7
100
AcDbPolyline
 90
17
 70
0
 10
-235.823599
 20
72.966912
 30
0.0
 10
-233.779602
 20
74.207388
 30
0.0
 10
-231.206737
 20
74.528334
 30
0.0
 10
-228.553202
 20
74.068569
 30
0.0
 10
-226.267202
 20
72.966912
 30
0.0
 10
-222.038316
 20
68.833039
 30
0.0
 10
-218.842505
 20
63.375141
 30
0.0
 10
-217.522518
 20
57.569240
 30
0.0
 10
-218.921096
 20
52.391356
 30
0.0
 10
-221.999931
 20
49.989214
 30
0.0
 10
-226.268452
 20
49.133411
 30
0.0
 10
-230.721208
 20
49.721721
 30
0.0
 10
-234.352759
 20
51.651915
 30
0.0
 10
-237.510845
 20
56.247181
 30
0.0
 10
-238.905965
 20
62.132084
 30
0.0
 10
-238.392194
 20
68.105651
 30
0.0
 10
-235.823599
 20
72.966912
 30
0.0
  0
LWPOLYLINE
  5
105
100
AcDbEntity
  8
Layer_1
 62
7
100
AcDbPolyline
 90
33
 70
0
 10
-125.741176
 20
93.349537
 30
0.0
 10
-139.480140
 20
92.711717
 30
0.0
 10
-149.702052
 20
89.804950
 30
0.0
 10
-157.209868
 20
84.383887
 30
0.0
 10
-162.806561
 20
76.203182
 30
0.0
 10
-169.032214
 20
58.026739
 30
0.0
 10
-171.459517
 20
36.578135
 30
0.0
 10
-168.868674
 20
15.995787
 30
0.0
 10
-160.039888
 20
0.418114
 30
0.0
 10
-153.580121
 20
-3.125525
 30
0.0
 10
-145.642652
 20
-3.992117
 30
0.0
 10
-137.713108
 20
-2.376818
 30
0.0
 10
-131.277123
 20
1.525271
 30
0.0
 10
-130.038057
 20
9.831297
 30
0.0
 10
-134.550980
 20
20.578994
 30
0.0
 10
-138.533519
 20
30.374512
 30
0.0
 10
-135.703299
 20
35.824000
 30
0.0
 10
-126.836083
 20
32.542795
 30
0.0
 10
-119.913640
 20
21.389928
 30
0.0
 10
-113.140877
 20
8.464975
 30
0.0
 10
-104.722699
 20
-0.132474
 30
0.0
 10
-98.692871
 20
-1.903192
 30
0.0
 10
-91.983557
 20
-2.238952
 30
0.0
 10
-85.974753
 20
-0.692628
 30
0.0
 10
-82.046451
 20
3.183045
 30
0.0
 10
-83.595326
 20
15.571203
 30
0.0
 10
-94.486566
 20
27.388113
 30
0.0
 10
-105.933782
 20
39.410802
 30
0.0
 10
-109.150587
 20
52.416302
 30
0.0
 10
-104.307050
 20
66.111960
 30
0.0
 10
-101.297503
 20
79.120646
 30
0.0
 10
-106.362144
 20
89.010472
 30
0.0
 10
-125.741176
 20
93.349537
 30
0.0
  0
LWPOLYLINE
  5
106
100
AcDbEntity
  8
Layer_1
 62
7
100
AcDbPolyline
 90
17
 70
0
 10
-133.485458
 20
73.988833
 30
0.0
 10
-130.686886
 20
73.402251
 30
0.0
 10
-128.402294
 20
71.802449
 30
0.0
 10
-126.862372
 20
69.429341
 30
0.0
 10
-126.297800
 20
66.522836
 30
0.0
 10
-126.862372
 20
63.616339
 30
0.0
 10
-128.402294
 20
61.243237
 30
0.0
 10
-130.686886
 20
59.643443
 30
0.0
 10
-133.485458
 20
59.056864
 30
0.0
 10
-136.284973
 20
59.643443
 30
0.0
 10
-138.571645
 20
61.243237
 30
0.0
 10
-140.113650
 20
63.616339
 30
0.0
 10
-140.679170
 20
66.522836
 30
0.0
 10
-140.113650
 20
69.429341
 30
0.0
 10
-138.571645
 20
71.802449
 30
0.0
 10
-136.284973
 20
73.402251
 30
0.0
 10
-133.485458
 20
73.988833
 30
0.0
  0
LWPOLYLINE
  5
107
100
AcDbEntity
  8
Layer_1
 62
7
100
AcDbPolyline
 90
25
 70
0
 10
-39.746688
 20
79.097049
 30
0.0
 10
-49.874960
 20
62.056195
 30
0.0
 10
-54.925397
 20
41.555956
 30
0.0
 10
-53.719583
 20
21.162833
 30
0.0
 10
-45.079096
 20
4.443336
 30
0.0
 10
-29.785671
 20
-5.157920
 30
0.0
 10
-10.174943
 20
-8.801748
 30
0.0
 10
8.869671
 20
-5.823062
 30
0.0
 10
22.464754
 20
4.443336
 30
0.0
 10
24.103851
 20
11.708470
 30
0.0
 10
21.551098
 20
19.692158
 30
0.0
 10
16.344600
 20
27.161314
 30
0.0
 10
10.022461
 20
32.882833
 30
0.0
 10
2.725591
 20
34.511264
 30
0.0
 10
-5.745227
 20
33.047241
 30
0.0
 10
-13.886446
 20
31.945384
 30
0.0
 10
-20.194523
 20
34.660305
 30
0.0
 10
-22.166802
 20
46.238020
 30
0.0
 10
-16.922790
 20
60.132187
 30
0.0
 10
-11.981539
 20
73.732702
 30
0.0
 10
-14.862100
 20
84.429457
 30
0.0
 10
-20.626905
 20
86.891849
 30
0.0
 10
-27.581235
 20
86.293349
 30
0.0
 10
-34.397146
 20
83.429804
 30
0.0
 10
-39.746688
 20
79.097049
 30
0.0
  0
LWPOLYLINE
  5
108
100
AcDbEntity
  8
Layer_1
 62
7
100
AcDbPolyline
 90
33
 70
0
 10
93.810898
 20
89.432549
 30
0.0
 10
86.366841
 20
92.129800
 30
0.0
 10
77.934145
 20
92.004161
 30
0.0
 10
69.707859
 20
89.487286
 30
0.0
 10
62.883026
 20
85.010832
 30
0.0
 10
48.006849
 20
66.092492
 30
0.0
 10
37.923653
 20
42.449796
 30
0.0
 10
35.533982
 20
18.365627
 30
0.0
 10
43.738377
 20
-1.877143
 30
0.0
 10
48.758704
 20
-4.910327
 30
0.0
 10
55.250021
 20
-5.359201
 30
0.0
 10
61.877118
 20
-3.698549
 30
0.0
 10
67.304768
 20
-0.403210
 30
0.0
 10
70.420086
 20
6.273322
 30
0.0
 10
70.221952
 20
14.727204
 30
0.0
 10
69.853886
 20
23.347834
 30
0.0
 10
72.459413
 20
30.524629
 30
0.0
 10
75.373120
 20
33.058499
 30
0.0
 10
78.990218
 20
34.880585
 30
0.0
 10
82.839413
 20
35.628104
 30
0.0
 10
86.449411
 20
34.938288
 30
0.0
 10
93.189030
 20
27.021701
 30
0.0
 10
95.700175
 20
15.068306
 30
0.0
 10
98.003631
 20
2.740633
 30
0.0
 10
104.120174
 20
-6.298832
 30
0.0
 10
108.276740
 20
-8.243710
 30
0.0
 10
113.080789
 20
-9.154046
 30
0.0
 10
117.638994
 20
-8.636789
 30
0.0
 10
121.058034
 20
-6.298832
 30
0.0
 10
129.148611
 20
17.289067
 30
0.0
 10
125.367672
 20
44.721818
 30
0.0
 10
112.620126
 20
70.577088
 30
0.0
 10
93.810898
 20
89.432549
 30
0.0
  0
LWPOLYLINE
  5
109
100
AcDbEntity
  8
Layer_1
 62
7
100
AcDbPolyline
 90
17
 70
0
 10
70.985487
 20
68.813969
 30
0.0
 10
73.033757
 20
70.057042
 30
0.0
 10
75.612004
 20
70.378660
 30
0.0
 10
78.271085
 20
69.917932
 30
0.0
 10
80.561860
 20
68.813969
 30
0.0
 10
84.799588
 20
64.671449
 30
0.0
 10
88.002085
 20
59.202144
 30
0.0
 10
89.324838
 20
53.384115
 30
0.0
 10
87.923336
 20
48.195412
 30
0.0
 10
84.838060
 20
45.788245
 30
0.0
 10
80.560613
 20
44.930654
 30
0.0
 10
76.098550
 20
45.520191
 30
0.0
 10
72.459413
 20
47.454415
 30
0.0
 10
69.294722
 20
52.059291
 30
0.0
 10
67.896684
 20
57.956494
 30
0.0
 10
68.411527
 20
63.942546
 30
0.0
 10
70.985487
 20
68.813969
 30
0.0
  0
LWPOLYLINE
  5
10a
100
AcDbEntity
  8
Layer_1
 62
7
100
AcDbPolyline
 90
41
 70
0
 10
146.097188
 20
1.831934
 30
0.0
 10
135.682214
 20
20.345887
 30
0.0
 10
132.381887
 20
43.060424
 30
0.0
 10
136.215792
 20
65.627757
 30
0.0
 10
147.203518
 20
83.700102
 30
0.0
 10
153.991522
 20
87.641897
 30
0.0
 10
162.373386
 20
88.772640
 30
0.0
 10
170.914593
 20
87.367117
 30
0.0
 10
178.180636
 20
83.700102
 30
0.0
 10
183.994117
 20
70.633953
 30
0.0
 10
183.958583
 20
52.790097
 30
0.0
 10
184.629637
 20
37.125324
 30
0.0
 10
192.562884
 20
30.596426
 30
0.0
 10
200.377462
 20
38.050268
 30
0.0
 10
199.990741
 20
54.799669
 30
0.0
 10
198.932487
 20
73.553112
 30
0.0
 10
204.732467
 20
87.019083
 30
0.0
 10
209.268681
 20
88.903473
 30
0.0
 10
214.544913
 20
89.106512
 30
0.0
 10
219.616813
 20
87.712676
 30
0.0
 10
223.540038
 20
84.806433
 30
0.0
 10
233.809935
 20
64.125764
 30
0.0
 10
236.257479
 20
39.300958
 30
0.0
 10
230.963397
 20
15.102353
 30
0.0
 10
218.008406
 20
-3.699706
 30
0.0
 10
208.739489
 20
-8.177670
 30
0.0
 10
197.641235
 20
-8.642800
 30
0.0
 10
186.493043
 20
-5.806664
 30
0.0
 10
177.074305
 20
-0.380716
 30
0.0
 10
172.031065
 20
11.272804
 30
0.0
 10
171.680852
 20
27.013756
 30
0.0
 10
170.708393
 20
40.397327
 30
0.0
 10
163.798402
 20
44.978666
 30
0.0
 10
159.473000
 20
38.490837
 30
0.0
 10
163.370726
 20
25.835081
 30
0.0
 10
168.035447
 20
11.687868
 30
0.0
 10
166.011042
 20
0.725595
 30
0.0
 10
161.548662
 20
-1.762730
 30
0.0
 10
155.987369
 20
-2.301831
 30
0.0
 10
150.459446
 20
-1.050627
 30
0.0
 10
146.097188
 20
1.831934
 30
0.0
  0
LWPOLYLINE
  5
10b
100
AcDbEntity
  8
Layer_1
 62
7
100
AcDbPolyline
 90
49
 70
0
 10
401.153574
 20
87.875450
 30
0.0
 10
389.182469
 20
96.906126
 30
0.0
 10
373.376416
 20
101.128716
 30
0.0
 10
357.136982
 20
100.110664
 30
0.0
 10
343.865793
 20
93.419418
 30
0.0
 10
333.218282
 20
76.581018
 30
0.0
 10
329.724710
 20
55.039956
 30
0.0
 10
333.301679
 20
33.438692
 30
0.0
 10
343.865793
 20
16.419685
 30
0.0
 10
357.809292
 20
8.875693
 30
0.0
 10
375.180437
 20
6.752676
 30
0.0
 10
391.678216
 20
10.387162
 30
0.0
 10
403.001565
 20
20.115678
 30
0.0
 10
403.741749
 20
24.852603
 30
0.0
 10
401.726682
 20
29.861551
 30
0.0
 10
398.039054
 20
34.463548
 30
0.0
 10
393.761637
 20
37.979628
 30
0.0
 10
386.553908
 20
39.488210
 30
0.0
 10
378.280535
 20
38.110393
 30
0.0
 10
370.355735
 20
37.129185
 30
0.0
 10
364.193695
 20
39.827605
 30
0.0
 10
362.748971
 20
42.828756
 30
0.0
 10
362.553222
 20
46.438107
 30
0.0
 10
363.485684
 20
49.976197
 30
0.0
 10
365.425708
 20
52.763568
 30
0.0
 10
368.570651
 20
53.538516
 30
0.0
 10
372.434894
 20
52.550809
 30
0.0
 10
376.182523
 20
51.669483
 30
0.0
 10
378.977652
 20
52.763568
 30
0.0
 10
380.052270
 20
55.928146
 30
0.0
 10
379.509838
 20
59.595265
 30
0.0
 10
377.777333
 20
63.080526
 30
0.0
 10
375.281670
 20
65.699520
 30
0.0
 10
372.365101
 20
66.214437
 30
0.0
 10
368.985094
 20
65.226293
 30
0.0
 10
365.673386
 20
64.320763
 30
0.0
 10
362.961710
 20
65.083516
 30
0.0
 10
361.696169
 20
67.135486
 30
0.0
 10
361.260616
 20
69.733339
 30
0.0
 10
361.675624
 20
72.316271
 30
0.0
 10
362.961710
 20
74.323486
 30
0.0
 10
370.995025
 20
75.976958
 30
0.0
 10
380.629188
 20
72.405007
 30
0.0
 10
390.361593
 20
68.714300
 30
0.0
 10
398.689576
 20
70.011503
 30
0.0
 10
401.606879
 20
73.687868
 30
0.0
 10
403.104068
 20
78.551082
 30
0.0
 10
403.010031
 20
83.610494
 30
0.0
 10
401.153574
 20
87.875450
 30
0.0
  0
LWPOLYLINE
  5
10c
100
AcDbEntity
  8
Layer_1
 62
7
100
AcDbPolyline
 90
33
 70
0
 10
457.467914
 20
109.388432
 30
0.0
 10
443.728941
 20
108.750612
 30
0.0
 10
433.507049
 20
105.843845
 30
0.0
 10
425.999233
 20
100.422782
 30
0.0
 10
420.402540
 20
92.242077
 30
0.0
 10
414.176887
 20
74.065631
 30
0.0
 10
411.749579
 20
52.617024
 30
0.0
 10
414.340407
 20
32.034676
 30
0.0
 10
423.169193
 20
16.457000
 30
0.0
 10
429.628949
 20
12.913361
 30
0.0
 10
437.566421
 20
12.046770
 30
0.0
 10
445.495990
 20
13.662069
 30
0.0
 10
451.931955
 20
17.564169
 30
0.0
 10
453.171024
 20
25.870198
 30
0.0
 10
448.658093
 20
36.617894
 30
0.0
 10
444.675570
 20
46.413410
 30
0.0
 10
447.505780
 20
51.862898
 30
0.0
 10
456.373004
 20
48.581695
 30
0.0
 10
463.295464
 20
37.428826
 30
0.0
 10
470.068204
 20
24.503875
 30
0.0
 10
478.486385
 20
15.906415
 30
0.0
 10
484.516204
 20
14.135694
 30
0.0
 10
491.225530
 20
13.799934
 30
0.0
 10
497.234323
 20
15.346275
 30
0.0
 10
501.162630
 20
19.221937
 30
0.0
 10
499.613767
 20
31.610098
 30
0.0
 10
488.722501
 20
43.427011
 30
0.0
 10
477.275285
 20
55.449697
 30
0.0
 10
474.058488
 20
68.455194
 30
0.0
 10
478.902014
 20
82.150857
 30
0.0
 10
481.911575
 20
95.159543
 30
0.0
 10
476.846956
 20
105.049366
 30
0.0
 10
457.467914
 20
109.388432
 30
0.0
  0
LWPOLYLINE
  5
10d
100
AcDbEntity
  8
Layer_1
 62
7
100
AcDbPolyline
 90
17
 70
0
 10
449.723623
 20
90.027725
 30
0.0
 10
452.522195
 20
89.441143
 30
0.0
 10
454.806784
 20
87.841341
 30
0.0
 10
456.346729
 20
85.468233
 30
0.0
 10
456.911287
 20
82.561730
 30
0.0
 10
456.346729
 20
79.655231
 30
0.0
 10
454.806784
 20
77.282132
 30
0.0
 10
452.522195
 20
75.682338
 30
0.0
 10
449.723623
 20
75.095759
 30
0.0
 10
446.924120
 20
75.682338
 30
0.0
 10
444.637442
 20
77.282132
 30
0.0
 10
443.095436
 20
79.655231
 30
0.0
 10
442.529920
 20
82.561730
 30
0.0
 10
443.095436
 20
85.468233
 30
0.0
 10
444.637442
 20
87.841341
 30
0.0
 10
446.924120
 20
89.441143
 30
0.0
 10
449.723623
 20
90.027725
 30
0.0
  0
LWPOLYLINE
  5
10e
100
AcDbEntity
  8
Layer_1
 62
7
100
AcDbPolyline
 90
21
 70
0
 10
296.752151
 20
89.857505
 30
0.0
 10
287.582610
 20
93.143325
 30
0.0
 10
277.316585
 20
94.406061
 30
0.0
 10
267.436860
 20
93.147494
 30
0.0
 10
259.426270
 20
88.869389
 30
0.0
 10
246.876722
 20
70.289430
 30
0.0
 10
242.230436
 20
47.212615
 30
0.0
 10
245.632690
 20
23.983367
 30
0.0
 10
257.228761
 20
4.946115
 30
0.0
 10
267.660504
 20
-1.221880
 30
0.0
 10
280.813970
 20
-3.530599
 30
0.0
 10
294.525898
 20
-2.341484
 30
0.0
 10
306.633033
 20
1.984136
 30
0.0
 10
315.745566
 20
9.463505
 30
0.0
 10
322.072198
 20
19.570388
 30
0.0
 10
325.620324
 20
31.003998
 30
0.0
 10
326.397366
 20
42.463597
 30
0.0
 10
323.813452
 20
56.252171
 30
0.0
 10
317.781912
 20
69.604699
 30
0.0
 10
308.646802
 20
81.235156
 30
0.0
 10
296.752151
 20
89.857505
 30
0.0
  0
LWPOLYLINE
  5
10f
100
AcDbEntity
  8
Layer_1
 62
7
100
AcDbPolyline
 90
13
 70
0
 10
280.284061
 20
57.273451
 30
0.0
 10
287.454368
 20
58.270630
 30
0.0
 10
295.396920
 20
55.627898
 30
0.0
 10
301.821568
 20
50.599539
 30
0.0
 10
304.438163
 20
44.439833
 30
0.0
 10
301.897570
 20
38.688169
 30
0.0
 10
295.790056
 20
34.084631
 30
0.0
 10
288.242756
 20
31.696721
 30
0.0
 10
281.382823
 20
32.591944
 30
0.0
 10
276.727017
 20
37.537578
 30
0.0
 10
274.882664
 20
44.845014
 30
0.0
 10
276.013700
 20
52.196290
 30
0.0
 10
280.284061
 20
57.273451
 30
0.0
  0
LWPOLYLINE
  5
110
100
AcDbEntity
  8
Layer_1
 62
7
100
AcDbPolyline
 90
17
 70
0
 10
-540.179768
 20
9.939812
 30
0.0
 10
-544.839398
 20
6.642581
 30
0.0
 10
-546.396362
 20
-1.798121
 30
0.0
 10
-544.845014
 20
-10.637688
 30
0.0
 10
-540.179768
 20
-15.131484
 30
0.0
 10
-7.813676
 20
-57.304346
 30
0.0
 10
269.286792
 20
-51.566232
 30
0.0
 10
402.552210
 20
-47.981163
 30
0.0
 10
503.413099
 20
-96.613217
 30
0.0
 10
517.629479
 20
-88.053614
 30
0.0
 10
524.785590
 20
-52.853194
 30
0.0
 10
522.430671
 20
-14.853213
 30
0.0
 10
508.113961
 20
2.105040
 30
0.0
 10
266.936940
 20
-10.608478
 30
0.0
 10
-13.448165
 20
-16.206186
 30
0.0
 10
-295.125648
 20
-10.689560
 30
0.0
 10
-540.179768
 20
9.939812
 30
0.0
  0
ENDSEC
  0
SECTION
  2
OBJECTS
  0
DICTIONARY
  5
C
330
0
100
AcDbDictionary
  3
ACAD_GROUP
350
D
  3
ACAD_MLINESTYLE
350
17
  0
DICTIONARY
  5
D
330
C
100
AcDbDictionary
  0
DICTIONARY
  5
1A
330
C
100
AcDbDictionary
  0
DICTIONARY
  5
17
330
C
100
AcDbDictionary
  3
STANDARD
350
18
  0
DICTIONARY
  5
19
330
C
100
AcDbDictionary
  0
ENDSEC
  0
EOF
