<?xml version="1.0" encoding="UTF-8" standalone="no"?>
<!-- Created with Inkscape (http://www.inkscape.org/) -->

<svg
   xmlns:dc="http://purl.org/dc/elements/1.1/"
   xmlns:cc="http://creativecommons.org/ns#"
   xmlns:rdf="http://www.w3.org/1999/02/22-rdf-syntax-ns#"
   xmlns:svg="http://www.w3.org/2000/svg"
   xmlns="http://www.w3.org/2000/svg"
   xmlns:sodipodi="http://sodipodi.sourceforge.net/DTD/sodipodi-0.dtd"
   xmlns:inkscape="http://www.inkscape.org/namespaces/inkscape"
   width="744.09448819"
   height="1052.3622047"
   id="svg3857"
   version="1.1"
   inkscape:version="0.48.4 r9939"
   sodipodi:docname="lunar_lander_straight.svg">
  <defs
     id="defs3859" />
  <sodipodi:namedview
     id="base"
     pagecolor="#ffffff"
     bordercolor="#666666"
     borderopacity="1.0"
     inkscape:pageopacity="0.0"
     inkscape:pageshadow="2"
     inkscape:zoom="0.15508636"
     inkscape:cx="-650.96812"
     inkscape:cy="506.15308"
     inkscape:document-units="px"
     inkscape:current-layer="layer1"
     showgrid="false"
     inkscape:window-width="1366"
     inkscape:window-height="721"
     inkscape:window-x="-4"
     inkscape:window-y="24"
     inkscape:window-maximized="1" />
  <metadata
     id="metadata3862">
    <rdf:RDF>
      <cc:Work
         rdf:about="">
        <dc:format>image/svg+xml</dc:format>
        <dc:type
           rdf:resource="http://purl.org/dc/dcmitype/StillImage" />
        <dc:title></dc:title>
      </cc:Work>
    </rdf:RDF>
  </metadata>
  <g
     inkscape:label="Layer 1"
     inkscape:groupmode="layer"
     id="layer1">
    <path
       style="fill:#000000;stroke:#000000;stroke-width:0.43053579px;stroke-linecap:butt;stroke-linejoin:miter;stroke-opacity:1"
       d="m -1897.3662,715.87861 -31.6373,53.2298 -15.7758,64.03573 3.7666,63.70114 26.9899,52.22604 47.7714,29.99096 61.2572,11.38212 59.4889,-9.30443 42.4664,-32.06865 5.12,-22.69381 -7.974,-24.93834 -16.2633,-23.33109 -19.7482,-17.87207 -22.7929,-5.08664 -26.4599,4.57309 -25.4304,3.44181 -19.7043,-8.48049 -6.1607,-36.16479 16.3805,-43.40062 15.4347,-42.48336 -8.9979,-33.41301 -18.0073,-7.69167 -21.7229,1.8695 -21.2906,8.94474 z"
       id="path3024"
       inkscape:connector-curvature="0"
       sodipodi:nodetypes="ccccccccccccccccccccccccc" />
    <path
       style="fill:#000000;stroke:#000000;stroke-width:0.43053579px;stroke-linecap:butt;stroke-linejoin:miter;stroke-opacity:1"
       d="m -1641.9647,721.43089 -36.5251,60.31609 -12.177,75.71706 12.1741,75.71505 36.528,60.31001 48.4159,27.5213 59.9591,7.6089 59.9057,-11.3442 48.2554,-29.33824 38.8394,-61.66735 16.1924,-77.15237 -8.5474,-77.14512 -35.38,-61.64556 -22.3017,-12.2993 -27.6669,-2.47972 -27.6675,6.29785 -22.3036,14.03341 -12.0082,34.68736 6.8298,43.43402 6.643,43.23877 -12.5691,34.10163 -7.52,4.28693 -9.2142,1.46957 -9.1754,-1.40868 -7.4036,-4.34782 -10.3514,-32.76029 8.9031,-41.00731 8.9856,-41.0902 -10.1039,-33.00899 -17.8988,-11.02197 -22.3413,-4.21023 -22.4003,2.89516 z"
       id="path3028"
       inkscape:connector-curvature="0"
       sodipodi:nodetypes="ccccccccccccccccccccccccccccccccc" />
    <path
       sodipodi:nodetypes="ccccccccccccccccccccccccccccccccccccccccc"
       inkscape:connector-curvature="0"
       id="path3032"
       d="m -1292.3523,1019.8322 -36.9035,-65.60061 -11.694,-80.48458 13.5847,-79.96299 38.9329,-64.03587 24.052,-13.96697 29.6995,-4.00658 30.2641,4.9802 25.7458,12.99335 20.599,46.29738 -0.126,63.22626 2.3778,55.5051 28.1099,23.13389 27.6894,-26.41125 -1.3702,-59.34827 -3.7497,-66.44921 20.5511,-47.71407 16.0732,-6.67696 18.6953,-0.71943 17.9713,4.93878 13.9012,10.29771 36.38943,73.2779 8.67239,87.96191 -18.7586,85.74313 -45.90352,66.62158 -32.8426,15.8667 -39.3245,1.6481 -39.5015,-10.0493 -33.3735,-19.2258 -17.8698,-41.29193 -1.2409,-55.77507 -3.4457,-47.42211 -24.4842,-16.2331 -15.3262,22.98837 13.8108,44.84323 16.5286,50.12797 -7.1731,38.84264 -15.8116,8.817 -19.7053,1.9102 -19.5872,-4.4334 z"
       style="fill:#000000;stroke:#000000;stroke-width:0.68600965px;stroke-linecap:butt;stroke-linejoin:miter;stroke-opacity:1" />
    <path
       sodipodi:nodetypes="cccccccccccccccccccccccccccccccccccccccccccccccccc"
       inkscape:connector-curvature="0"
       style="fill:#000000;stroke:#000000;stroke-width:0.91131908px;stroke-linecap:butt;stroke-linejoin:miter;stroke-opacity:1"
       d="m -754.88676,720.91248 -26.32154,-9.53727 -29.81728,0.44426 -29.08744,8.89946 -24.13202,15.82837 -52.60089,66.89367 -35.65331,83.59858 -8.4497,85.15958 29.00998,71.57667 17.75145,10.7252 22.95277,1.5871 23.43286,-5.8719 19.1917,-11.6521 11.01548,-23.6076 -0.70058,-29.89224 -1.30144,-30.48183 9.21293,-25.37655 10.30261,-8.95955 12.78976,-6.44274 13.61044,-2.64317 12.76467,2.43914 23.83071,27.99237 8.87919,42.26621 8.14482,43.58966 21.62757,31.9628 14.69727,6.8769 16.98671,3.2189 16.11745,-1.8291 12.08945,-8.2667 28.60764,-83.40481 -13.36912,-96.99987 -45.07428,-91.42207 z m -80.70867,72.90555 7.24251,-4.39539 9.11645,-1.13721 9.40229,1.62909 8.1,3.90351 14.98424,14.64758 11.32374,19.33901 4.67712,20.57209 -4.95559,18.34683 -10.90926,8.51153 -15.12468,3.03237 -15.77748,-2.08456 -12.8677,-6.83927 -11.19007,-16.28244 -4.94334,-20.85202 1.82045,-21.16618 z"
       id="path3034" />
    <path
       sodipodi:nodetypes="cccccccccccccccccccccccccccccccccccccccccccccccccc"
       inkscape:connector-curvature="0"
       id="path3036"
       d="m -445.5396,721.59613 -48.68137,2.25999 -36.21937,10.29957 -26.6025,19.20849 -19.8308,28.98675 -22.0594,64.40472 -8.60068,75.99899 9.18015,72.92958 31.2831,55.19648 22.88894,12.5562 28.12489,3.0706 28.09681,-5.7235 22.80467,-13.8263 4.39039,-29.4308 -15.99067,-38.08239 -14.11136,-34.70853 10.02834,-19.30921 31.41927,11.62632 24.52834,39.51803 23.99798,45.79708 29.82819,30.4634 21.36553,6.2742 23.77316,1.1897 21.29104,-5.4791 13.91918,-13.7327 -5.48814,-43.89505 -38.59101,-41.87094 -40.561,-42.60008 -11.39813,-46.08248 17.16214,-48.52792 10.66375,-46.09377 -17.94558,-35.04269 z m -27.44037,68.60092 9.9162,2.07844 8.09501,5.66859 5.45642,8.40865 2.00045,10.29864 -2.00045,10.29861 -5.45642,8.40863 -8.09501,5.66856 -9.9162,2.07843 -9.91954,-2.07843 -8.10238,-5.66856 -5.4638,-8.40863 -2.00381,-10.29861 2.00381,-10.29864 5.4638,-8.40865 8.10238,-5.66859 z"
       style="fill:#000000;stroke:#000000;stroke-width:0.68600965px;stroke-linecap:butt;stroke-linejoin:miter;stroke-opacity:1" />
    <path
       sodipodi:nodetypes="ccccccccccccccccccccccccc"
       inkscape:connector-curvature="0"
       id="path3039"
       d="m -140.83472,772.09707 -35.88758,60.38098 -17.89525,72.63864 4.27257,72.2591 30.6159,59.24231 54.1893,34.0202 69.486834,12.9112 67.480914,-10.5544 48.171554,-36.377 5.807823,-25.7426 -9.045187,-28.28866 -18.448221,-26.46551 -22.401281,-20.2731 -25.8550511,-5.77003 -30.0147069,5.18748 -28.846841,3.90422 -22.351453,-9.6198 -6.988392,-41.0234 18.581146,-49.2313 17.508371,-48.1908 -10.206715,-37.90189 -20.426474,-8.72501 -24.641327,2.12067 -24.150863,10.14642 z"
       style="fill:#000000;stroke:#000000;stroke-width:0.48837629px;stroke-linecap:butt;stroke-linejoin:miter;stroke-opacity:1" />
    <path
       id="path3041"
       d="m 332.40082,735.47522 -26.37658,-9.55719 -29.87963,0.44518 -29.14826,8.91806 -24.18248,15.86145 -52.71086,67.03349 -35.72786,83.77333 -8.46734,85.33761 29.07069,71.72635 17.78856,10.7475 23.00073,1.5905 23.48184,-5.8842 19.23183,-11.6764 11.03853,-23.657 -0.70205,-29.9547 -1.30417,-30.54554 9.23218,-25.42959 10.32416,-8.97828 12.81649,-6.45621 13.63888,-2.64869 12.79133,2.44423 23.88054,28.0509 8.89776,42.35455 8.16185,43.68073 21.67279,32.0296 14.72799,6.8913 17.02222,3.2256 16.15112,-1.8328 12.11471,-8.2841 28.6674,-83.57917 -13.39703,-97.20266 -45.16847,-91.61316 z m -80.87744,73.05796 7.25765,-4.40459 9.13552,-1.13959 9.42194,1.6325 8.11692,3.91168 15.01557,14.67822 11.34743,19.37943 4.68692,20.61506 -4.96595,18.38517 -10.93208,8.52933 -15.15631,3.03871 -15.81046,-2.08891 -12.89458,-6.85355 -11.21347,-16.31649 -4.95368,-20.8956 1.82425,-21.21042 z"
       style="fill:#000000;stroke:#000000;stroke-width:0.91322422px;stroke-linecap:butt;stroke-linejoin:miter;stroke-opacity:1"
       inkscape:connector-curvature="0"
       sodipodi:nodetypes="cccccccccccccccccccccccccccccccccccccccccccccccccc" />
    <path
       style="fill:#000000;stroke:#000000;stroke-width:0.68600965px;stroke-linecap:butt;stroke-linejoin:miter;stroke-opacity:1"
       d="m 517.6672,1045.8711 -36.90345,-65.60062 -11.69407,-80.48458 13.5847,-79.96299 38.93289,-64.03587 24.05198,-13.96699 29.69952,-4.00657 30.26412,4.9802 25.74582,12.99336 20.59895,46.29738 -0.12591,63.22626 2.37775,55.5051 28.10993,23.13389 27.68945,-26.41125 -1.37027,-59.34827 -3.74972,-66.44921 20.55111,-47.71407 16.0732,-6.67697 18.69531,-0.71943 17.9713,4.93879 13.90119,10.29771 36.3894,73.27796 8.6724,87.96191 -18.75856,85.74309 -45.90351,66.62147 -32.84262,15.8668 -39.32452,1.6481 -39.50147,-10.0493 -33.37348,-19.2258 -17.86975,-41.292 -1.24091,-55.77503 -3.44572,-47.4221 -24.48422,-16.23309 -15.32623,22.98837 13.81084,44.84323 16.52854,50.12792 -7.17309,38.8427 -15.81158,8.8169 -19.70537,1.9102 -19.58713,-4.4334 z"
       id="path3043"
       inkscape:connector-curvature="0"
       sodipodi:nodetypes="ccccccccccccccccccccccccccccccccccccccccc" />
    <path
       sodipodi:nodetypes="ccccccccccccccccccccccccccccccccccccccccccccccccc"
       style="fill:#000000;stroke:#000000;stroke-width:0.76393425px;stroke-linecap:butt;stroke-linejoin:miter;stroke-opacity:1"
       d="m 1421.4103,740.9925 -42.4173,-31.99846 -56.0057,-14.96193 -57.5413,3.60727 -47.0239,23.70914 -37.7274,59.66362 -12.3788,76.3266 12.6743,76.53991 37.4319,60.30357 49.4061,26.73068 61.5513,7.5225 58.4567,-12.8781 40.1221,-34.47112 2.6227,-16.78438 -7.14,-17.74824 -13.0664,-16.30629 -15.1562,-12.45855 -25.5392,-5.34537 -29.3151,4.88203 -28.08,3.47672 -21.834,-9.56133 -5.1191,-10.634 -0.6936,-12.78904 3.304,-12.53654 6.8741,-9.87651 11.1435,-2.74588 13.6922,3.49975 13.279,3.12281 9.904,-3.87668 3.8077,-11.21307 -1.922,-12.99373 -6.1388,-12.34935 -8.8429,-9.2799 -10.3343,-1.82451 -11.9764,3.5013 -11.7344,3.20857 -9.6083,-2.70267 -4.4842,-7.27076 -1.5433,-9.20499 1.4705,-9.15212 4.557,-7.11218 28.4645,-5.85876 34.1368,12.65652 34.4849,13.07731 29.5086,-4.59639 10.3369,-13.02649 5.305,-17.23186 -0.3332,-17.92705 z"
       id="path3046"
       inkscape:connector-curvature="0" />
    <path
       style="fill:#000000;stroke:#000000;stroke-width:0.68600965px;stroke-linecap:butt;stroke-linejoin:miter;stroke-opacity:1"
       d="m 1620.9493,664.7654 -48.6814,2.25999 -36.2193,10.29957 -26.6025,19.20849 -19.8308,28.98675 -22.0594,64.40473 -8.6007,75.999 9.1801,72.92958 31.2831,55.19649 22.8889,12.5562 28.1249,3.0706 28.0969,-5.7235 22.8046,-13.82634 4.3904,-29.43081 -15.9907,-38.08239 -14.1113,-34.70852 10.0283,-19.30921 31.4193,11.62631 24.5284,39.51804 23.9979,45.79707 29.8282,30.46344 21.3655,6.27421 23.7732,1.1897 21.291,-5.47916 13.9192,-13.73266 -5.4881,-43.89506 -38.5911,-41.87095 -40.561,-42.60007 -11.3981,-46.08247 17.1621,-48.52794 10.6638,-46.09377 -17.9455,-35.04268 z m -27.4404,68.60093 9.9162,2.07844 8.095,5.66859 5.4565,8.40865 2.0004,10.29863 -2.0004,10.29862 -5.4565,8.40862 -8.095,5.66856 -9.9162,2.07843 -9.9195,-2.07843 -8.1024,-5.66856 -5.4638,-8.40862 -2.0038,-10.29862 2.0038,-10.29863 5.4638,-8.40865 8.1024,-5.66859 z"
       id="path3048"
       inkscape:connector-curvature="0"
       sodipodi:nodetypes="cccccccccccccccccccccccccccccccccccccccccccccccccc" />
    <path
       style="fill:#000000;stroke:#000000;stroke-width:0.28606519px;stroke-linecap:butt;stroke-linejoin:miter;stroke-opacity:1"
       d="m 1051.484,733.96947 -32.4905,-11.64267 -36.37568,-4.47426 -35.0069,4.45949 -28.38398,15.15864 -44.4669,65.8345 -16.46322,81.76824 12.05523,82.30836 41.08844,67.45483 36.96287,21.8551 46.60677,8.1805 48.58557,-4.2134 42.8993,-15.327 32.2885,-26.5017 22.4172,-35.81179 12.5721,-40.51279 2.7533,-40.60488 -9.1556,-48.85715 -21.3716,-47.31211 -32.3685,-41.21028 z m -58.3515,115.45531 25.4066,-3.53331 28.1429,9.36401 22.7645,17.81702 9.2714,21.82573 -9.0021,20.37991 -21.6408,16.31175 -26.7424,8.4611 -24.30685,-3.17205 -16.49695,-17.5239 -6.53511,-25.89249 4.00761,-26.04783 z"
       id="path3052"
       inkscape:connector-curvature="0"
       sodipodi:nodetypes="cccccccccccccccccccccccccccccccccc" />
    <path
       style="fill:#000000;stroke:#000000;stroke-width:0.43053579px;stroke-linecap:butt;stroke-linejoin:miter;stroke-opacity:1"
       d="m -1914.0228,1017.1424 -16.5105,11.6831 -5.5168,29.908 5.4969,31.3213 16.5304,15.9229 1886.336545,149.4314 981.852055,-20.3319 472.2003,-12.703 357.3811,172.3183 50.373,-30.3293 25.3563,-124.7259 -8.3442,-134.6456 -50.7285,-60.0883 -854.56425,45.0479 -993.490528,19.8344 -998.069822,-19.5471 z"
       id="path3059"
       inkscape:connector-curvature="0"
       sodipodi:nodetypes="ccccccccccccccccc" />
  </g>
</svg>
