  0
SECTION
  2
HEADER
  9
$ACADVER
  1
AC1014
  9
$HANDSEED
  5
FFFF
  9
$MEASUREMENT
 70
     1
  0
ENDSEC
  0
SECTION
  2
TABLES
  0
TABLE
  2
VPORT
  5
8
330
0
100
AcDbSymbolTable
 70
     4
  0
VPORT
  5
2E
330
8
100
AcDbSymbolTableRecord
100
AcDbViewportTableRecord
  2
*ACTIVE
 70
     0
 10
0.0
 20
0.0
 11
1.0
 21
1.0
 12
210.0
 22
148.5
 13
0.0
 23
0.0
 14
10.0
 24
10.0
 15
10.0
 25
10.0
 16
0.0
 26
0.0
 36
1.0
 17
0.0
 27
0.0
 37
0.0
 40
341.0
 41
1.24
 42
50.0
 43
0.0
 44
0.0
 50
0.0
 51
0.0
 71
     0
 72
   100
 73
     1
 74
     3
 75
     0
 76
     0
 77
     0
 78
     0
  0
ENDTAB
  0
TABLE
  2
LTYPE
  5
5
330
0
100
AcDbSymbolTable
 70
     1
  0
LTYPE
  5
14
330
5
100
AcDbSymbolTableRecord
100
AcDbLinetypeTableRecord
  2
BYBLOCK
 70
     0
  3

 72
    65
 73
     0
 40
0.0
  0
LTYPE
  5
15
330
5
100
AcDbSymbolTableRecord
100
AcDbLinetypeTableRecord
  2
BYLAYER
 70
     0
  3

 72
    65
 73
     0
 40
0.0
  0
LTYPE
  5
16
330
5
100
AcDbSymbolTableRecord
100
AcDbLinetypeTableRecord
  2
CONTINUOUS
 70
     0
  3
Solid line
 72
    65
 73
     0
 40
0.0
  0
ENDTAB
  0
TABLE
  2
LAYER
  5
2
100
AcDbSymbolTable
 70
2
  0
LAYER
  5
50
100
AcDbSymbolTableRecord
100
AcDbLayerTableRecord
  2
0
 70
0
  6
CONTINUOUS
  0
LAYER
  5
51
100
AcDbSymbolTableRecord
100
AcDbLayerTableRecord
  2
Layer_1
 70
0
  6
CONTINUOUS
  0
ENDTAB
  0
TABLE
  2
STYLE
  5
3
330
0
100
AcDbSymbolTable
 70
     1
  0
STYLE
  5
11
330
3
100
AcDbSymbolTableRecord
100
AcDbTextStyleTableRecord
  2
STANDARD
 70
     0
 40
0.0
 41
1.0
 50
0.0
 71
     0
 42
2.5
  3
txt
  4

  0
ENDTAB
  0
TABLE
  2
VIEW
  5
6
330
0
100
AcDbSymbolTable
 70
     0
  0
ENDTAB
  0
TABLE
  2
UCS
  5
7
330
0
100
AcDbSymbolTable
 70
     0
  0
ENDTAB
  0
TABLE
  2
APPID
  5
9
330
0
100
AcDbSymbolTable
 70
     2
  0
APPID
  5
12
330
9
100
AcDbSymbolTableRecord
100
AcDbRegAppTableRecord
  2
ACAD
 70
     0
  0
ENDTAB
  0
TABLE
  2
DIMSTYLE
  5
A
330
0
100
AcDbSymbolTable
 70
     1
  0
DIMSTYLE
105
27
330
A
100
AcDbSymbolTableRecord
100
AcDbDimStyleTableRecord
  2
ISO-25
 70
     0
  3

  4

  5

  6

  7

 40
1.0
 41
2.5
 42
0.625
 43
3.75
 44
1.25
 45
0.0
 46
0.0
 47
0.0
 48
0.0
140
2.5
141
2.5
142
0.0
143
0.03937007874016
144
1.0
145
0.0
146
1.0
147
0.625
 71
     0
 72
     0
 73
     0
 74
     0
 75
     0
 76
     0
 77
     1
 78
     8
170
     0
171
     3
172
     1
173
     0
174
     0
175
     0
176
     0
177
     0
178
     0
270
     2
271
     2
272
     2
273
     2
274
     3
340
11
275
     0
280
     0
281
     0
282
     0
283
     0
284
     8
285
     0
286
     0
287
     3
288
     0
  0
ENDTAB
  0
TABLE
  2
BLOCK_RECORD
  5
1
330
0
100
AcDbSymbolTable
 70
     1
  0
BLOCK_RECORD
  5
1F
330
1
100
AcDbSymbolTableRecord
100
AcDbBlockTableRecord
  2
*MODEL_SPACE
  0
BLOCK_RECORD
  5
1B
330
1
100
AcDbSymbolTableRecord
100
AcDbBlockTableRecord
  2
*PAPER_SPACE
  0
ENDTAB
  0
ENDSEC
  0
SECTION
  2
BLOCKS
  0
BLOCK
  5
20
330
1F
100
AcDbEntity
  8
0
100
AcDbBlockBegin
  2
*MODEL_SPACE
 70
     0
 10
0.0
 20
0.0
 30
0.0
  3
*MODEL_SPACE
  1

  0
ENDBLK
  5
21
330
1F
100
AcDbEntity
  8
0
100
AcDbBlockEnd
  0
BLOCK
  5
1C
330
1B
100
AcDbEntity
 67
     1
  8
0
100
AcDbBlockBegin
  2
*PAPER_SPACE
  1

  0
ENDBLK
  5
1D
330
1B
100
AcDbEntity
 67
     1
  8
0
100
AcDbBlockEnd
  0
ENDSEC
  0
SECTION
  2
ENTITIES
  0
LWPOLYLINE
  5
100
100
AcDbEntity
  8
Layer_1
 62
7
100
AcDbPolyline
 90
37
 70
0
 10
-55.244300
 20
-2.869860
 30
0.0
 10
-56.041558
 20
-0.930768
 30
0.0
 10
-55.878087
 20
1.403041
 30
0.0
 10
-55.534075
 20
3.850162
 30
0.0
 10
-55.789700
 20
6.129219
 30
0.0
 10
-57.058137
 20
7.826644
 30
0.0
 10
-58.858539
 20
9.269054
 30
0.0
 10
-60.419841
 20
10.743637
 30
0.0
 10
-60.970976
 20
12.537639
 30
0.0
 10
-60.627847
 20
13.473601
 30
0.0
 10
-59.905211
 20
14.274237
 30
0.0
 10
-58.965536
 20
14.820145
 30
0.0
 10
-57.971289
 20
14.991922
 30
0.0
 10
-56.585338
 20
14.165722
 30
0.0
 10
-55.586475
 20
12.476933
 30
0.0
 10
-54.586959
 20
10.818510
 30
0.0
 10
-53.199058
 20
10.083350
 30
0.0
 10
-51.831954
 20
10.866968
 30
0.0
 10
-50.879824
 20
12.569276
 30
0.0
 10
-49.928340
 20
14.289844
 30
0.0
 10
-48.563180
 20
15.128272
 30
0.0
 10
-47.176213
 20
14.870982
 30
0.0
 10
-45.874776
 20
14.069964
 30
0.0
 10
-44.894921
 20
12.911837
 30
0.0
 10
-44.472696
 20
11.583192
 30
0.0
 10
-45.151331
 20
9.928184
 30
0.0
 10
-46.831448
 20
8.667441
 30
0.0
 10
-48.695683
 20
7.432888
 30
0.0
 10
-49.926675
 20
5.856508
 30
0.0
 10
-49.892819
 20
3.402501
 30
0.0
 10
-48.978278
 20
0.785228
 30
0.0
 10
-48.299325
 20
-1.682523
 30
0.0
 10
-48.972227
 20
-3.687938
 30
0.0
 10
-50.388297
 20
-4.396344
 30
0.0
 10
-52.136266
 20
-4.407632
 30
0.0
 10
-53.870236
 20
-3.854562
 30
0.0
 10
-55.244300
 20
-2.869860
 30
0.0
  0
LWPOLYLINE
  5
101
100
AcDbEntity
  8
Layer_1
 62
7
100
AcDbPolyline
 90
29
 70
0
 10
-21.805606
 20
11.676748
 30
0.0
 10
-24.110841
 20
6.490181
 30
0.0
 10
-24.070591
 20
-0.008550
 30
0.0
 10
-21.466179
 20
-5.539118
 30
0.0
 10
-16.078930
 20
-7.821223
 30
0.0
 10
-10.264905
 20
-6.604732
 30
0.0
 10
-6.381077
 20
-3.713676
 30
0.0
 10
-4.210138
 20
0.020999
 30
0.0
 10
-3.534782
 20
3.768486
 30
0.0
 10
-3.728215
 20
6.903806
 30
0.0
 10
-4.368753
 20
9.390946
 30
0.0
 10
-5.546751
 20
11.282540
 30
0.0
 10
-7.352566
 20
12.631196
 30
0.0
 10
-8.427343
 20
12.915732
 30
0.0
 10
-9.605506
 20
12.818845
 30
0.0
 10
-10.713906
 20
12.389529
 30
0.0
 10
-11.579397
 20
11.676748
 30
0.0
 10
-12.041253
 20
8.662050
 30
0.0
 10
-10.997616
 20
4.914111
 30
0.0
 10
-10.313043
 20
1.650070
 30
0.0
 10
-11.852097
 20
0.087067
 30
0.0
 10
-13.925145
 20
1.218101
 30
0.0
 10
-14.448714
 20
4.284840
 30
0.0
 10
-14.696596
 20
7.877416
 30
0.0
 10
-15.942580
 20
10.585959
 30
0.0
 10
-17.317247
 20
11.498722
 30
0.0
 10
-18.948617
 20
12.160026
 30
0.0
 10
-20.542726
 20
12.307007
 30
0.0
 10
-21.805606
 20
11.676748
 30
0.0
  0
LWPOLYLINE
  5
102
100
AcDbEntity
  8
Layer_1
 62
7
100
AcDbPolyline
 90
49
 70
0
 10
0.600826
 20
11.174139
 30
0.0
 10
-0.596430
 20
6.623898
 30
0.0
 10
0.253706
 20
1.597069
 30
0.0
 10
2.606809
 20
-3.174858
 30
0.0
 10
5.918455
 20
-6.960332
 30
0.0
 10
6.968788
 20
-7.599735
 30
0.0
 10
8.214121
 20
-7.957932
 30
0.0
 10
9.470589
 20
-7.953698
 30
0.0
 10
10.554330
 20
-7.505783
 30
0.0
 10
11.507858
 20
-5.102548
 30
0.0
 10
11.190381
 20
-1.785619
 30
0.0
 10
10.998016
 20
1.193688
 30
0.0
 10
12.326877
 20
2.584056
 30
0.0
 10
13.911970
 20
1.386672
 30
0.0
 10
14.181149
 20
-1.634884
 30
0.0
 10
14.341288
 20
-5.069444
 30
0.0
 10
15.599261
 20
-7.505783
 30
0.0
 10
17.141693
 20
-8.134828
 30
0.0
 10
18.906922
 20
-8.248423
 30
0.0
 10
20.620428
 20
-7.854328
 30
0.0
 10
22.007689
 20
-6.960389
 30
0.0
 10
24.733494
 20
-2.708316
 30
0.0
 10
25.981613
 20
2.545984
 30
0.0
 10
25.617730
 20
7.887492
 30
0.0
 10
23.507528
 20
12.401213
 30
0.0
 10
21.744120
 20
13.800724
 30
0.0
 10
19.422971
 20
14.592640
 30
0.0
 10
17.064772
 20
14.595462
 30
0.0
 10
15.190213
 20
13.628230
 30
0.0
 10
14.944982
 20
11.517914
 30
0.0
 10
16.236819
 20
8.883821
 30
0.0
 10
17.414401
 20
6.406276
 30
0.0
 10
16.826408
 20
4.765521
 30
0.0
 10
15.475271
 20
5.202937
 30
0.0
 10
14.459923
 20
7.197007
 30
0.0
 10
13.400673
 20
9.338848
 30
0.0
 10
11.917830
 20
10.219494
 30
0.0
 10
10.513100
 20
8.832795
 30
0.0
 10
9.916714
 20
6.158175
 30
0.0
 10
9.332351
 20
3.673490
 30
0.0
 10
7.963691
 20
2.856626
 30
0.0
 10
6.970206
 20
4.461342
 30
0.0
 10
7.727606
 20
7.358353
 30
0.0
 10
8.603049
 20
10.492854
 30
0.0
 10
7.963691
 20
12.810124
 30
0.0
 10
6.165663
 20
13.522594
 30
0.0
 10
4.026246
 20
13.393788
 30
0.0
 10
2.014835
 20
12.564111
 30
0.0
 10
0.600826
 20
11.174139
 30
0.0
  0
LWPOLYLINE
  5
103
100
AcDbEntity
  8
Layer_1
 62
7
100
AcDbPolyline
 90
17
 70
0
 10
29.117239
 20
12.264928
 30
0.0
 10
27.264741
 20
7.391091
 30
0.0
 10
27.086595
 20
1.865321
 30
0.0
 10
28.469167
 20
-3.505594
 30
0.0
 10
31.298825
 20
-7.914780
 30
0.0
 10
32.710811
 20
-8.929792
 30
0.0
 10
34.476021
 20
-9.532929
 30
0.0
 10
36.254744
 20
-9.565582
 30
0.0
 10
37.707257
 20
-8.869227
 30
0.0
 10
40.678952
 20
-3.558623
 30
0.0
 10
41.198950
 20
3.210138
 30
0.0
 10
39.427700
 20
9.768136
 30
0.0
 10
35.525659
 20
14.446534
 30
0.0
 10
33.895865
 20
14.890709
 30
0.0
 10
32.066035
 20
14.529253
 30
0.0
 10
30.363914
 20
13.581043
 30
0.0
 10
29.117239
 20
12.264928
 30
0.0
  0
LWPOLYLINE
  5
104
100
AcDbEntity
  8
Layer_1
 62
7
100
AcDbPolyline
 90
41
 70
0
 10
46.199682
 20
-7.914780
 30
0.0
 10
43.278538
 20
-3.204293
 30
0.0
 10
42.044533
 20
2.567095
 30
0.0
 10
42.513140
 20
8.483347
 30
0.0
 10
44.699837
 20
13.628428
 30
0.0
 10
45.821414
 20
14.729969
 30
0.0
 10
47.321018
 20
15.477119
 30
0.0
 10
48.941702
 20
15.743068
 30
0.0
 10
50.426513
 20
15.400972
 30
0.0
 10
52.371244
 20
12.088398
 30
0.0
 10
52.601424
 20
7.114344
 30
0.0
 10
52.937204
 20
2.636239
 30
0.0
 10
55.198744
 20
0.811588
 30
0.0
 10
57.281084
 20
2.940390
 30
0.0
 10
57.088670
 20
7.545805
 30
0.0
 10
56.735303
 20
12.635965
 30
0.0
 10
58.334780
 20
16.219067
 30
0.0
 10
59.479005
 20
16.612228
 30
0.0
 10
60.784861
 20
16.536062
 30
0.0
 10
62.024647
 20
16.062784
 30
0.0
 10
62.970661
 20
15.264622
 30
0.0
 10
65.579667
 20
9.776151
 30
0.0
 10
66.258130
 20
3.305557
 30
0.0
 10
64.986069
 20
-3.014442
 30
0.0
 10
61.743514
 20
-8.051150
 30
0.0
 10
60.410654
 20
-8.784024
 30
0.0
 10
58.790696
 20
-8.949717
 30
0.0
 10
57.113218
 20
-8.666112
 30
0.0
 10
55.607791
 20
-8.051150
 30
0.0
 10
54.198819
 20
-6.179226
 30
0.0
 10
53.368476
 20
-3.497071
 30
0.0
 10
52.498823
 20
-1.251231
 30
0.0
 10
50.971907
 20
-0.688254
 30
0.0
 10
50.298802
 20
-1.995620
 30
0.0
 10
51.082293
 20
-4.199973
 30
0.0
 10
51.981029
 20
-6.591440
 30
0.0
 10
51.653660
 20
-8.460174
 30
0.0
 10
50.432047
 20
-9.101044
 30
0.0
 10
48.916364
 20
-9.160706
 30
0.0
 10
47.405835
 20
-8.733760
 30
0.0
 10
46.199682
 20
-7.914780
 30
0.0
  0
LWPOLYLINE
  5
105
100
AcDbEntity
  8
Layer_1
 62
7
100
AcDbPolyline
 90
17
 70
0
 10
-34.835648
 20
14.253155
 30
0.0
 10
-38.630569
 20
13.428106
 30
0.0
 10
-41.729790
 20
11.178146
 30
0.0
 10
-43.819473
 20
7.840953
 30
0.0
 10
-44.585774
 20
3.754319
 30
0.0
 10
-43.819473
 20
-0.332315
 30
0.0
 10
-41.729790
 20
-3.669480
 30
0.0
 10
-38.630569
 20
-5.919469
 30
0.0
 10
-34.835648
 20
-6.744517
 30
0.0
 10
-31.041055
 20
-5.919469
 30
0.0
 10
-27.942558
 20
-3.669480
 30
0.0
 10
-25.853603
 20
-0.332315
 30
0.0
 10
-25.087630
 20
3.754319
 30
0.0
 10
-25.853603
 20
7.840953
 30
0.0
 10
-27.942558
 20
11.178146
 30
0.0
 10
-31.041055
 20
13.428106
 30
0.0
 10
-34.835648
 20
14.253155
 30
0.0
  0
LWPOLYLINE
  5
106
100
AcDbEntity
  8
Layer_1
 62
7
100
AcDbPolyline
 90
17
 70
0
 10
-35.653957
 20
7.708788
 30
0.0
 10
-34.406823
 20
7.381919
 30
0.0
 10
-33.388523
 20
6.490548
 30
0.0
 10
-32.702029
 20
5.168563
 30
0.0
 10
-32.450315
 20
3.549764
 30
0.0
 10
-32.702029
 20
1.930966
 30
0.0
 10
-33.388523
 20
0.608952
 30
0.0
 10
-34.406823
 20
-0.282418
 30
0.0
 10
-35.653957
 20
-0.609288
 30
0.0
 10
-36.901422
 20
-0.282418
 30
0.0
 10
-37.920447
 20
0.608952
 30
0.0
 10
-38.607667
 20
1.930966
 30
0.0
 10
-38.859711
 20
3.549764
 30
0.0
 10
-38.607667
 20
5.168563
 30
0.0
 10
-37.920447
 20
6.490548
 30
0.0
 10
-36.901422
 20
7.381919
 30
0.0
 10
-35.653957
 20
7.708788
 30
0.0
  0
LWPOLYLINE
  5
107
100
AcDbEntity
  8
Layer_1
 62
7
100
AcDbPolyline
 90
17
 70
0
 10
69.469073
 20
-5.904257
 30
0.0
 10
71.140523
 20
-7.170108
 30
0.0
 10
73.364231
 20
-7.735851
 30
0.0
 10
75.655359
 20
-7.562538
 30
0.0
 10
77.529078
 20
-6.611280
 30
0.0
 10
78.658576
 20
-4.863026
 30
0.0
 10
79.054966
 20
-2.625879
 30
0.0
 10
78.723764
 20
-0.366436
 30
0.0
 10
77.670479
 20
1.448733
 30
0.0
 10
76.153425
 20
2.352888
 30
0.0
 10
74.261658
 20
2.624273
 30
0.0
 10
72.342107
 20
2.307874
 30
0.0
 10
70.741709
 20
1.448733
 30
0.0
 10
69.526700
 20
-0.098776
 30
0.0
 10
68.822852
 20
-2.089262
 30
0.0
 10
68.760275
 20
-4.149004
 30
0.0
 10
69.469073
 20
-5.904257
 30
0.0
  0
LWPOLYLINE
  5
108
100
AcDbEntity
  8
Layer_1
 62
7
100
AcDbPolyline
 90
17
 70
0
 10
66.640998
 20
17.285937
 30
0.0
 10
65.879686
 20
13.896370
 30
0.0
 10
66.744122
 20
10.192767
 30
0.0
 10
68.758923
 20
6.748104
 30
0.0
 10
71.448721
 20
4.135404
 30
0.0
 10
72.988644
 20
3.406706
 30
0.0
 10
74.764511
 20
3.123947
 30
0.0
 10
76.508624
 20
3.346931
 30
0.0
 10
77.953289
 20
4.135404
 30
0.0
 10
80.365905
 20
7.545156
 30
0.0
 10
81.618957
 20
11.902018
 30
0.0
 10
81.428034
 20
16.264163
 30
0.0
 10
79.508725
 20
19.689796
 30
0.0
 10
76.446064
 20
21.092534
 30
0.0
 10
72.679633
 20
21.016469
 30
0.0
 10
69.110815
 20
19.676106
 30
0.0
 10
66.640998
 20
17.285937
 30
0.0
  0
ENDSEC
  0
SECTION
  2
OBJECTS
  0
DICTIONARY
  5
C
330
0
100
AcDbDictionary
  3
ACAD_GROUP
350
D
  3
ACAD_MLINESTYLE
350
17
  0
DICTIONARY
  5
D
330
C
100
AcDbDictionary
  0
DICTIONARY
  5
1A
330
C
100
AcDbDictionary
  0
DICTIONARY
  5
17
330
C
100
AcDbDictionary
  3
STANDARD
350
18
  0
DICTIONARY
  5
19
330
C
100
AcDbDictionary
  0
ENDSEC
  0
EOF
