# 3ds Max Wavefront OBJ Exporter v0.97b - (c)2007 guruware
# File Created: 27.04.2015 12:54:45

#
# object Box001
#

v  1.430360 0.180896 -0.185074
v  1.358181 0.195944 0.022147
v  1.576869 0.251718 -0.041247
v  1.607147 0.225287 -0.324166
v  1.350318 0.194196 0.330494
v  1.546298 0.247249 0.314708
v  1.811062 0.277505 0.290135
v  1.868475 0.285238 -0.139539
v  1.922215 0.261686 -0.496177
v  2.150924 0.317790 -0.265142
v  2.221256 0.296390 -0.715983
v  2.073536 0.307519 0.258735
v  2.330697 0.336940 0.222800
v  2.412116 0.347968 -0.408881
v  2.483098 0.326940 -0.967526
v  2.639952 0.374368 -0.561581
v  2.686567 0.350878 -1.234751
v  2.579518 0.365416 0.184625
v  2.827242 0.393743 0.155153
v  2.863402 0.400171 -0.679466
v  2.882360 0.373772 -1.441050
v  3.111436 0.428561 -0.718761
v  3.121175 0.401192 -1.509817
v  3.081113 0.422717 0.145330
v  3.277271 0.414419 0.145246
v  3.310131 0.420552 -0.718845
v  3.266855 0.393386 -1.304815
v  1.344479 0.192707 0.628261
v  1.526126 0.244083 0.628345
v  1.337353 0.191087 0.920739
v  1.506943 0.241088 0.920822
v  1.737667 0.267395 0.920822
v  1.772923 0.272223 0.628345
v  2.019721 0.300363 0.628345
v  1.968390 0.293702 0.920822
v  2.199113 0.320009 0.920822
v  2.266519 0.328503 0.628345
v  2.513317 0.356643 0.628345
v  2.429836 0.346316 0.920822
v  2.660559 0.372624 0.920822
v  2.760114 0.384783 0.628345
v  3.006912 0.412923 0.628345
v  2.891283 0.398931 0.920822
v  3.067776 0.388391 0.920739
v  3.195462 0.403757 0.628261
v  1.325629 0.188943 1.213216
v  1.479344 0.237133 1.213300
v  1.311748 0.186552 1.505694
v  1.446408 0.232570 1.505777
v  1.630556 0.253567 1.505777
v  1.688899 0.261027 1.213300
v  1.898454 0.284920 1.213300
v  1.814704 0.274563 1.505777
v  1.998852 0.295560 1.505777
v  2.108008 0.308814 1.213300
v  2.317563 0.332707 1.213300
v  2.183000 0.316557 1.505777
v  2.367148 0.337553 1.505777
v  2.527117 0.356601 1.213300
v  2.736672 0.380494 1.213300
v  2.551296 0.358550 1.505777
v  2.692859 0.344027 1.505694
v  2.897290 0.368144 1.213216
v  1.298148 0.184194 1.798171
v  1.411216 0.227750 1.798254
v  1.317637 0.162118 1.960593
v  1.387427 0.193768 2.017529
v  1.519926 0.208875 2.017529
v  1.566575 0.245464 1.798254
v  1.721934 0.263178 1.798254
v  1.652424 0.223983 2.017529
v  1.784923 0.239090 2.017529
v  1.877292 0.280892 1.798254
v  2.032651 0.298606 1.798254
v  1.917421 0.254198 2.017529
v  2.049920 0.269305 2.017529
v  2.188010 0.316320 1.798254
v  2.343369 0.334034 1.798254
v  2.182418 0.284413 2.017529
v  2.307262 0.274955 1.960593
v  2.463340 0.317049 1.798171
v  1.473311 -0.195801 -0.186115
v  1.655467 -0.198496 -0.325336
v  1.632092 -0.232607 -0.042584
v  1.406501 -0.227840 0.020977
v  1.970535 -0.162097 -0.497347
v  1.923698 -0.199086 -0.140876
v  1.866285 -0.206819 0.288798
v  1.601521 -0.237075 0.313371
v  1.398638 -0.229588 0.329324
v  2.269576 -0.127393 -0.717153
v  2.206147 -0.166534 -0.266479
v  2.531418 -0.096843 -0.968696
v  2.467339 -0.136356 -0.410218
v  2.385919 -0.147384 0.221462
v  2.128759 -0.176805 0.257397
v  2.734887 -0.072906 -1.235922
v  2.695175 -0.109956 -0.562918
v  2.930681 -0.050012 -1.442221
v  2.918625 -0.084153 -0.680804
v  2.882465 -0.090581 0.153816
v  2.634741 -0.118908 0.183287
v  3.169495 -0.022592 -1.510987
v  3.166658 -0.055764 -0.720099
v  3.309805 0.016690 -1.305856
v  3.358451 -0.003231 -0.720015
v  3.325591 -0.009364 0.144076
v  3.136335 -0.061607 0.143992
v  1.581349 -0.240242 0.627007
v  1.392799 -0.231076 0.627091
v  1.828146 -0.212102 0.627007
v  1.792889 -0.216929 0.919485
v  1.562166 -0.243236 0.919485
v  1.385673 -0.232697 0.919568
v  2.074944 -0.183962 0.627007
v  2.321742 -0.155822 0.627007
v  2.254336 -0.164315 0.919485
v  2.023613 -0.190622 0.919485
v  2.568539 -0.127682 0.627007
v  2.815337 -0.099542 0.627007
v  2.715782 -0.111701 0.919485
v  2.485059 -0.138008 0.919485
v  3.062135 -0.071402 0.627007
v  3.243782 -0.020026 0.627091
v  3.116096 -0.035393 0.919568
v  2.946505 -0.085393 0.919485
v  1.534567 -0.247191 1.211962
v  1.373949 -0.234841 1.212046
v  1.744122 -0.223298 1.211962
v  1.685779 -0.230758 1.504440
v  1.501631 -0.251754 1.504440
v  1.360068 -0.237231 1.504523
v  1.953676 -0.199404 1.211962
v  2.163231 -0.175510 1.211962
v  2.054075 -0.188764 1.504440
v  1.869927 -0.209761 1.504440
v  2.372786 -0.151617 1.211962
v  2.582340 -0.127723 1.211962
v  2.422371 -0.146771 1.504440
v  2.238223 -0.167768 1.504440
v  2.791895 -0.103830 1.211962
v  2.945610 -0.055639 1.212046
v  2.741179 -0.079757 1.504523
v  2.606519 -0.125774 1.504440
v  1.466439 -0.256575 1.796917
v  1.346468 -0.239590 1.797001
v  1.621798 -0.238860 1.796917
v  1.568246 -0.214908 2.016359
v  1.435747 -0.230016 2.016359
v  1.360588 -0.214579 1.959553
v  1.777156 -0.221146 1.796917
v  1.932515 -0.203432 1.796917
v  1.833243 -0.184693 2.016359
v  1.700744 -0.199801 2.016359
v  2.087874 -0.185718 1.796917
v  2.243233 -0.168004 1.796917
v  2.098240 -0.154478 2.016359
v  1.965741 -0.169586 2.016359
v  2.398592 -0.150290 1.796917
v  2.511659 -0.106734 1.797001
v  2.350214 -0.101741 1.959553
v  2.230738 -0.139371 2.016359
v  1.626444 0.135756 -0.418695
v  1.377432 0.106812 -0.218621
v  1.949332 0.173115 -0.615279
v  1.963137 0.052034 -0.615614
v  1.640249 0.014675 -0.419030
v  1.391238 -0.014270 -0.218955
v  2.253904 0.208536 -0.866486
v  2.515962 0.239210 -1.153964
v  2.529768 0.118129 -1.154298
v  2.267709 0.087455 -0.866820
v  2.711309 0.262327 -1.459364
v  2.897884 0.284252 -1.695135
v  2.911690 0.163171 -1.695469
v  2.725115 0.141246 -1.459698
v  3.133626 0.311348 -1.773725
v  3.326773 0.332643 -1.510068
v  3.340579 0.211562 -1.510402
v  3.147431 0.190267 -1.774059
v  1.654055 -0.106406 -0.419364
v  1.405044 -0.135351 -0.219289
v  1.976943 -0.069047 -0.615948
v  2.281515 -0.033626 -0.867154
v  2.543574 -0.002952 -1.154633
v  2.738921 0.020165 -1.460033
v  2.925495 0.042090 -1.695804
v  3.161237 0.069186 -1.774394
v  3.354385 0.090481 -1.510736
v  3.385566 0.337162 -0.719096
v  3.351862 0.330933 0.144995
v  3.365667 0.209852 0.144661
v  3.399372 0.216081 -0.719430
v  3.267516 0.319982 0.628011
v  3.135811 0.304157 0.920488
v  3.149617 0.183076 0.920154
v  3.281321 0.198900 0.627676
v  2.960033 0.283307 1.212965
v  2.749250 0.258465 1.505443
v  2.763056 0.137384 1.505108
v  2.973839 0.162226 1.212631
v  2.512533 0.230667 1.797920
v  2.294051 0.205150 2.017278
v  2.307857 0.084069 2.016944
v  2.526339 0.109586 1.797586
v  3.413178 0.095000 -0.719765
v  3.379473 0.088771 0.144326
v  3.295127 0.077819 0.627342
v  3.163423 0.061995 0.919819
v  2.987644 0.041145 1.212297
v  2.776862 0.016303 1.504774
v  2.540145 -0.011495 1.797251
v  2.321663 -0.037012 2.016609
v  2.137972 0.187152 2.090398
v  2.013093 0.172913 2.090398
v  2.026899 0.051832 2.090063
v  2.151777 0.066071 2.090063
v  1.888215 0.158674 2.090398
v  1.763337 0.144436 2.090398
v  1.777142 0.023355 2.090063
v  1.902021 0.037593 2.090063
v  1.638458 0.130197 2.090398
v  1.513580 0.115958 2.090398
v  1.527386 -0.005123 2.090063
v  1.652264 0.009116 2.090063
v  1.388702 0.101720 2.090398
v  1.296503 0.091409 2.017278
v  1.310308 -0.029672 2.016944
v  1.402507 -0.019361 2.090063
v  2.165583 -0.055010 2.089729
v  2.040705 -0.069249 2.089729
v  1.915826 -0.083488 2.089729
v  1.790948 -0.097726 2.089729
v  1.666070 -0.111965 2.089729
v  1.541191 -0.126204 2.089729
v  1.416313 -0.140442 2.089729
v  1.324114 -0.150753 2.016609
v  1.269663 0.088955 1.797920
v  1.276065 0.090492 1.505443
v  1.289871 -0.030589 1.505108
v  1.283468 -0.032126 1.797586
v  1.283595 0.092159 1.212965
v  1.290026 0.093700 0.920488
v  1.303832 -0.027381 0.920154
v  1.297401 -0.028922 1.212631
v  1.293134 0.094862 0.628011
v  1.294196 0.095790 0.335533
v  1.308001 -0.025291 0.335199
v  1.306939 -0.026219 0.627676
v  1.294489 0.096632 0.043056
v  1.308295 -0.024449 0.042721
v  1.297274 -0.153208 1.797251
v  1.303677 -0.151670 1.504774
v  1.311206 -0.150004 1.212297
v  1.317637 -0.148463 0.919819
v  1.320745 -0.147300 0.627342
v  1.321807 -0.146372 0.334864
v  1.322101 -0.145530 0.042387
# 258 vertices

vn -0.542042 0.776501 -0.321305
vn -0.614946 0.775800 -0.141338
vn -0.209796 0.975674 -0.063614
vn -0.415815 0.812567 -0.408453
vn -0.611534 0.791199 -0.005498
vn -0.188675 0.982035 -0.003129
vn -0.113286 0.993559 0.002744
vn -0.129250 0.990769 -0.040881
vn -0.327929 0.876945 -0.351327
vn -0.135613 0.990131 -0.035359
vn -0.347727 0.887757 -0.301617
vn -0.129671 0.991223 -0.025747
vn -0.385362 0.888997 -0.247345
vn -0.133212 0.990788 -0.024362
vn -0.371814 0.902935 -0.215554
vn -0.121600 0.992388 -0.019499
vn -0.289183 0.932462 -0.216536
vn -0.035576 0.999184 -0.019104
vn 0.096889 0.969451 -0.225339
vn -0.032707 0.999408 0.010702
vn 0.439179 0.896394 0.059996
vn 0.432402 0.901331 -0.025111
vn 0.371385 0.925213 -0.077815
vn -0.629562 0.776889 -0.009744
vn -0.193202 0.981159 -0.000341
vn -0.645526 0.763624 -0.013217
vn -0.198006 0.980192 -0.004127
vn -0.026069 0.999193 0.030566
vn -0.024036 0.998660 0.045827
vn 0.433456 0.857118 0.278325
vn 0.448815 0.877113 0.170994
vn -0.667756 0.744011 -0.023446
vn -0.206807 0.978376 -0.003268
vn -0.698124 0.715578 -0.023913
vn -0.219322 0.975603 -0.009863
vn -0.015639 0.997688 0.066130
vn -0.004396 0.996963 0.077752
vn 0.444853 0.799935 0.402752
vn 0.436899 0.830882 0.344608
vn -0.734013 0.675236 0.072677
vn -0.242523 0.967745 0.068202
vn -0.720338 0.644110 0.257362
vn -0.367964 0.791623 0.487786
vn -0.098325 0.862344 0.496685
vn -0.112995 0.991006 0.071685
vn -0.098325 0.862344 0.496684
vn 0.016549 0.983265 0.181430
vn 0.121785 0.802763 0.583729
vn 0.415774 0.681930 0.601751
vn 0.444341 0.743984 0.499048
vn -0.353528 -0.876827 -0.325871
vn -0.222477 -0.883076 -0.413136
vn 0.015186 -0.997497 -0.069064
vn -0.424608 -0.893537 -0.145948
vn -0.122319 -0.926328 -0.356308
vn 0.097077 -0.994196 -0.046362
vn 0.113286 -0.993559 -0.002744
vn 0.037234 -0.999270 -0.008601
vn -0.417733 -0.908513 -0.010192
vn -0.139144 -0.941591 -0.306669
vn 0.090736 -0.995037 -0.040842
vn -0.175500 -0.951567 -0.252428
vn 0.096778 -0.994816 -0.031232
vn -0.159142 -0.962270 -0.220705
vn 0.093231 -0.995197 -0.029847
vn -0.071986 -0.972432 -0.221797
vn 0.104908 -0.994168 -0.024985
vn 0.312498 -0.921513 -0.230562
vn 0.190254 -0.981427 -0.024574
vn 0.570081 -0.817423 -0.082627
vn 0.624189 -0.780707 -0.029756
vn 0.629734 -0.774835 0.055381
vn 0.193119 -0.981161 0.005232
vn 0.032628 -0.999451 -0.005811
vn -0.438522 -0.898606 -0.014371
vn 0.027728 -0.999570 -0.009594
vn -0.457063 -0.889256 -0.017782
vn 0.199550 -0.979566 0.025101
vn 0.634850 -0.754485 0.166488
vn 0.615452 -0.739046 0.273917
vn 0.201421 -0.978673 0.040367
vn 0.018744 -0.999786 -0.008731
vn -0.483145 -0.875095 -0.027918
vn 0.005922 -0.999865 -0.015319
vn -0.519134 -0.854226 -0.028248
vn 0.209396 -0.975946 0.060680
vn 0.612941 -0.713070 0.340344
vn 0.613761 -0.681445 0.398661
vn 0.220194 -0.972772 0.072312
vn -0.018404 -0.997858 0.062773
vn -0.563123 -0.823526 0.068538
vn 0.113038 -0.991382 0.066211
vn 0.098632 -0.865039 0.491914
vn -0.180012 -0.856785 0.483234
vn -0.556692 -0.791128 0.253399
vn 0.237582 -0.955276 0.176076
vn 0.600726 -0.627571 0.495261
vn 0.558987 -0.574101 0.598282
vn 0.299735 -0.757913 0.579419
vn -0.563551 0.280702 -0.776928
vn -0.805723 0.276264 -0.523917
vn -0.583467 0.309698 -0.750768
vn -0.573628 -0.063150 -0.816678
vn -0.568427 -0.062547 -0.820353
vn -0.818425 -0.091751 -0.567242
vn -0.665942 0.333151 -0.667481
vn -0.782670 0.294792 -0.548202
vn -0.786686 -0.088011 -0.611048
vn -0.682771 -0.075843 -0.726685
vn -0.752469 0.387029 -0.532915
vn -0.531220 0.456402 -0.713795
vn -0.568559 -0.062562 -0.820260
vn -0.807379 -0.090447 -0.583060
vn 0.199405 0.523749 -0.828206
vn 0.741436 0.584874 -0.328930
vn 0.931590 0.107180 -0.347351
vn 0.300830 0.036933 -0.952962
vn -0.486379 -0.396119 -0.778797
vn -0.723177 -0.447690 -0.525917
vn -0.499241 -0.428997 -0.752808
vn -0.574268 -0.470867 -0.669702
vn -0.696561 -0.460421 -0.550287
vn -0.646361 -0.543574 -0.535485
vn -0.415287 -0.560372 -0.716603
vn 0.311674 -0.460894 -0.830925
vn 0.853863 -0.401153 -0.331653
vn 0.910760 0.412359 -0.021816
vn 0.909348 0.403440 0.101604
vn 0.987922 0.112349 0.106712
vn 0.993406 0.113317 -0.017404
vn 0.882495 0.380110 0.276981
vn 0.824151 0.346232 0.448217
vn 0.879119 0.098950 0.466218
vn 0.949268 0.107420 0.295553
vn 0.786389 0.312957 0.532588
vn 0.753240 0.275348 0.597338
vn 0.787677 0.088127 0.609753
vn 0.827974 0.092879 0.553021
vn 0.712700 0.239026 0.659489
vn 0.502867 0.300555 0.810427
vn 0.569270 0.062644 0.819761
vn 0.737082 0.082190 0.670786
vn 0.980197 -0.196626 -0.023498
vn 0.976889 -0.188927 0.099968
vn 0.945584 -0.173198 0.275453
vn 0.881217 -0.154257 0.446834
vn 0.836986 -0.130797 0.531363
vn 0.796262 -0.101970 0.596296
vn 0.748624 -0.076045 0.658619
vn 0.558122 -0.184053 0.809089
vn 0.149492 0.309857 0.938957
vn -0.037205 0.326302 0.944533
vn 0.000311 -0.002726 0.999996
vn 0.214985 0.021816 0.976374
vn -0.347748 0.280684 0.894588
vn -0.842518 0.219106 0.492094
vn -0.865625 -0.100054 0.490594
vn -0.325174 -0.039686 0.944821
vn 0.215992 -0.273366 0.937347
vn 0.037792 -0.331447 0.942717
vn -0.275081 -0.356635 0.892828
vn -0.771263 -0.405823 0.490368
vn -0.994107 0.095447 0.051387
vn -0.992418 0.120743 -0.022970
vn -0.993277 -0.113187 -0.024278
vn -0.992308 -0.113281 0.049920
vn -0.988672 0.147101 -0.029817
vn -0.985513 0.168908 -0.015304
vn -0.993429 -0.113225 -0.016723
vn -0.993276 -0.113187 -0.024326
vn -0.982809 0.184274 -0.011353
vn -0.979573 0.201084 -0.001678
vn -0.993560 -0.113279 -0.002645
vn -0.993537 -0.113263 -0.007487
vn -0.966088 0.210029 -0.150209
vn -0.981667 -0.111503 -0.154587
vn -0.947073 -0.317062 0.050248
vn -0.939779 -0.340922 -0.024245
vn -0.930200 -0.365723 -0.031233
vn -0.922204 -0.386338 -0.016838
vn -0.916108 -0.400723 -0.012969
vn -0.909164 -0.416425 -0.003384
vn -0.894104 -0.421294 -0.151953
# 183 vertex normals

g Box001
f 1//1 2//2 3//3 4//4 
f 5//5 6//6 3//3 2//2 
f 7//7 8//8 3//3 6//6 
f 9//9 4//4 3//3 8//8 
f 9//9 8//8 10//10 11//11 
f 7//7 12//7 10//10 8//8 
f 13//7 14//12 10//10 12//7 
f 15//13 11//11 10//10 14//12 
f 15//13 14//12 16//14 17//15 
f 13//7 18//7 16//14 14//12 
f 19//7 20//16 16//14 18//7 
f 21//17 17//15 16//14 20//16 
f 21//17 20//16 22//18 23//19 
f 19//7 24//20 22//18 20//16 
f 25//21 26//22 22//18 24//20 
f 27//23 23//19 22//18 26//22 
f 5//5 28//24 29//25 6//6 
f 30//26 31//27 29//25 28//24 
f 32//7 33//7 29//25 31//27 
f 7//7 6//6 29//25 33//7 
f 7//7 33//7 34//7 12//7 
f 32//7 35//7 34//7 33//7 
f 36//7 37//7 34//7 35//7 
f 13//7 12//7 34//7 37//7 
f 13//7 37//7 38//7 18//7 
f 36//7 39//7 38//7 37//7 
f 40//7 41//7 38//7 39//7 
f 19//7 18//7 38//7 41//7 
f 19//7 41//7 42//28 24//20 
f 40//7 43//29 42//28 41//7 
f 44//30 45//31 42//28 43//29 
f 25//21 24//20 42//28 45//31 
f 30//26 46//32 47//33 31//27 
f 48//34 49//35 47//33 46//32 
f 50//7 51//7 47//33 49//35 
f 32//7 31//27 47//33 51//7 
f 32//7 51//7 52//7 35//7 
f 50//7 53//7 52//7 51//7 
f 54//7 55//7 52//7 53//7 
f 36//7 35//7 52//7 55//7 
f 36//7 55//7 56//7 39//7 
f 54//7 57//7 56//7 55//7 
f 58//7 59//7 56//7 57//7 
f 40//7 39//7 56//7 59//7 
f 40//7 59//7 60//36 43//29 
f 58//7 61//37 60//36 59//7 
f 62//38 63//39 60//36 61//37 
f 44//30 43//29 60//36 63//39 
f 48//34 64//40 65//41 49//35 
f 66//42 67//43 65//41 64//40 
f 68//44 69//45 65//41 67//43 
f 50//7 49//35 65//41 69//45 
f 50//7 69//45 70//45 53//7 
f 68//44 71//46 70//45 69//45 
f 72//44 73//45 70//45 71//46 
f 54//7 53//7 70//45 73//45 
f 54//7 73//45 74//45 57//7 
f 72//44 75//46 74//45 73//45 
f 76//44 77//45 74//45 75//46 
f 58//7 57//7 74//45 77//45 
f 58//7 77//45 78//47 61//37 
f 76//44 79//48 78//47 77//45 
f 80//49 81//50 78//47 79//48 
f 62//38 61//37 78//47 81//50 
f 82//51 83//52 84//53 85//54 
f 86//55 87//56 84//53 83//52 
f 88//57 89//58 84//53 87//56 
f 90//59 85//54 84//53 89//58 
f 86//55 91//60 92//61 87//56 
f 93//62 94//63 92//61 91//60 
f 95//57 96//57 92//61 94//63 
f 88//57 87//56 92//61 96//57 
f 93//62 97//64 98//65 94//63 
f 99//66 100//67 98//65 97//64 
f 101//57 102//57 98//65 100//67 
f 95//57 94//63 98//65 102//57 
f 99//66 103//68 104//69 100//67 
f 105//70 106//71 104//69 103//68 
f 107//72 108//73 104//69 106//71 
f 101//57 100//67 104//69 108//73 
f 90//59 89//58 109//74 110//75 
f 88//57 111//57 109//74 89//58 
f 112//57 113//76 109//74 111//57 
f 114//77 110//75 109//74 113//76 
f 88//57 96//57 115//57 111//57 
f 95//57 116//57 115//57 96//57 
f 117//57 118//57 115//57 116//57 
f 112//57 111//57 115//57 118//57 
f 95//57 102//57 119//57 116//57 
f 101//57 120//57 119//57 102//57 
f 121//57 122//57 119//57 120//57 
f 117//57 116//57 119//57 122//57 
f 101//57 108//73 123//78 120//57 
f 107//72 124//79 123//78 108//73 
f 125//80 126//81 123//78 124//79 
f 121//57 120//57 123//78 126//81 
f 114//77 113//76 127//82 128//83 
f 112//57 129//57 127//82 113//76 
f 130//57 131//84 127//82 129//57 
f 132//85 128//83 127//82 131//84 
f 112//57 118//57 133//57 129//57 
f 117//57 134//57 133//57 118//57 
f 135//57 136//57 133//57 134//57 
f 130//57 129//57 133//57 136//57 
f 117//57 122//57 137//57 134//57 
f 121//57 138//57 137//57 122//57 
f 139//57 140//57 137//57 138//57 
f 135//57 134//57 137//57 140//57 
f 121//57 126//81 141//86 138//57 
f 125//80 142//87 141//86 126//81 
f 143//88 144//89 141//86 142//87 
f 139//57 138//57 141//86 144//89 
f 132//85 131//84 145//90 146//91 
f 130//57 147//92 145//90 131//84 
f 148//93 149//94 145//90 147//92 
f 150//95 146//91 145//90 149//94 
f 130//57 136//57 151//92 147//92 
f 135//57 152//92 151//92 136//57 
f 153//93 154//93 151//92 152//92 
f 148//93 147//92 151//92 154//93 
f 135//57 140//57 155//92 152//92 
f 139//57 156//92 155//92 140//57 
f 157//93 158//93 155//92 156//92 
f 153//93 152//92 155//92 158//93 
f 139//57 144//89 159//96 156//92 
f 143//88 160//97 159//96 144//89 
f 161//98 162//99 159//96 160//97 
f 157//93 156//92 159//96 162//99 
f 1//1 4//4 163//100 164//101 
f 9//9 165//102 163//100 4//4 
f 166//103 167//104 163//100 165//102 
f 168//105 164//101 163//100 167//104 
f 9//9 11//11 169//106 165//102 
f 15//13 170//107 169//106 11//11 
f 171//108 172//109 169//106 170//107 
f 166//103 165//102 169//106 172//109 
f 15//13 17//15 173//110 170//107 
f 21//17 174//111 173//110 17//15 
f 175//112 176//113 173//110 174//111 
f 171//108 170//107 173//110 176//113 
f 21//17 23//19 177//114 174//111 
f 27//23 178//115 177//114 23//19 
f 179//116 180//117 177//114 178//115 
f 175//112 174//111 177//114 180//117 
f 168//105 167//104 181//118 182//119 
f 166//103 183//120 181//118 167//104 
f 86//55 83//52 181//118 183//120 
f 82//51 182//119 181//118 83//52 
f 166//103 172//109 184//121 183//120 
f 171//108 185//122 184//121 172//109 
f 93//62 91//60 184//121 185//122 
f 86//55 183//120 184//121 91//60 
f 171//108 176//113 186//123 185//122 
f 175//112 187//124 186//123 176//113 
f 99//66 97//64 186//123 187//124 
f 93//62 185//122 186//123 97//64 
f 175//112 180//117 188//125 187//124 
f 179//116 189//126 188//125 180//117 
f 105//70 103//68 188//125 189//126 
f 99//66 187//124 188//125 103//68 
f 27//23 26//22 190//127 178//115 
f 25//21 191//128 190//127 26//22 
f 192//129 193//130 190//127 191//128 
f 179//116 178//115 190//127 193//130 
f 25//21 45//31 194//131 191//128 
f 44//30 195//132 194//131 45//31 
f 196//133 197//134 194//131 195//132 
f 192//129 191//128 194//131 197//134 
f 44//30 63//39 198//135 195//132 
f 62//38 199//136 198//135 63//39 
f 200//137 201//138 198//135 199//136 
f 196//133 195//132 198//135 201//138 
f 62//38 81//50 202//139 199//136 
f 80//49 203//140 202//139 81//50 
f 204//141 205//142 202//139 203//140 
f 200//137 199//136 202//139 205//142 
f 179//116 193//130 206//143 189//126 
f 192//129 207//144 206//143 193//130 
f 107//72 106//71 206//143 207//144 
f 105//70 189//126 206//143 106//71 
f 192//129 197//134 208//145 207//144 
f 196//133 209//146 208//145 197//134 
f 125//80 124//79 208//145 209//146 
f 107//72 207//144 208//145 124//79 
f 196//133 201//138 210//147 209//146 
f 200//137 211//148 210//147 201//138 
f 143//88 142//87 210//147 211//148 
f 125//80 209//146 210//147 142//87 
f 200//137 205//142 212//149 211//148 
f 204//141 213//150 212//149 205//142 
f 161//98 160//97 212//149 213//150 
f 143//88 211//148 212//149 160//97 
f 80//49 79//48 214//151 203//140 
f 76//44 215//152 214//151 79//48 
f 216//153 217//154 214//151 215//152 
f 204//141 203//140 214//151 217//154 
f 76//44 75//46 218//152 215//152 
f 72//44 219//152 218//152 75//46 
f 220//153 221//153 218//152 219//152 
f 216//153 215//152 218//152 221//153 
f 72//44 71//46 222//152 219//152 
f 68//44 223//152 222//152 71//46 
f 224//153 225//153 222//152 223//152 
f 220//153 219//152 222//152 225//153 
f 68//44 67//43 226//155 223//152 
f 66//42 227//156 226//155 67//43 
f 228//157 229//158 226//155 227//156 
f 224//153 223//152 226//155 229//158 
f 204//141 217//154 230//159 213//150 
f 216//153 231//160 230//159 217//154 
f 157//93 162//99 230//159 231//160 
f 161//98 213//150 230//159 162//99 
f 216//153 221//153 232//160 231//160 
f 220//153 233//160 232//160 221//153 
f 153//93 158//93 232//160 233//160 
f 157//93 231//160 232//160 158//93 
f 220//153 225//153 234//160 233//160 
f 224//153 235//160 234//160 225//153 
f 148//93 154//93 234//160 235//160 
f 153//93 233//160 234//160 154//93 
f 224//153 229//158 236//161 235//160 
f 228//157 237//162 236//161 229//158 
f 150//95 149//94 236//161 237//162 
f 148//93 235//160 236//161 149//94 
f 66//42 64//40 238//163 227//156 
f 48//34 239//164 238//163 64//40 
f 240//165 241//166 238//163 239//164 
f 228//157 227//156 238//163 241//166 
f 48//34 46//32 242//167 239//164 
f 30//26 243//168 242//167 46//32 
f 244//169 245//170 242//167 243//168 
f 240//165 239//164 242//167 245//170 
f 30//26 28//24 246//171 243//168 
f 5//5 247//172 246//171 28//24 
f 248//173 249//174 246//171 247//172 
f 244//169 243//168 246//171 249//174 
f 5//5 2//2 250//175 247//172 
f 1//1 164//101 250//175 2//2 
f 168//105 251//176 250//175 164//101 
f 248//173 247//172 250//175 251//176 
f 228//157 241//166 252//177 237//162 
f 240//165 253//178 252//177 241//166 
f 132//85 146//91 252//177 253//178 
f 150//95 237//162 252//177 146//91 
f 240//165 245//170 254//179 253//178 
f 244//169 255//180 254//179 245//170 
f 114//77 128//83 254//179 255//180 
f 132//85 253//178 254//179 128//83 
f 244//169 249//174 256//181 255//180 
f 248//173 257//182 256//181 249//174 
f 90//59 110//75 256//181 257//182 
f 114//77 255//180 256//181 110//75 
f 248//173 251//176 258//183 257//182 
f 168//105 182//119 258//183 251//176 
f 82//51 85//54 258//183 182//119 
f 90//59 257//182 258//183 85//54 
# 256 polygons

