# 3ds Max Wavefront OBJ Exporter v0.97b - (c)2007 guruware
# File Created: 05.05.2015 12:46:53

#
# object Line006
#

v  -0.000001 10.257200 36.875000
v  -0.000001 10.223715 37.360622
v  -4.071922 10.223715 37.360619
v  -4.071922 10.257200 36.875000
v  -0.000001 10.181778 37.846146
v  -4.071922 10.181778 37.846146
v  -0.000002 10.122938 38.331486
v  -4.071923 10.122937 38.331482
v  -0.000002 10.038744 38.816536
v  -4.071922 10.038744 38.816532
v  -0.000002 9.920741 39.301205
v  -4.071922 9.920741 39.301205
v  -0.000002 9.760483 39.785397
v  -4.071922 9.760482 39.785397
v  -0.000002 9.549513 40.269020
v  -4.071922 9.549513 40.269020
v  -0.000002 9.279383 40.751976
v  -4.071922 9.279383 40.751972
v  -0.000002 8.941640 41.234169
v  -4.071923 8.941640 41.234169
v  -0.000002 8.527833 41.715504
v  -4.071923 8.527832 41.715504
v  -0.000002 8.029510 42.195889
v  -4.071923 8.029509 42.195889
v  -0.000002 7.438218 42.675228
v  -4.071923 7.438217 42.675228
v  -0.000002 6.745508 43.153423
v  -4.071923 6.745507 43.153419
v  -0.000002 5.962356 43.570610
v  -4.071923 5.962356 43.570606
v  -0.000002 5.109261 43.873341
v  -4.071923 5.109261 43.873341
v  -0.000002 4.192052 44.071159
v  -4.071923 4.192051 44.071159
v  -0.000002 3.216556 44.173603
v  -4.071923 3.216556 44.173603
v  -0.000002 2.188603 44.190205
v  -4.071923 2.188603 44.190205
v  -0.000002 1.114021 44.130505
v  -4.071923 1.114021 44.130505
v  -0.000002 -0.001361 44.004044
v  -4.071923 -0.001361 44.004044
v  -0.000002 -1.151714 43.820354
v  -4.071922 -1.151714 43.820354
v  -0.000002 -2.331212 43.588978
v  -4.071922 -2.331212 43.588974
v  -0.000002 -3.534022 43.319447
v  -4.071922 -3.534022 43.319447
v  -0.000001 -4.754319 43.021305
v  -4.071922 -4.754319 43.021305
v  -0.000001 -5.986274 42.704090
v  -4.071922 -5.986274 42.704086
v  -0.000001 -7.224056 42.377335
v  -4.071922 -7.224056 42.377335
v  -0.000003 -6.965362 52.983852
v  -4.071924 -6.965362 52.983852
v  -0.000003 -4.006009 53.777077
v  -4.071924 -4.006009 53.777077
v  -0.000003 -1.047467 54.497543
v  -4.071924 -1.047467 54.497543
v  -0.000004 1.909458 55.072479
v  -4.071925 1.909458 55.072479
v  -0.000004 4.863951 55.429134
v  -4.071925 4.863951 55.429134
v  -0.000004 7.815208 55.494736
v  -4.071925 7.815208 55.494736
v  -0.000004 10.762418 55.196533
v  -4.071924 10.762418 55.196529
v  -0.000004 13.704770 54.461746
v  -4.071925 13.704770 54.461746
v  -0.000004 16.641455 53.217628
v  -4.071925 16.641455 53.217628
v  -0.000004 19.571663 51.391415
v  -4.071924 19.571663 51.391415
v  -0.000003 22.494587 48.910339
v  -4.071924 22.494587 48.910339
v  -0.000003 25.409416 45.701641
v  -4.071924 25.409416 45.701637
v  -0.000002 28.315340 41.692551
v  -4.071923 28.315340 41.692551
v  -0.000002 31.211548 36.810326
v  -4.071922 31.211548 36.810326
# 82 vertices

vn 0.000000 -0.997631 -0.068790
vn 0.000000 -0.996998 -0.077424
vn 0.000000 -0.994659 -0.103220
vn 0.000000 -0.989323 -0.145736
vn 0.000000 -0.978991 -0.203904
vn 0.000000 -0.961269 -0.275613
vn 0.000000 -0.933950 -0.357404
vn 0.000000 -0.895760 -0.444538
vn 0.000000 -0.846992 -0.531606
vn 0.000000 -0.789650 -0.613557
vn 0.000000 -0.726959 -0.686681
vn 0.000000 -0.662491 -0.749070
vn 0.000000 -0.599363 -0.800477
vn 0.000000 -0.519985 -0.854175
vn 0.000000 -0.403404 -0.915022
vn 0.000000 -0.273194 -0.961959
vn 0.000000 -0.157863 -0.987461
vn 0.000000 -0.060354 -0.998177
vn 0.000000 0.019673 -0.999806
vn 0.000000 0.084099 -0.996457
vn 0.000000 0.135206 -0.990818
vn 0.000000 0.175118 -0.984547
vn 0.000000 0.205597 -0.978637
vn 0.000000 0.228009 -0.973659
vn 0.000000 0.243352 -0.969938
vn 0.000000 0.252300 -0.967649
vn 0.000000 0.255240 -0.966878
vn 0.000000 -0.999703 0.024383
vn -0.000000 -0.258901 0.965904
vn -0.000000 -0.247770 0.968819
vn -0.000000 -0.213793 0.976879
vn -0.000000 -0.155455 0.987843
vn -0.000000 -0.071120 0.997468
vn -0.000000 0.039297 0.999228
vn -0.000000 0.171922 0.985111
vn -0.000000 0.317150 0.948375
vn -0.000000 0.460916 0.887444
vn -0.000000 0.589608 0.807689
vn -0.000000 0.695118 0.718896
vn -0.000000 0.776111 0.630597
vn -0.000000 0.776110 0.630597
vn -0.000000 0.835745 0.549117
vn -0.000000 0.860057 0.510198
vn 0.000000 -0.003086 -0.999995
vn 1.000000 0.000000 0.000000
vn -1.000000 -0.000000 -0.000000
vn -1.000000 -0.000000 0.000000
vn -1.000000 0.000000 -0.000000
# 48 vertex normals

g Line006
f 1//1 2//2 3//2 4//1
f 2//2 5//3 6//3 3//2
f 5//3 7//4 8//4 6//3
f 7//4 9//5 10//5 8//4
f 9//5 11//6 12//6 10//5
f 11//6 13//7 14//7 12//6
f 13//7 15//8 16//8 14//7
f 15//8 17//9 18//9 16//8
f 17//9 19//10 20//10 18//9
f 19//10 21//11 22//11 20//10
f 21//11 23//12 24//12 22//11
f 23//12 25//13 26//13 24//12
f 25//13 27//14 28//14 26//13
f 27//14 29//15 30//15 28//14
f 29//15 31//16 32//16 30//15
f 31//16 33//17 34//17 32//16
f 33//17 35//18 36//18 34//17
f 35//18 37//19 38//19 36//18
f 37//19 39//20 40//20 38//19
f 39//20 41//21 42//21 40//20
f 41//21 43//22 44//22 42//21
f 43//22 45//23 46//23 44//22
f 45//23 47//24 48//24 46//23
f 47//24 49//25 50//25 48//24
f 49//25 51//26 52//26 50//25
f 51//26 53//27 54//27 52//26
f 53//28 55//28 56//28 54//28
f 55//29 57//30 58//30 56//29
f 57//30 59//31 60//31 58//30
f 59//31 61//32 62//32 60//31
f 61//32 63//33 64//33 62//32
f 63//33 65//34 66//34 64//33
f 65//34 67//35 68//35 66//34
f 67//35 69//36 70//36 68//35
f 69//36 71//37 72//37 70//36
f 71//37 73//38 74//38 72//37
f 73//38 75//39 76//39 74//38
f 75//39 77//40 78//41 76//39
f 77//40 79//42 80//42 78//41
f 79//42 81//43 82//43 80//42
f 81//44 1//44 4//44 82//44
f 79//45 77//45 75//45 73//45 71//45 69//45 67//45 65//45 63//45 61//45 59//45 57//45 55//45 53//45 51//45 49//45 47//45 45//45 43//45 41//45 39//45 37//45 35//45 33//45 31//45 29//45 27//45 25//45 23//45 21//45 19//45 17//45 15//45 13//45 11//45 9//45 7//45 5//45 2//45 1//45 81//45
f 80//46 82//46 4//46 3//46 6//46 8//47 10//47 12//46 14//46 16//46 18//46 20//46 22//46 24//46 26//46 28//46 30//46 32//46 34//46 36//46 38//46 40//46 42//46 44//46 46//46 48//46 50//46 52//46 54//46 56//46 58//46 60//46 62//46 64//46 66//48 68//48 70//46 72//46 74//46 76//46 78//46
# 43 polygons

